%TF.GenerationSoftware,KiCad,Pcbnew,9.0.1*%
%TF.CreationDate,2025-10-12T18:30:29-07:00*%
%TF.ProjectId,esp-32 s3 template,6573702d-3332-4207-9333-2074656d706c,rev?*%
%TF.SameCoordinates,Original*%
%TF.FileFunction,Copper,L1,Top*%
%TF.FilePolarity,Positive*%
%FSLAX46Y46*%
G04 Gerber Fmt 4.6, Leading zero omitted, Abs format (unit mm)*
G04 Created by KiCad (PCBNEW 9.0.1) date 2025-10-12 18:30:29*
%MOMM*%
%LPD*%
G01*
G04 APERTURE LIST*
G04 Aperture macros list*
%AMRoundRect*
0 Rectangle with rounded corners*
0 $1 Rounding radius*
0 $2 $3 $4 $5 $6 $7 $8 $9 X,Y pos of 4 corners*
0 Add a 4 corners polygon primitive as box body*
4,1,4,$2,$3,$4,$5,$6,$7,$8,$9,$2,$3,0*
0 Add four circle primitives for the rounded corners*
1,1,$1+$1,$2,$3*
1,1,$1+$1,$4,$5*
1,1,$1+$1,$6,$7*
1,1,$1+$1,$8,$9*
0 Add four rect primitives between the rounded corners*
20,1,$1+$1,$2,$3,$4,$5,0*
20,1,$1+$1,$4,$5,$6,$7,0*
20,1,$1+$1,$6,$7,$8,$9,0*
20,1,$1+$1,$8,$9,$2,$3,0*%
G04 Aperture macros list end*
%TA.AperFunction,SMDPad,CuDef*%
%ADD10RoundRect,0.225000X0.250000X-0.225000X0.250000X0.225000X-0.250000X0.225000X-0.250000X-0.225000X0*%
%TD*%
%TA.AperFunction,SMDPad,CuDef*%
%ADD11RoundRect,0.200000X-0.200000X-0.275000X0.200000X-0.275000X0.200000X0.275000X-0.200000X0.275000X0*%
%TD*%
%TA.AperFunction,SMDPad,CuDef*%
%ADD12RoundRect,0.200000X0.275000X-0.200000X0.275000X0.200000X-0.275000X0.200000X-0.275000X-0.200000X0*%
%TD*%
%TA.AperFunction,SMDPad,CuDef*%
%ADD13RoundRect,0.225000X-0.375000X0.225000X-0.375000X-0.225000X0.375000X-0.225000X0.375000X0.225000X0*%
%TD*%
%TA.AperFunction,SMDPad,CuDef*%
%ADD14R,0.650000X1.050000*%
%TD*%
%TA.AperFunction,SMDPad,CuDef*%
%ADD15RoundRect,0.225000X0.225000X0.250000X-0.225000X0.250000X-0.225000X-0.250000X0.225000X-0.250000X0*%
%TD*%
%TA.AperFunction,SMDPad,CuDef*%
%ADD16R,0.600000X1.140000*%
%TD*%
%TA.AperFunction,SMDPad,CuDef*%
%ADD17R,0.300000X1.140000*%
%TD*%
%TA.AperFunction,ComponentPad*%
%ADD18O,0.900000X2.000000*%
%TD*%
%TA.AperFunction,ComponentPad*%
%ADD19O,0.900000X1.700000*%
%TD*%
%TA.AperFunction,SMDPad,CuDef*%
%ADD20RoundRect,0.225000X-0.250000X0.225000X-0.250000X-0.225000X0.250000X-0.225000X0.250000X0.225000X0*%
%TD*%
%TA.AperFunction,ComponentPad*%
%ADD21R,2.895000X2.895000*%
%TD*%
%TA.AperFunction,ComponentPad*%
%ADD22C,2.895000*%
%TD*%
%TA.AperFunction,SMDPad,CuDef*%
%ADD23R,1.500000X0.900000*%
%TD*%
%TA.AperFunction,SMDPad,CuDef*%
%ADD24R,0.900000X1.500000*%
%TD*%
%TA.AperFunction,HeatsinkPad*%
%ADD25C,0.600000*%
%TD*%
%TA.AperFunction,HeatsinkPad*%
%ADD26R,3.900000X3.900000*%
%TD*%
%TA.AperFunction,SMDPad,CuDef*%
%ADD27RoundRect,0.375000X-0.375000X0.625000X-0.375000X-0.625000X0.375000X-0.625000X0.375000X0.625000X0*%
%TD*%
%TA.AperFunction,SMDPad,CuDef*%
%ADD28RoundRect,0.500000X-1.400000X0.500000X-1.400000X-0.500000X1.400000X-0.500000X1.400000X0.500000X0*%
%TD*%
%TA.AperFunction,SMDPad,CuDef*%
%ADD29RoundRect,0.150000X-0.150000X-0.200000X0.150000X-0.200000X0.150000X0.200000X-0.150000X0.200000X0*%
%TD*%
%TA.AperFunction,SMDPad,CuDef*%
%ADD30RoundRect,0.150000X0.150000X0.200000X-0.150000X0.200000X-0.150000X-0.200000X0.150000X-0.200000X0*%
%TD*%
%TA.AperFunction,SMDPad,CuDef*%
%ADD31RoundRect,0.147500X0.147500X0.172500X-0.147500X0.172500X-0.147500X-0.172500X0.147500X-0.172500X0*%
%TD*%
%TA.AperFunction,ComponentPad*%
%ADD32R,1.198000X1.198000*%
%TD*%
%TA.AperFunction,ComponentPad*%
%ADD33C,1.198000*%
%TD*%
%TA.AperFunction,ViaPad*%
%ADD34C,0.600000*%
%TD*%
%TA.AperFunction,Conductor*%
%ADD35C,1.000000*%
%TD*%
%TA.AperFunction,Conductor*%
%ADD36C,0.200000*%
%TD*%
G04 APERTURE END LIST*
D10*
%TO.P,C9,1*%
%TO.N,GPI00*%
X161475000Y-49487500D03*
%TO.P,C9,2*%
%TO.N,GND*%
X161475000Y-47937500D03*
%TD*%
D11*
%TO.P,R4,1*%
%TO.N,ESP_3V3*%
X136675000Y-43400000D03*
%TO.P,R4,2*%
%TO.N,CHIP_PU*%
X138325000Y-43400000D03*
%TD*%
D12*
%TO.P,R5,1*%
%TO.N,VCC_3V3*%
X161475000Y-52937500D03*
%TO.P,R5,2*%
%TO.N,GPI00*%
X161475000Y-51287500D03*
%TD*%
D13*
%TO.P,D1,1,K*%
%TO.N,VCC_5V*%
X118000000Y-60850000D03*
%TO.P,D1,2,A*%
%TO.N,Net-(D1-A)*%
X118000000Y-64150000D03*
%TD*%
D11*
%TO.P,R2,1*%
%TO.N,Net-(J1-CC2)*%
X133275000Y-60900000D03*
%TO.P,R2,2*%
%TO.N,GND*%
X134925000Y-60900000D03*
%TD*%
%TO.P,R1,1*%
%TO.N,Net-(J1-CC1)*%
X133275000Y-64400000D03*
%TO.P,R1,2*%
%TO.N,GND*%
X134925000Y-64400000D03*
%TD*%
D14*
%TO.P,SW1,1*%
%TO.N,GND*%
X165850000Y-48325000D03*
%TO.P,SW1,2*%
X165850000Y-52475000D03*
%TO.P,SW1,3*%
%TO.N,GPI00*%
X163700000Y-48325000D03*
%TO.P,SW1,4*%
X163700000Y-52475000D03*
%TD*%
D10*
%TO.P,C3,1*%
%TO.N,VCC_5V*%
X124100000Y-38175000D03*
%TO.P,C3,2*%
%TO.N,GND*%
X124100000Y-36625000D03*
%TD*%
D15*
%TO.P,C8,1*%
%TO.N,VCC_3V3*%
X138275000Y-38500000D03*
%TO.P,C8,2*%
%TO.N,GND*%
X136725000Y-38500000D03*
%TD*%
D16*
%TO.P,J1,A1_B12,GND*%
%TO.N,GND*%
X122300000Y-58650000D03*
%TO.P,J1,A4_B9,VBUS*%
%TO.N,Net-(D1-A)*%
X123100000Y-58650000D03*
D17*
%TO.P,J1,A5,CC1*%
%TO.N,Net-(J1-CC1)*%
X124250000Y-58650000D03*
%TO.P,J1,A6,DP1*%
%TO.N,D+*%
X125250000Y-58650000D03*
%TO.P,J1,A7,DN1*%
%TO.N,D-*%
X125750000Y-58650000D03*
%TO.P,J1,A8,SBU1*%
%TO.N,unconnected-(J1-SBU1-PadA8)*%
X126750000Y-58650000D03*
D16*
%TO.P,J1,B1_A12,GND*%
%TO.N,GND*%
X128700000Y-58650000D03*
%TO.P,J1,B4_A9,VBUS*%
%TO.N,Net-(D1-A)*%
X127900000Y-58650000D03*
D17*
%TO.P,J1,B5,CC2*%
%TO.N,Net-(J1-CC2)*%
X127250000Y-58650000D03*
%TO.P,J1,B6,DP2*%
%TO.N,D+*%
X126250000Y-58650000D03*
%TO.P,J1,B7,DN2*%
%TO.N,D-*%
X124750000Y-58650000D03*
%TO.P,J1,B8,SBU2*%
%TO.N,unconnected-(J1-SBU2-PadB8)*%
X123750000Y-58650000D03*
D18*
%TO.P,J1,S1,SHIELD*%
%TO.N,GND*%
X121175000Y-59230000D03*
%TO.P,J1,S2,SHIELD*%
X129825000Y-59230000D03*
D19*
%TO.P,J1,S3,SHIELD*%
X121175000Y-63400000D03*
%TO.P,J1,S4,SHIELD*%
X129825000Y-63400000D03*
%TD*%
D20*
%TO.P,C4,1*%
%TO.N,VCC_3V3*%
X132000000Y-44525000D03*
%TO.P,C4,2*%
%TO.N,GND*%
X132000000Y-46075000D03*
%TD*%
%TO.P,C1,1*%
%TO.N,VCC_5V*%
X118000000Y-56600000D03*
%TO.P,C1,2*%
%TO.N,GND*%
X118000000Y-58150000D03*
%TD*%
D21*
%TO.P,J2,1,1*%
%TO.N,VCC_5V*%
X112205000Y-47065000D03*
D22*
%TO.P,J2,2,2*%
%TO.N,GND*%
X112205000Y-51515000D03*
%TO.P,J2,3,3*%
%TO.N,Low*%
X112205000Y-55955000D03*
%TO.P,J2,4,4*%
%TO.N,High*%
X107755000Y-55955000D03*
%TO.P,J2,5,5*%
%TO.N,Low*%
X107755000Y-51515000D03*
%TO.P,J2,6,6*%
%TO.N,High*%
X107755000Y-47065000D03*
%TD*%
D11*
%TO.P,R9,1*%
%TO.N,ESP_3V3*%
X136675000Y-40100000D03*
%TO.P,R9,2*%
%TO.N,VCC_3V3*%
X138325000Y-40100000D03*
%TD*%
D15*
%TO.P,C6,1*%
%TO.N,CHIP_PU*%
X138275000Y-41700000D03*
%TO.P,C6,2*%
%TO.N,GND*%
X136725000Y-41700000D03*
%TD*%
D23*
%TO.P,U2,1,GND*%
%TO.N,GND*%
X141750000Y-36440000D03*
%TO.P,U2,2,3V3*%
%TO.N,VCC_3V3*%
X141750000Y-37710000D03*
%TO.P,U2,3,EN*%
%TO.N,CHIP_PU*%
X141750000Y-38980000D03*
%TO.P,U2,4,IO4*%
%TO.N,unconnected-(U2-IO4-Pad4)*%
X141750000Y-40250000D03*
%TO.P,U2,5,IO5*%
%TO.N,unconnected-(U2-IO5-Pad5)*%
X141750000Y-41520000D03*
%TO.P,U2,6,IO6*%
%TO.N,SCK*%
X141750000Y-42790000D03*
%TO.P,U2,7,IO7*%
%TO.N,unconnected-(U2-IO7-Pad7)*%
X141750000Y-44060000D03*
%TO.P,U2,8,IO15*%
%TO.N,unconnected-(U2-IO15-Pad8)*%
X141750000Y-45330000D03*
%TO.P,U2,9,IO16*%
%TO.N,unconnected-(U2-IO16-Pad9)*%
X141750000Y-46600000D03*
%TO.P,U2,10,IO17*%
%TO.N,unconnected-(U2-IO17-Pad10)*%
X141750000Y-47870000D03*
%TO.P,U2,11,IO18*%
%TO.N,unconnected-(U2-IO18-Pad11)*%
X141750000Y-49140000D03*
%TO.P,U2,12,IO8*%
%TO.N,RGB*%
X141750000Y-50410000D03*
%TO.P,U2,13,USB_D-*%
%TO.N,D-*%
X141750000Y-51680000D03*
%TO.P,U2,14,USB_D+*%
%TO.N,D+*%
X141750000Y-52950000D03*
D24*
%TO.P,U2,15,IO3*%
%TO.N,unconnected-(U2-IO3-Pad15)*%
X143515000Y-54200000D03*
%TO.P,U2,16,IO46*%
%TO.N,SCL*%
X144785000Y-54200000D03*
%TO.P,U2,17,IO9*%
%TO.N,CLK*%
X146055000Y-54200000D03*
%TO.P,U2,18,IO10*%
%TO.N,CS*%
X147325000Y-54200000D03*
%TO.P,U2,19,IO11*%
%TO.N,DC*%
X148595000Y-54200000D03*
%TO.P,U2,20,IO12*%
%TO.N,RST*%
X149865000Y-54200000D03*
%TO.P,U2,21,IO13*%
%TO.N,BL*%
X151135000Y-54200000D03*
%TO.P,U2,22,IO14*%
%TO.N,unconnected-(U2-IO14-Pad22)*%
X152405000Y-54200000D03*
%TO.P,U2,23,IO21*%
%TO.N,unconnected-(U2-IO21-Pad23)*%
X153675000Y-54200000D03*
%TO.P,U2,24,IO47*%
%TO.N,SO*%
X154945000Y-54200000D03*
%TO.P,U2,25,IO48*%
%TO.N,SI*%
X156215000Y-54200000D03*
%TO.P,U2,26,IO45*%
%TO.N,SDA*%
X157485000Y-54200000D03*
D23*
%TO.P,U2,27,IO0*%
%TO.N,GPI00*%
X159250000Y-52950000D03*
%TO.P,U2,28,IO35*%
%TO.N,unconnected-(U2-IO35-Pad28)*%
X159250000Y-51680000D03*
%TO.P,U2,29,IO36*%
%TO.N,unconnected-(U2-IO36-Pad29)*%
X159250000Y-50410000D03*
%TO.P,U2,30,IO37*%
%TO.N,unconnected-(U2-IO37-Pad30)*%
X159250000Y-49140000D03*
%TO.P,U2,31,IO38*%
%TO.N,unconnected-(U2-IO38-Pad31)*%
X159250000Y-47870000D03*
%TO.P,U2,32,IO39*%
%TO.N,unconnected-(U2-IO39-Pad32)*%
X159250000Y-46600000D03*
%TO.P,U2,33,IO40*%
%TO.N,unconnected-(U2-IO40-Pad33)*%
X159250000Y-45330000D03*
%TO.P,U2,34,IO41*%
%TO.N,unconnected-(U2-IO41-Pad34)*%
X159250000Y-44060000D03*
%TO.P,U2,35,IO42*%
%TO.N,unconnected-(U2-IO42-Pad35)*%
X159250000Y-42790000D03*
%TO.P,U2,36,RXD0*%
%TO.N,unconnected-(U2-RXD0-Pad36)*%
X159250000Y-41520000D03*
%TO.P,U2,37,TXD0*%
%TO.N,unconnected-(U2-TXD0-Pad37)*%
X159250000Y-40250000D03*
%TO.P,U2,38,IO2*%
%TO.N,VCC_3V3*%
X159250000Y-38980000D03*
%TO.P,U2,39,IO1*%
%TO.N,unconnected-(U2-IO1-Pad39)*%
X159250000Y-37710000D03*
%TO.P,U2,40,GND*%
%TO.N,GND*%
X159250000Y-36440000D03*
D25*
%TO.P,U2,41,GND*%
X147600000Y-43460000D03*
X147600000Y-44860000D03*
X148300000Y-42760000D03*
X148300000Y-44160000D03*
X148300000Y-45560000D03*
X149000000Y-43460000D03*
D26*
X149000000Y-44160000D03*
D25*
X149000000Y-44860000D03*
X149700000Y-42760000D03*
X149700000Y-44160000D03*
X149700000Y-45560000D03*
X150400000Y-43460000D03*
X150400000Y-44860000D03*
%TD*%
D12*
%TO.P,R6,1*%
%TO.N,VCC_3V3*%
X161400000Y-45125000D03*
%TO.P,R6,2*%
%TO.N,CHIP_PU*%
X161400000Y-43475000D03*
%TD*%
D27*
%TO.P,U1,1,GND*%
%TO.N,GND*%
X127900000Y-41050000D03*
%TO.P,U1,2,VO*%
%TO.N,VCC_3V3*%
X125600000Y-41050000D03*
D28*
X125600000Y-47350000D03*
D27*
%TO.P,U1,3,VI*%
%TO.N,VCC_5V*%
X123300000Y-41050000D03*
%TD*%
D20*
%TO.P,C5,1*%
%TO.N,VCC_3V3*%
X130300000Y-44525000D03*
%TO.P,C5,2*%
%TO.N,GND*%
X130300000Y-46075000D03*
%TD*%
D15*
%TO.P,C7,1*%
%TO.N,VCC_3V3*%
X138275000Y-36800000D03*
%TO.P,C7,2*%
%TO.N,GND*%
X136725000Y-36800000D03*
%TD*%
D29*
%TO.P,D4,1,A1*%
%TO.N,GND*%
X128700000Y-55300000D03*
%TO.P,D4,2,A2*%
%TO.N,D+*%
X127300000Y-55300000D03*
%TD*%
D30*
%TO.P,D3,1,A1*%
%TO.N,GND*%
X123300000Y-55300000D03*
%TO.P,D3,2,A2*%
%TO.N,D-*%
X124700000Y-55300000D03*
%TD*%
D10*
%TO.P,C2,1*%
%TO.N,VCC_5V*%
X122100000Y-38175000D03*
%TO.P,C2,2*%
%TO.N,GND*%
X122100000Y-36625000D03*
%TD*%
D11*
%TO.P,R3,1*%
%TO.N,VCC_3V3*%
X122575000Y-50100000D03*
%TO.P,R3,2*%
%TO.N,Net-(D5-A)*%
X124225000Y-50100000D03*
%TD*%
D29*
%TO.P,D2,1,A1*%
%TO.N,GND*%
X134800000Y-58500000D03*
%TO.P,D2,2,A2*%
%TO.N,Net-(D1-A)*%
X133400000Y-58500000D03*
%TD*%
D31*
%TO.P,D5,1,K*%
%TO.N,GND*%
X127885000Y-50100000D03*
%TO.P,D5,2,A*%
%TO.N,Net-(D5-A)*%
X126915000Y-50100000D03*
%TD*%
D10*
%TO.P,C10,1*%
%TO.N,CHIP_PU*%
X161400000Y-41575000D03*
%TO.P,C10,2*%
%TO.N,GND*%
X161400000Y-40025000D03*
%TD*%
D14*
%TO.P,SW2,1*%
%TO.N,GND*%
X165775000Y-40500000D03*
%TO.P,SW2,2*%
X165775000Y-44650000D03*
%TO.P,SW2,3*%
%TO.N,CHIP_PU*%
X163625000Y-40500000D03*
%TO.P,SW2,4*%
X163625000Y-44650000D03*
%TD*%
D32*
%TO.P,U5,1,SCL/Vz*%
%TO.N,SCL*%
X163640000Y-61500000D03*
D33*
%TO.P,U5,2,SDA/PWM*%
%TO.N,SDA*%
X161100000Y-64040000D03*
%TO.P,U5,3,VDD*%
%TO.N,VCC_3V3*%
X158560000Y-61500000D03*
%TO.P,U5,4,VSS*%
%TO.N,GND*%
X161100000Y-58960000D03*
%TD*%
D34*
%TO.N,VCC_5V*%
X119100000Y-53600000D03*
%TO.N,GND*%
X138500000Y-58900000D03*
X120500000Y-56500000D03*
X162800000Y-47100000D03*
X165500000Y-55600000D03*
X123400000Y-54400000D03*
X132900000Y-41600000D03*
X134600000Y-46600000D03*
X129400000Y-47500000D03*
%TO.N,ESP_3V3*%
X134000000Y-42700000D03*
X134674265Y-40674265D03*
%TO.N,CHIP_PU*%
X161500000Y-37400000D03*
X156100000Y-38700000D03*
%TO.N,RGB*%
X157200000Y-45200000D03*
%TO.N,CS*%
X140300000Y-58600000D03*
%TO.N,VCC_3V3*%
X156200000Y-40300000D03*
%TO.N,Net-(U3-OSC2)*%
X128406028Y-39558626D03*
X129100000Y-37200000D03*
%TO.N,Net-(U3-OSC1)*%
X129900000Y-35800000D03*
X129700000Y-39600000D03*
%TO.N,SDA*%
X157500000Y-56600000D03*
%TO.N,SCL*%
X142100000Y-57100000D03*
%TO.N,SCK*%
X132500000Y-48700000D03*
%TO.N,SO*%
X140900000Y-61200000D03*
%TO.N,SI*%
X140500000Y-62800000D03*
%TD*%
D35*
%TO.N,VCC_5V*%
X115115000Y-45815000D02*
X115115000Y-45785000D01*
X112240000Y-47100000D02*
X112205000Y-47065000D01*
X113830000Y-47100000D02*
X112240000Y-47100000D01*
X115115000Y-45815000D02*
X118000000Y-48700000D01*
X122100000Y-39850000D02*
X123300000Y-41050000D01*
X122100000Y-38175000D02*
X124100000Y-38175000D01*
X115300000Y-57700000D02*
X115300000Y-60100000D01*
X118000000Y-56600000D02*
X116400000Y-56600000D01*
X122100000Y-38800000D02*
X122100000Y-38175000D01*
X115115000Y-45815000D02*
X113830000Y-47100000D01*
X118000000Y-48700000D02*
X118000000Y-53600000D01*
X116050000Y-60850000D02*
X118000000Y-60850000D01*
X115115000Y-45785000D02*
X122100000Y-38800000D01*
X118000000Y-53600000D02*
X119100000Y-53600000D01*
X115300000Y-60100000D02*
X116050000Y-60850000D01*
X116400000Y-56600000D02*
X115300000Y-57700000D01*
X118000000Y-53600000D02*
X118000000Y-56600000D01*
X122100000Y-38175000D02*
X122100000Y-39850000D01*
D36*
%TO.N,GND*%
X165775000Y-38775000D02*
X165775000Y-40500000D01*
X129400000Y-47500000D02*
X129400000Y-46975000D01*
X132000000Y-46075000D02*
X134075000Y-46075000D01*
X122300000Y-56300000D02*
X123300000Y-55300000D01*
X118900000Y-58100000D02*
X118800000Y-58100000D01*
X165775000Y-44650000D02*
X165775000Y-45125000D01*
X122300000Y-58650000D02*
X122300000Y-56300000D01*
X136725000Y-36800000D02*
X136725000Y-38500000D01*
X126000000Y-38700000D02*
X126000000Y-37000000D01*
X134075000Y-46075000D02*
X134600000Y-46600000D01*
X161400000Y-39100000D02*
X160400000Y-38100000D01*
X141750000Y-36440000D02*
X140640000Y-36440000D01*
X136000000Y-38500000D02*
X132900000Y-41600000D01*
X161962500Y-47937500D02*
X162800000Y-47100000D01*
X127900000Y-40600000D02*
X126000000Y-38700000D01*
X121755000Y-58650000D02*
X121175000Y-59230000D01*
X127885000Y-50100000D02*
X128700000Y-50100000D01*
X133000000Y-41700000D02*
X132900000Y-41600000D01*
X125625000Y-36625000D02*
X124100000Y-36625000D01*
X132350000Y-41050000D02*
X132900000Y-41600000D01*
X121700000Y-55300000D02*
X120500000Y-56500000D01*
X127900000Y-41050000D02*
X127900000Y-40600000D01*
X123300000Y-55300000D02*
X121700000Y-55300000D01*
X118800000Y-58100000D02*
X118750000Y-58150000D01*
X127900000Y-41050000D02*
X132350000Y-41050000D01*
X165850000Y-55250000D02*
X165500000Y-55600000D01*
X165850000Y-52475000D02*
X165850000Y-55250000D01*
X160400000Y-38100000D02*
X160400000Y-36640000D01*
X140640000Y-36440000D02*
X139900000Y-35700000D01*
X136725000Y-41700000D02*
X133000000Y-41700000D01*
X118750000Y-58150000D02*
X118000000Y-58150000D01*
X160400000Y-36640000D02*
X160200000Y-36440000D01*
X123400000Y-55200000D02*
X123300000Y-55300000D01*
X161400000Y-40025000D02*
X161400000Y-39100000D01*
X136725000Y-38500000D02*
X136000000Y-38500000D01*
X128700000Y-50100000D02*
X128800000Y-50100000D01*
X130300000Y-46075000D02*
X132000000Y-46075000D01*
X126000000Y-37000000D02*
X125625000Y-36625000D01*
X163440000Y-36440000D02*
X165775000Y-38775000D01*
X159250000Y-36440000D02*
X163440000Y-36440000D01*
X136725000Y-36175000D02*
X136725000Y-36800000D01*
X122300000Y-58650000D02*
X121755000Y-58650000D01*
X161475000Y-47937500D02*
X161962500Y-47937500D01*
X165850000Y-48325000D02*
X165850000Y-52475000D01*
X128700000Y-58650000D02*
X129245000Y-58650000D01*
X128800000Y-50100000D02*
X129400000Y-49500000D01*
X134800000Y-58500000D02*
X138100000Y-58500000D01*
X165775000Y-45125000D02*
X165850000Y-45200000D01*
X139900000Y-35700000D02*
X137200000Y-35700000D01*
X137200000Y-35700000D02*
X136725000Y-36175000D01*
X129245000Y-58650000D02*
X129825000Y-59230000D01*
X129400000Y-46975000D02*
X130300000Y-46075000D01*
X124100000Y-36625000D02*
X122100000Y-36625000D01*
X120500000Y-56500000D02*
X118900000Y-58100000D01*
X165850000Y-45200000D02*
X165850000Y-48325000D01*
X138100000Y-58500000D02*
X138500000Y-58900000D01*
X160200000Y-36440000D02*
X159250000Y-36440000D01*
X165775000Y-40500000D02*
X165775000Y-44650000D01*
X129400000Y-49500000D02*
X129400000Y-47500000D01*
X123400000Y-54400000D02*
X123400000Y-55200000D01*
%TO.N,ESP_3V3*%
X135248530Y-40100000D02*
X136675000Y-40100000D01*
X136675000Y-43400000D02*
X134700000Y-43400000D01*
X134674265Y-40674265D02*
X135248530Y-40100000D01*
X134700000Y-43400000D02*
X134000000Y-42700000D01*
%TO.N,CHIP_PU*%
X161400000Y-41575000D02*
X161400000Y-43475000D01*
X163325000Y-41575000D02*
X163625000Y-41275000D01*
X138325000Y-41750000D02*
X138275000Y-41700000D01*
X140800000Y-38980000D02*
X141750000Y-38980000D01*
X139000000Y-41700000D02*
X140000000Y-40700000D01*
X163050000Y-44650000D02*
X163625000Y-44650000D01*
X161500000Y-37400000D02*
X163625000Y-39525000D01*
X141750000Y-38980000D02*
X155820000Y-38980000D01*
X163625000Y-39525000D02*
X163625000Y-40500000D01*
X161400000Y-43475000D02*
X161875000Y-43475000D01*
X140000000Y-39780000D02*
X140800000Y-38980000D01*
X163625000Y-41275000D02*
X163625000Y-40500000D01*
X140000000Y-40700000D02*
X140000000Y-39780000D01*
X161875000Y-43475000D02*
X163050000Y-44650000D01*
X138325000Y-43400000D02*
X138325000Y-41750000D01*
X155820000Y-38980000D02*
X156100000Y-38700000D01*
X161400000Y-41575000D02*
X163325000Y-41575000D01*
X138275000Y-41700000D02*
X139000000Y-41700000D01*
%TO.N,GPI00*%
X162637500Y-48325000D02*
X161475000Y-49487500D01*
X162512500Y-51287500D02*
X163700000Y-52475000D01*
X161475000Y-51287500D02*
X160812500Y-51287500D01*
X160250000Y-52950000D02*
X159250000Y-52950000D01*
X163700000Y-48325000D02*
X162637500Y-48325000D01*
X161475000Y-51287500D02*
X161475000Y-49487500D01*
X160400000Y-52800000D02*
X160250000Y-52950000D01*
X161475000Y-51287500D02*
X162512500Y-51287500D01*
X160400000Y-51700000D02*
X160400000Y-52800000D01*
X160812500Y-51287500D02*
X160400000Y-51700000D01*
%TO.N,Net-(D1-A)*%
X120600000Y-61300000D02*
X122400000Y-61300000D01*
X122400000Y-61300000D02*
X123261000Y-60439000D01*
X120000000Y-61900000D02*
X120600000Y-61300000D01*
X133400000Y-58500000D02*
X132800000Y-58500000D01*
X128800000Y-57000000D02*
X127900000Y-57900000D01*
X118000000Y-64150000D02*
X118000000Y-63400000D01*
X127900000Y-57900000D02*
X127900000Y-58650000D01*
X132800000Y-58500000D02*
X131300000Y-57000000D01*
X119500000Y-61900000D02*
X120000000Y-61900000D01*
X123261000Y-60439000D02*
X123261000Y-58811000D01*
X123261000Y-58811000D02*
X123100000Y-58650000D01*
X118000000Y-63400000D02*
X119500000Y-61900000D01*
X131300000Y-57000000D02*
X128800000Y-57000000D01*
%TO.N,D-*%
X125775000Y-56900001D02*
X125775000Y-57769999D01*
X130125067Y-52090000D02*
X128912139Y-52090000D01*
X131325067Y-53158685D02*
X131125067Y-53158685D01*
X124700000Y-55825001D02*
X125775000Y-56900001D01*
X140624999Y-51680000D02*
X140214999Y-52090000D01*
X131500067Y-52715000D02*
X131500067Y-52983685D01*
X127910000Y-52090000D02*
X124700000Y-55300000D01*
X140214999Y-52090000D02*
X132125067Y-52090000D01*
X130325067Y-52090000D02*
X130125067Y-52090000D01*
X124700000Y-55300000D02*
X124700000Y-55825001D01*
X124750000Y-57850000D02*
X124750000Y-58650000D01*
X130950067Y-52983685D02*
X130950067Y-52715000D01*
X125750000Y-57794999D02*
X125734001Y-57779000D01*
X141750000Y-51680000D02*
X140624999Y-51680000D01*
X125734001Y-57779000D02*
X124821000Y-57779000D01*
X128912139Y-52090000D02*
X127910000Y-52090000D01*
X125750000Y-57794999D02*
X125750000Y-58650000D01*
X124821000Y-57779000D02*
X124750000Y-57850000D01*
X125775000Y-57769999D02*
X125750000Y-57794999D01*
X131500067Y-52983685D02*
G75*
G02*
X131325067Y-53158667I-174967J-15D01*
G01*
X131125067Y-53158685D02*
G75*
G02*
X130950115Y-52983685I33J174985D01*
G01*
X130950067Y-52715000D02*
G75*
G03*
X130325067Y-52090033I-624967J0D01*
G01*
X132125067Y-52090000D02*
G75*
G03*
X131500100Y-52715000I33J-625000D01*
G01*
%TO.N,D+*%
X132125067Y-52540000D02*
X135306794Y-52540000D01*
X128912139Y-52540000D02*
X128096397Y-52540000D01*
X126225000Y-57769999D02*
X126250000Y-57794999D01*
X130125067Y-52540000D02*
X128912139Y-52540000D01*
X126225000Y-56900001D02*
X126225000Y-57769999D01*
X127300000Y-55300000D02*
X127300000Y-55825001D01*
X126201000Y-59521000D02*
X126250000Y-59472000D01*
X126250000Y-57794999D02*
X126250000Y-58650000D01*
X126250000Y-59472000D02*
X126250000Y-58650000D01*
X130325067Y-52540000D02*
X130125067Y-52540000D01*
X136146794Y-52914989D02*
X136146794Y-52780000D01*
X125250000Y-59472000D02*
X125299000Y-59521000D01*
X127300000Y-53336397D02*
X127300000Y-55300000D01*
X127300000Y-55825001D02*
X126225000Y-56900001D01*
X131325067Y-53608685D02*
X131125067Y-53608685D01*
X125299000Y-59521000D02*
X126201000Y-59521000D01*
X140624999Y-52950000D02*
X141750000Y-52950000D01*
X130500067Y-52983685D02*
X130500067Y-52715000D01*
X136386794Y-52540000D02*
X136506794Y-52540000D01*
X131950067Y-52715000D02*
X131950067Y-52983685D01*
X135546794Y-52780000D02*
X135546794Y-52914989D01*
X135786794Y-53154989D02*
X135906794Y-53154989D01*
X140214999Y-52540000D02*
X140624999Y-52950000D01*
X136986794Y-53154989D02*
X137106794Y-53154989D01*
X128096397Y-52540000D02*
X127300000Y-53336397D01*
X137706794Y-52540000D02*
X139025461Y-52540000D01*
X139025461Y-52540000D02*
X140214999Y-52540000D01*
X137346794Y-52914989D02*
X137346794Y-52780000D01*
X125250000Y-58650000D02*
X125250000Y-59472000D01*
X137586794Y-52540000D02*
X137706794Y-52540000D01*
X136746794Y-52780000D02*
X136746794Y-52914989D01*
X131125067Y-53608685D02*
G75*
G02*
X130500115Y-52983685I33J624985D01*
G01*
X135906794Y-53154989D02*
G75*
G03*
X136146789Y-52914989I6J239989D01*
G01*
X136746794Y-52914989D02*
G75*
G03*
X136986794Y-53155006I240006J-11D01*
G01*
X135306794Y-52540000D02*
G75*
G02*
X135546800Y-52780000I6J-240000D01*
G01*
X131950067Y-52983685D02*
G75*
G02*
X131325067Y-53608667I-624967J-15D01*
G01*
X137106794Y-53154989D02*
G75*
G03*
X137346789Y-52914989I6J239989D01*
G01*
X137346794Y-52780000D02*
G75*
G02*
X137586794Y-52539994I240006J0D01*
G01*
X136146794Y-52780000D02*
G75*
G02*
X136386794Y-52539994I240006J0D01*
G01*
X130500067Y-52715000D02*
G75*
G03*
X130325067Y-52540033I-174967J0D01*
G01*
X135546794Y-52914989D02*
G75*
G03*
X135786794Y-53155006I240006J-11D01*
G01*
X132125067Y-52540000D02*
G75*
G03*
X131950100Y-52715000I33J-175000D01*
G01*
X136506794Y-52540000D02*
G75*
G02*
X136746800Y-52780000I6J-240000D01*
G01*
%TO.N,Net-(D5-A)*%
X124225000Y-50100000D02*
X126915000Y-50100000D01*
%TO.N,RGB*%
X151990000Y-50410000D02*
X157200000Y-45200000D01*
X141750000Y-50410000D02*
X151990000Y-50410000D01*
%TO.N,Net-(J1-CC1)*%
X128000000Y-65200000D02*
X124250000Y-61450000D01*
X133275000Y-64400000D02*
X132475000Y-65200000D01*
X132475000Y-65200000D02*
X128000000Y-65200000D01*
X124250000Y-61450000D02*
X124250000Y-58650000D01*
%TO.N,Net-(J1-CC2)*%
X127250000Y-59950000D02*
X127250000Y-58650000D01*
X133275000Y-60900000D02*
X128200000Y-60900000D01*
X128200000Y-60900000D02*
X127250000Y-59950000D01*
%TO.N,CS*%
X147325000Y-55150000D02*
X147325000Y-54200000D01*
X140300000Y-58600000D02*
X143875000Y-58600000D01*
X143875000Y-58600000D02*
X147325000Y-55150000D01*
%TO.N,VCC_3V3*%
X127500000Y-44525000D02*
X130300000Y-44525000D01*
X156400000Y-37700000D02*
X157520000Y-38820000D01*
X125600000Y-41050000D02*
X125600000Y-42700000D01*
X161800000Y-56300000D02*
X160200000Y-56300000D01*
X138325000Y-40100000D02*
X138325000Y-38550000D01*
X141750000Y-37710000D02*
X141760000Y-37700000D01*
X141750000Y-37710000D02*
X139065000Y-37710000D01*
X164700000Y-53400000D02*
X161800000Y-56300000D01*
X158600000Y-57900000D02*
X158600000Y-61460000D01*
X160200000Y-56300000D02*
X158600000Y-57900000D01*
X161475000Y-52937500D02*
X161475000Y-55025000D01*
X138325000Y-38550000D02*
X138275000Y-38500000D01*
X138275000Y-36800000D02*
X138275000Y-38500000D01*
X123150000Y-47350000D02*
X125600000Y-47350000D01*
X130300000Y-44525000D02*
X132000000Y-44525000D01*
X125600000Y-47350000D02*
X127500000Y-45450000D01*
X157520000Y-38820000D02*
X157520000Y-38980000D01*
X158600000Y-61460000D02*
X158560000Y-61500000D01*
X127425000Y-44525000D02*
X127500000Y-44525000D01*
X139065000Y-37710000D02*
X138275000Y-38500000D01*
X161475000Y-55025000D02*
X160200000Y-56300000D01*
X161525000Y-45125000D02*
X162700000Y-46300000D01*
X162700000Y-46300000D02*
X163900000Y-46300000D01*
X159250000Y-38980000D02*
X157520000Y-38980000D01*
X127500000Y-45450000D02*
X127500000Y-44525000D01*
X161400000Y-45125000D02*
X161525000Y-45125000D01*
X163900000Y-46300000D02*
X164700000Y-47100000D01*
X122575000Y-47925000D02*
X123150000Y-47350000D01*
X125600000Y-42700000D02*
X127425000Y-44525000D01*
X122575000Y-50100000D02*
X122575000Y-47925000D01*
X157520000Y-38980000D02*
X156200000Y-40300000D01*
X164700000Y-47100000D02*
X164700000Y-53400000D01*
X141760000Y-37700000D02*
X156400000Y-37700000D01*
%TO.N,Net-(U3-OSC2)*%
X128406028Y-39558626D02*
X129100000Y-38864654D01*
X129100000Y-38864654D02*
X129100000Y-37200000D01*
%TO.N,Net-(U3-OSC1)*%
X129700000Y-36000000D02*
X129900000Y-35800000D01*
X129700000Y-39600000D02*
X129700000Y-36000000D01*
%TO.N,SDA*%
X157500000Y-56600000D02*
X157500000Y-56100000D01*
X157485000Y-56085000D02*
X157485000Y-54200000D01*
X157500000Y-56100000D02*
X157485000Y-56085000D01*
%TO.N,SCL*%
X142835000Y-57100000D02*
X144785000Y-55150000D01*
X144785000Y-55150000D02*
X144785000Y-54200000D01*
X142100000Y-57100000D02*
X142835000Y-57100000D01*
%TO.N,SCK*%
X139700000Y-47600000D02*
X138600000Y-48700000D01*
X140800000Y-42790000D02*
X139700000Y-43890000D01*
X141750000Y-42790000D02*
X140800000Y-42790000D01*
X139700000Y-43890000D02*
X139700000Y-47600000D01*
X138600000Y-48700000D02*
X132500000Y-48700000D01*
%TO.N,SO*%
X154945000Y-54732000D02*
X154945000Y-54200000D01*
X140900000Y-61200000D02*
X148477000Y-61200000D01*
X148477000Y-61200000D02*
X154945000Y-54732000D01*
%TO.N,SI*%
X156215000Y-59685000D02*
X156215000Y-54200000D01*
X153100000Y-62800000D02*
X156215000Y-59685000D01*
X140500000Y-62800000D02*
X153100000Y-62800000D01*
%TD*%
%TA.AperFunction,Conductor*%
%TO.N,GND*%
G36*
X121559520Y-35520185D02*
G01*
X121605275Y-35572989D01*
X121615219Y-35642147D01*
X121586194Y-35705703D01*
X121544882Y-35736884D01*
X121541510Y-35738456D01*
X121397271Y-35827424D01*
X121397267Y-35827427D01*
X121277427Y-35947267D01*
X121277424Y-35947271D01*
X121188457Y-36091507D01*
X121188452Y-36091518D01*
X121135144Y-36252393D01*
X121125000Y-36351677D01*
X121125000Y-36375000D01*
X125074999Y-36375000D01*
X125074999Y-36351692D01*
X125074998Y-36351677D01*
X125064855Y-36252392D01*
X125011547Y-36091518D01*
X125011542Y-36091507D01*
X124922575Y-35947271D01*
X124922572Y-35947267D01*
X124802732Y-35827427D01*
X124802728Y-35827424D01*
X124658489Y-35738456D01*
X124655118Y-35736884D01*
X124653192Y-35735188D01*
X124652337Y-35734661D01*
X124652427Y-35734514D01*
X124602677Y-35690714D01*
X124583523Y-35623521D01*
X124603736Y-35556639D01*
X124656900Y-35511302D01*
X124707519Y-35500500D01*
X128992297Y-35500500D01*
X129059336Y-35520185D01*
X129105091Y-35572989D01*
X129115035Y-35642147D01*
X129113914Y-35648691D01*
X129099500Y-35721153D01*
X129099500Y-35878844D01*
X129100097Y-35884907D01*
X129099724Y-35884943D01*
X129101218Y-35900847D01*
X129101089Y-35915008D01*
X129099499Y-35920943D01*
X129099499Y-36079057D01*
X129099500Y-36079060D01*
X129099500Y-36089637D01*
X129099500Y-36282152D01*
X129079815Y-36349191D01*
X129027011Y-36394946D01*
X128999692Y-36403769D01*
X128866508Y-36430261D01*
X128866498Y-36430264D01*
X128720827Y-36490602D01*
X128720814Y-36490609D01*
X128589711Y-36578210D01*
X128589707Y-36578213D01*
X128478213Y-36689707D01*
X128478210Y-36689711D01*
X128390609Y-36820814D01*
X128390602Y-36820827D01*
X128330264Y-36966498D01*
X128330261Y-36966510D01*
X128299500Y-37121153D01*
X128299500Y-37278846D01*
X128330261Y-37433489D01*
X128330264Y-37433501D01*
X128390602Y-37579172D01*
X128390609Y-37579185D01*
X128478602Y-37710874D01*
X128499480Y-37777551D01*
X128499500Y-37779765D01*
X128499500Y-38564556D01*
X128490855Y-38593993D01*
X128484332Y-38623984D01*
X128480576Y-38629000D01*
X128479815Y-38631595D01*
X128463185Y-38652232D01*
X128422379Y-38693039D01*
X128391365Y-38724053D01*
X128330041Y-38757537D01*
X128327876Y-38757988D01*
X128172536Y-38788887D01*
X128172526Y-38788890D01*
X128026855Y-38849228D01*
X128026842Y-38849235D01*
X127895739Y-38936836D01*
X127895735Y-38936839D01*
X127784241Y-39048333D01*
X127784238Y-39048337D01*
X127696637Y-39179440D01*
X127696630Y-39179453D01*
X127636292Y-39325124D01*
X127636289Y-39325136D01*
X127611414Y-39450191D01*
X127579029Y-39512102D01*
X127518313Y-39546676D01*
X127489797Y-39550000D01*
X127448903Y-39550000D01*
X127406175Y-39552897D01*
X127221476Y-39598831D01*
X127050977Y-39683390D01*
X127050974Y-39683392D01*
X126902635Y-39802631D01*
X126846967Y-39871885D01*
X126789624Y-39911803D01*
X126719801Y-39914383D01*
X126659669Y-39878804D01*
X126653673Y-39871884D01*
X126597722Y-39802278D01*
X126597721Y-39802277D01*
X126449295Y-39682969D01*
X126449292Y-39682967D01*
X126278697Y-39598360D01*
X126093892Y-39552400D01*
X126072506Y-39550950D01*
X126051123Y-39549500D01*
X126051120Y-39549500D01*
X125148877Y-39549500D01*
X125148874Y-39549501D01*
X125106113Y-39552399D01*
X125106112Y-39552399D01*
X124921303Y-39598360D01*
X124750707Y-39682967D01*
X124750704Y-39682969D01*
X124602278Y-39802277D01*
X124602277Y-39802278D01*
X124546647Y-39871486D01*
X124489304Y-39911405D01*
X124419482Y-39913985D01*
X124359349Y-39878406D01*
X124353353Y-39871486D01*
X124297722Y-39802278D01*
X124297721Y-39802277D01*
X124149295Y-39682969D01*
X124149292Y-39682967D01*
X123978697Y-39598360D01*
X123793892Y-39552400D01*
X123768229Y-39550660D01*
X123751123Y-39549500D01*
X123751121Y-39549500D01*
X123265783Y-39549500D01*
X123236337Y-39540853D01*
X123206355Y-39534331D01*
X123201341Y-39530577D01*
X123198744Y-39529815D01*
X123178101Y-39513180D01*
X123136818Y-39471896D01*
X123103333Y-39410573D01*
X123100500Y-39384216D01*
X123100500Y-39299500D01*
X123120185Y-39232461D01*
X123172989Y-39186706D01*
X123224500Y-39175500D01*
X124198543Y-39175500D01*
X124328582Y-39149632D01*
X124391835Y-39137051D01*
X124409941Y-39129550D01*
X124444792Y-39120754D01*
X124497708Y-39115349D01*
X124658697Y-39062003D01*
X124803044Y-38972968D01*
X124922968Y-38853044D01*
X125012003Y-38708697D01*
X125065349Y-38547708D01*
X125075500Y-38448345D01*
X125075499Y-38411434D01*
X125077882Y-38387241D01*
X125080119Y-38376000D01*
X125100500Y-38273541D01*
X125100500Y-38076459D01*
X125100500Y-38076456D01*
X125077882Y-37962752D01*
X125075499Y-37938560D01*
X125075499Y-37901662D01*
X125075498Y-37901644D01*
X125065349Y-37802292D01*
X125065348Y-37802289D01*
X125023842Y-37677032D01*
X125012003Y-37641303D01*
X125011999Y-37641297D01*
X125011998Y-37641294D01*
X124922970Y-37496959D01*
X124922967Y-37496955D01*
X124913339Y-37487327D01*
X124879854Y-37426004D01*
X124884838Y-37356312D01*
X124913345Y-37311959D01*
X124922573Y-37302731D01*
X125011542Y-37158492D01*
X125011547Y-37158481D01*
X125064855Y-36997606D01*
X125074999Y-36898322D01*
X125075000Y-36898309D01*
X125075000Y-36875000D01*
X121125001Y-36875000D01*
X121125001Y-36898322D01*
X121135144Y-36997607D01*
X121188452Y-37158481D01*
X121188457Y-37158492D01*
X121277424Y-37302728D01*
X121277427Y-37302732D01*
X121286660Y-37311965D01*
X121320145Y-37373288D01*
X121315161Y-37442980D01*
X121286663Y-37487324D01*
X121277033Y-37496953D01*
X121277029Y-37496959D01*
X121188001Y-37641294D01*
X121187996Y-37641305D01*
X121134651Y-37802290D01*
X121124500Y-37901647D01*
X121124500Y-37938564D01*
X121122117Y-37962756D01*
X121099500Y-38076456D01*
X121099500Y-38334217D01*
X121079815Y-38401256D01*
X121063181Y-38421898D01*
X114477220Y-45007859D01*
X114477218Y-45007861D01*
X114426385Y-45058694D01*
X114337863Y-45147215D01*
X114284233Y-45227476D01*
X114268814Y-45246263D01*
X114216157Y-45298921D01*
X114154834Y-45332407D01*
X114085143Y-45327423D01*
X114029209Y-45285552D01*
X114010046Y-45259954D01*
X113960526Y-45222883D01*
X113894835Y-45173706D01*
X113894828Y-45173702D01*
X113759982Y-45123408D01*
X113759983Y-45123408D01*
X113700383Y-45117001D01*
X113700381Y-45117000D01*
X113700373Y-45117000D01*
X113700364Y-45117000D01*
X110709629Y-45117000D01*
X110709623Y-45117001D01*
X110650016Y-45123408D01*
X110515171Y-45173702D01*
X110515164Y-45173706D01*
X110399955Y-45259952D01*
X110399952Y-45259955D01*
X110313706Y-45375164D01*
X110313702Y-45375171D01*
X110263408Y-45510017D01*
X110257001Y-45569616D01*
X110257000Y-45569635D01*
X110257000Y-48560370D01*
X110257001Y-48560376D01*
X110263408Y-48619983D01*
X110313702Y-48754828D01*
X110313706Y-48754835D01*
X110399952Y-48870044D01*
X110399955Y-48870047D01*
X110515164Y-48956293D01*
X110515171Y-48956297D01*
X110650017Y-49006591D01*
X110650016Y-49006591D01*
X110656944Y-49007335D01*
X110709627Y-49013000D01*
X113700372Y-49012999D01*
X113759983Y-49006591D01*
X113894831Y-48956296D01*
X114010046Y-48870046D01*
X114096296Y-48754831D01*
X114146591Y-48619983D01*
X114153000Y-48560373D01*
X114152999Y-48131995D01*
X114172683Y-48064957D01*
X114225487Y-48019202D01*
X114229480Y-48017462D01*
X114303914Y-47986632D01*
X114467782Y-47877139D01*
X114607139Y-47737782D01*
X114607139Y-47737780D01*
X114617347Y-47727573D01*
X114617348Y-47727570D01*
X115027322Y-47317597D01*
X115088641Y-47284115D01*
X115158333Y-47289099D01*
X115202680Y-47317600D01*
X116963181Y-49078101D01*
X116996666Y-49139424D01*
X116999500Y-49165782D01*
X116999500Y-55475500D01*
X116979815Y-55542539D01*
X116927011Y-55588294D01*
X116875500Y-55599500D01*
X116301457Y-55599500D01*
X116243302Y-55611068D01*
X116243296Y-55611069D01*
X116239483Y-55611828D01*
X116108164Y-55637949D01*
X116055771Y-55659651D01*
X116048116Y-55662821D01*
X116048111Y-55662823D01*
X115926092Y-55713364D01*
X115926079Y-55713371D01*
X115762219Y-55822859D01*
X115692540Y-55892538D01*
X115622861Y-55962218D01*
X115622858Y-55962221D01*
X114662221Y-56922858D01*
X114662218Y-56922861D01*
X114618260Y-56966819D01*
X114522859Y-57062219D01*
X114413371Y-57226079D01*
X114413366Y-57226089D01*
X114378892Y-57309315D01*
X114369489Y-57332019D01*
X114360038Y-57354835D01*
X114337950Y-57408159D01*
X114337947Y-57408167D01*
X114323404Y-57481285D01*
X114323404Y-57481286D01*
X114299500Y-57601456D01*
X114299500Y-57601458D01*
X114299500Y-57601459D01*
X114299500Y-60198541D01*
X114299500Y-60198542D01*
X114299499Y-60198542D01*
X114301913Y-60210676D01*
X114301923Y-60210723D01*
X114302221Y-60212218D01*
X114337949Y-60391836D01*
X114344193Y-60406909D01*
X114348271Y-60416756D01*
X114348272Y-60416757D01*
X114408843Y-60562991D01*
X114413368Y-60573914D01*
X114413369Y-60573916D01*
X114413371Y-60573919D01*
X114522860Y-60737782D01*
X114666537Y-60881459D01*
X114666559Y-60881479D01*
X115269735Y-61484655D01*
X115269764Y-61484686D01*
X115412214Y-61627136D01*
X115412218Y-61627139D01*
X115576082Y-61736630D01*
X115576084Y-61736630D01*
X115576086Y-61736632D01*
X115682042Y-61780520D01*
X115758164Y-61812051D01*
X115825782Y-61825501D01*
X115892037Y-61838680D01*
X115951456Y-61850500D01*
X115951459Y-61850500D01*
X118098543Y-61850500D01*
X118291830Y-61812052D01*
X118291830Y-61812051D01*
X118291835Y-61812051D01*
X118296934Y-61809938D01*
X118303522Y-61808552D01*
X118306823Y-61806326D01*
X118334489Y-61802034D01*
X118341638Y-61800530D01*
X118343035Y-61800499D01*
X118423344Y-61800499D01*
X118445629Y-61798222D01*
X118450568Y-61798113D01*
X118479719Y-61805974D01*
X118509408Y-61811493D01*
X118513113Y-61814979D01*
X118518028Y-61816305D01*
X118538302Y-61838680D01*
X118560293Y-61859372D01*
X118561525Y-61864309D01*
X118564943Y-61868081D01*
X118569902Y-61897866D01*
X118577215Y-61927162D01*
X118575582Y-61931982D01*
X118576418Y-61937002D01*
X118564486Y-61964739D01*
X118554800Y-61993339D01*
X118549442Y-61999714D01*
X118548810Y-62001186D01*
X118547417Y-62002125D01*
X118541000Y-62009763D01*
X117631286Y-62919478D01*
X117519481Y-63031282D01*
X117519479Y-63031284D01*
X117480819Y-63098247D01*
X117480025Y-63099623D01*
X117440423Y-63168215D01*
X117438141Y-63176727D01*
X117431110Y-63189659D01*
X117416401Y-63204418D01*
X117405549Y-63222207D01*
X117389095Y-63231818D01*
X117381790Y-63239149D01*
X117373393Y-63240990D01*
X117361181Y-63248125D01*
X117316309Y-63262994D01*
X117316294Y-63263001D01*
X117171959Y-63352029D01*
X117171955Y-63352032D01*
X117052032Y-63471955D01*
X117052029Y-63471959D01*
X116963001Y-63616294D01*
X116962996Y-63616305D01*
X116909651Y-63777290D01*
X116899500Y-63876647D01*
X116899500Y-64423337D01*
X116899501Y-64423355D01*
X116909650Y-64522707D01*
X116909651Y-64522710D01*
X116962996Y-64683694D01*
X116963001Y-64683705D01*
X117052029Y-64828040D01*
X117052032Y-64828044D01*
X117171955Y-64947967D01*
X117171959Y-64947970D01*
X117316294Y-65036998D01*
X117316297Y-65036999D01*
X117316303Y-65037003D01*
X117477292Y-65090349D01*
X117576655Y-65100500D01*
X118423344Y-65100499D01*
X118423352Y-65100498D01*
X118423355Y-65100498D01*
X118482081Y-65094499D01*
X118522708Y-65090349D01*
X118683697Y-65037003D01*
X118828044Y-64947968D01*
X118947968Y-64828044D01*
X119037003Y-64683697D01*
X119090349Y-64522708D01*
X119100500Y-64423345D01*
X119100499Y-63876656D01*
X119096305Y-63835603D01*
X119090349Y-63777292D01*
X119090348Y-63777289D01*
X119081474Y-63750510D01*
X119037003Y-63616303D01*
X118947968Y-63471956D01*
X118938976Y-63462964D01*
X118930901Y-63449133D01*
X118926195Y-63430140D01*
X118916819Y-63412969D01*
X118917966Y-63396926D01*
X118914098Y-63381314D01*
X118920407Y-63362792D01*
X118921803Y-63343277D01*
X118932979Y-63325885D01*
X118936628Y-63315177D01*
X118943235Y-63309928D01*
X118950304Y-63298930D01*
X119308735Y-62940500D01*
X119712416Y-62536819D01*
X119773739Y-62503334D01*
X119800097Y-62500500D01*
X119913331Y-62500500D01*
X119913347Y-62500501D01*
X119920943Y-62500501D01*
X120079055Y-62500501D01*
X120079057Y-62500501D01*
X120145027Y-62482824D01*
X120214873Y-62484485D01*
X120272737Y-62523647D01*
X120300242Y-62587875D01*
X120291681Y-62650049D01*
X120261508Y-62722895D01*
X120261506Y-62722902D01*
X120225000Y-62906428D01*
X120225000Y-63150000D01*
X120875000Y-63150000D01*
X120875000Y-63650000D01*
X120225000Y-63650000D01*
X120225000Y-63893571D01*
X120261506Y-64077097D01*
X120261508Y-64077105D01*
X120333119Y-64249991D01*
X120333124Y-64250000D01*
X120437086Y-64405589D01*
X120437089Y-64405593D01*
X120569406Y-64537910D01*
X120569410Y-64537913D01*
X120724999Y-64641875D01*
X120725012Y-64641882D01*
X120897889Y-64713489D01*
X120897896Y-64713491D01*
X120925000Y-64718882D01*
X120925000Y-63966988D01*
X120934940Y-63984205D01*
X120990795Y-64040060D01*
X121059204Y-64079556D01*
X121135504Y-64100000D01*
X121214496Y-64100000D01*
X121290796Y-64079556D01*
X121359205Y-64040060D01*
X121415060Y-63984205D01*
X121425000Y-63966988D01*
X121425000Y-64718881D01*
X121452103Y-64713491D01*
X121452110Y-64713489D01*
X121624987Y-64641882D01*
X121625000Y-64641875D01*
X121780589Y-64537913D01*
X121780593Y-64537910D01*
X121912910Y-64405593D01*
X121912913Y-64405589D01*
X122016875Y-64250000D01*
X122016880Y-64249991D01*
X122088491Y-64077105D01*
X122088493Y-64077097D01*
X122124999Y-63893571D01*
X122125000Y-63893569D01*
X122125000Y-63650000D01*
X121475000Y-63650000D01*
X121475000Y-63150000D01*
X122125000Y-63150000D01*
X122125000Y-62906430D01*
X122124999Y-62906428D01*
X122088493Y-62722902D01*
X122088491Y-62722894D01*
X122016880Y-62550008D01*
X122016875Y-62549999D01*
X121912913Y-62394410D01*
X121912910Y-62394406D01*
X121780593Y-62262089D01*
X121780589Y-62262086D01*
X121625000Y-62158124D01*
X121624987Y-62158117D01*
X121578980Y-62139061D01*
X121524576Y-62095220D01*
X121502511Y-62028926D01*
X121519790Y-61961227D01*
X121570927Y-61913616D01*
X121626432Y-61900500D01*
X122313331Y-61900500D01*
X122313347Y-61900501D01*
X122320943Y-61900501D01*
X122479054Y-61900501D01*
X122479057Y-61900501D01*
X122631785Y-61859577D01*
X122697235Y-61821789D01*
X122768716Y-61780520D01*
X122880520Y-61668716D01*
X122880520Y-61668714D01*
X122890724Y-61658511D01*
X122890728Y-61658506D01*
X123437819Y-61111415D01*
X123457255Y-61100802D01*
X123473989Y-61086302D01*
X123487320Y-61084385D01*
X123499142Y-61077930D01*
X123521228Y-61079509D01*
X123543147Y-61076358D01*
X123555398Y-61081953D01*
X123568834Y-61082914D01*
X123586560Y-61096184D01*
X123606703Y-61105383D01*
X123613985Y-61116714D01*
X123624767Y-61124786D01*
X123632504Y-61145531D01*
X123644477Y-61164161D01*
X123647628Y-61186079D01*
X123649184Y-61190250D01*
X123649500Y-61199096D01*
X123649500Y-61363330D01*
X123649499Y-61363348D01*
X123649499Y-61529054D01*
X123649498Y-61529054D01*
X123690423Y-61681785D01*
X123696196Y-61691784D01*
X123769477Y-61818712D01*
X123769481Y-61818717D01*
X123888349Y-61937585D01*
X123888355Y-61937590D01*
X127515139Y-65564374D01*
X127515149Y-65564385D01*
X127519479Y-65568715D01*
X127519480Y-65568716D01*
X127631284Y-65680520D01*
X127663200Y-65698946D01*
X127718095Y-65730639D01*
X127718097Y-65730641D01*
X127756151Y-65752611D01*
X127768215Y-65759577D01*
X127920943Y-65800501D01*
X127920946Y-65800501D01*
X128086653Y-65800501D01*
X128086669Y-65800500D01*
X132388331Y-65800500D01*
X132388347Y-65800501D01*
X132395943Y-65800501D01*
X132554054Y-65800501D01*
X132554057Y-65800501D01*
X132706785Y-65759577D01*
X132756904Y-65730639D01*
X132843716Y-65680520D01*
X132955520Y-65568716D01*
X132955521Y-65568713D01*
X133112417Y-65411817D01*
X133173740Y-65378334D01*
X133200097Y-65375500D01*
X133531613Y-65375500D01*
X133531616Y-65375500D01*
X133602196Y-65369086D01*
X133764606Y-65318478D01*
X133910185Y-65230472D01*
X134012673Y-65127983D01*
X134073994Y-65094499D01*
X134143685Y-65099483D01*
X134188034Y-65127984D01*
X134290122Y-65230072D01*
X134435604Y-65318019D01*
X134435603Y-65318019D01*
X134597894Y-65368590D01*
X134597893Y-65368590D01*
X134668408Y-65374998D01*
X134668426Y-65374999D01*
X135175000Y-65374999D01*
X135181581Y-65374999D01*
X135252102Y-65368591D01*
X135252107Y-65368590D01*
X135414396Y-65318018D01*
X135559877Y-65230072D01*
X135680072Y-65109877D01*
X135768019Y-64964395D01*
X135818590Y-64802106D01*
X135825000Y-64731572D01*
X135825000Y-64650000D01*
X135175000Y-64650000D01*
X135175000Y-65374999D01*
X134668426Y-65374999D01*
X134674999Y-65374998D01*
X134675000Y-65374998D01*
X134675000Y-64150000D01*
X135175000Y-64150000D01*
X135824999Y-64150000D01*
X135824999Y-64068417D01*
X135818591Y-63997897D01*
X135818590Y-63997888D01*
X135814725Y-63985485D01*
X135804746Y-63953461D01*
X160000500Y-63953461D01*
X160000500Y-64126538D01*
X160027573Y-64297468D01*
X160081051Y-64462059D01*
X160119701Y-64537913D01*
X160159623Y-64616264D01*
X160261348Y-64756276D01*
X160383724Y-64878652D01*
X160523736Y-64980377D01*
X160634861Y-65036998D01*
X160677940Y-65058948D01*
X160745216Y-65080807D01*
X160842533Y-65112427D01*
X160921699Y-65124965D01*
X161013462Y-65139500D01*
X161013467Y-65139500D01*
X161186538Y-65139500D01*
X161269402Y-65126374D01*
X161357467Y-65112427D01*
X161522062Y-65058947D01*
X161676264Y-64980377D01*
X161816276Y-64878652D01*
X161938652Y-64756276D01*
X162040377Y-64616264D01*
X162118947Y-64462062D01*
X162172427Y-64297467D01*
X162186374Y-64209402D01*
X162199500Y-64126538D01*
X162199500Y-63953461D01*
X162180799Y-63835393D01*
X162172427Y-63782533D01*
X162118947Y-63617938D01*
X162040377Y-63463736D01*
X161938652Y-63323724D01*
X161816276Y-63201348D01*
X161676264Y-63099623D01*
X161594029Y-63057722D01*
X161522059Y-63021051D01*
X161357468Y-62967573D01*
X161186538Y-62940500D01*
X161186533Y-62940500D01*
X161013467Y-62940500D01*
X161013462Y-62940500D01*
X160842531Y-62967573D01*
X160677940Y-63021051D01*
X160523735Y-63099623D01*
X160454398Y-63150000D01*
X160383724Y-63201348D01*
X160383722Y-63201350D01*
X160383721Y-63201350D01*
X160261350Y-63323721D01*
X160261350Y-63323722D01*
X160261348Y-63323724D01*
X160219506Y-63381314D01*
X160159623Y-63463735D01*
X160081051Y-63617940D01*
X160027573Y-63782531D01*
X160000500Y-63953461D01*
X135804746Y-63953461D01*
X135768018Y-63835603D01*
X135680072Y-63690122D01*
X135559877Y-63569927D01*
X135414395Y-63481980D01*
X135414396Y-63481980D01*
X135252105Y-63431409D01*
X135252106Y-63431409D01*
X135181572Y-63425000D01*
X135175000Y-63425000D01*
X135175000Y-64150000D01*
X134675000Y-64150000D01*
X134675000Y-63425000D01*
X134674999Y-63424999D01*
X134668436Y-63425000D01*
X134668417Y-63425001D01*
X134597897Y-63431408D01*
X134597892Y-63431409D01*
X134435603Y-63481981D01*
X134290122Y-63569927D01*
X134290121Y-63569928D01*
X134188035Y-63672015D01*
X134126712Y-63705500D01*
X134057020Y-63700516D01*
X134012673Y-63672015D01*
X133910188Y-63569530D01*
X133764606Y-63481522D01*
X133602196Y-63430914D01*
X133602194Y-63430913D01*
X133602192Y-63430913D01*
X133552778Y-63426423D01*
X133531616Y-63424500D01*
X133018384Y-63424500D01*
X132999145Y-63426248D01*
X132947807Y-63430913D01*
X132785393Y-63481522D01*
X132639811Y-63569530D01*
X132519530Y-63689811D01*
X132431522Y-63835393D01*
X132380913Y-63997807D01*
X132374500Y-64068386D01*
X132374500Y-64399903D01*
X132365855Y-64429343D01*
X132359332Y-64459330D01*
X132355577Y-64464345D01*
X132354815Y-64466942D01*
X132338181Y-64487584D01*
X132262584Y-64563181D01*
X132201261Y-64596666D01*
X132174903Y-64599500D01*
X130665334Y-64599500D01*
X130598295Y-64579815D01*
X130552540Y-64527011D01*
X130542596Y-64457853D01*
X130562232Y-64406609D01*
X130666875Y-64250000D01*
X130666880Y-64249991D01*
X130738491Y-64077105D01*
X130738493Y-64077097D01*
X130774999Y-63893571D01*
X130775000Y-63893569D01*
X130775000Y-63650000D01*
X130125000Y-63650000D01*
X130125000Y-63150000D01*
X130775000Y-63150000D01*
X130775000Y-62906430D01*
X130774999Y-62906428D01*
X130738493Y-62722902D01*
X130738491Y-62722894D01*
X130666880Y-62550008D01*
X130666875Y-62549999D01*
X130562913Y-62394410D01*
X130562910Y-62394406D01*
X130430593Y-62262089D01*
X130430589Y-62262086D01*
X130275000Y-62158124D01*
X130274991Y-62158119D01*
X130102103Y-62086507D01*
X130102100Y-62086506D01*
X130075000Y-62081115D01*
X130075000Y-62833011D01*
X130065060Y-62815795D01*
X130009205Y-62759940D01*
X129940796Y-62720444D01*
X129864496Y-62700000D01*
X129785504Y-62700000D01*
X129709204Y-62720444D01*
X129640795Y-62759940D01*
X129584940Y-62815795D01*
X129575000Y-62833011D01*
X129575000Y-62081116D01*
X129574999Y-62081115D01*
X129547899Y-62086506D01*
X129547896Y-62086507D01*
X129375008Y-62158119D01*
X129374999Y-62158124D01*
X129219410Y-62262086D01*
X129219406Y-62262089D01*
X129087089Y-62394406D01*
X129087086Y-62394410D01*
X128983124Y-62549999D01*
X128983119Y-62550008D01*
X128911508Y-62722894D01*
X128911506Y-62722902D01*
X128875000Y-62906428D01*
X128875000Y-63150000D01*
X129525000Y-63150000D01*
X129525000Y-63650000D01*
X128875000Y-63650000D01*
X128875000Y-63893571D01*
X128911506Y-64077097D01*
X128911508Y-64077105D01*
X128983119Y-64249991D01*
X128983124Y-64250000D01*
X129087768Y-64406609D01*
X129108646Y-64473286D01*
X129090162Y-64540666D01*
X129038183Y-64587357D01*
X128984666Y-64599500D01*
X128300097Y-64599500D01*
X128233058Y-64579815D01*
X128212416Y-64563181D01*
X124886819Y-61237584D01*
X124853334Y-61176261D01*
X124850500Y-61149903D01*
X124850500Y-60170230D01*
X124870185Y-60103191D01*
X124922989Y-60057436D01*
X124992147Y-60047492D01*
X125036498Y-60062842D01*
X125067216Y-60080577D01*
X125175106Y-60109486D01*
X125175105Y-60109486D01*
X125183499Y-60111735D01*
X125219942Y-60121500D01*
X125219943Y-60121500D01*
X126114331Y-60121500D01*
X126114347Y-60121501D01*
X126121943Y-60121501D01*
X126280054Y-60121501D01*
X126280057Y-60121501D01*
X126432785Y-60080577D01*
X126492470Y-60046117D01*
X126511157Y-60041583D01*
X126528029Y-60032356D01*
X126544407Y-60033516D01*
X126560368Y-60029644D01*
X126578543Y-60035934D01*
X126597724Y-60037293D01*
X126610875Y-60047123D01*
X126626395Y-60052495D01*
X126638284Y-60067612D01*
X126653686Y-60079126D01*
X126663964Y-60100267D01*
X126669587Y-60107416D01*
X126670622Y-60110091D01*
X126672707Y-60115670D01*
X126690423Y-60181785D01*
X126705105Y-60207215D01*
X126710259Y-60216143D01*
X126710260Y-60216144D01*
X126769477Y-60318712D01*
X126769481Y-60318717D01*
X126888349Y-60437585D01*
X126888355Y-60437590D01*
X127715139Y-61264374D01*
X127715149Y-61264385D01*
X127719479Y-61268715D01*
X127719480Y-61268716D01*
X127831284Y-61380520D01*
X127898767Y-61419480D01*
X127918095Y-61430639D01*
X127918097Y-61430641D01*
X127956151Y-61452611D01*
X127968215Y-61459577D01*
X128120943Y-61500501D01*
X128120946Y-61500501D01*
X128286653Y-61500501D01*
X128286669Y-61500500D01*
X132383285Y-61500500D01*
X132450324Y-61520185D01*
X132489401Y-61560349D01*
X132519342Y-61609877D01*
X132519530Y-61610188D01*
X132639811Y-61730469D01*
X132639813Y-61730470D01*
X132639815Y-61730472D01*
X132785394Y-61818478D01*
X132947804Y-61869086D01*
X133018384Y-61875500D01*
X133018387Y-61875500D01*
X133531613Y-61875500D01*
X133531616Y-61875500D01*
X133602196Y-61869086D01*
X133764606Y-61818478D01*
X133910185Y-61730472D01*
X134012673Y-61627983D01*
X134073994Y-61594499D01*
X134143685Y-61599483D01*
X134188034Y-61627984D01*
X134290122Y-61730072D01*
X134435604Y-61818019D01*
X134435603Y-61818019D01*
X134597894Y-61868590D01*
X134597893Y-61868590D01*
X134668408Y-61874998D01*
X134668426Y-61874999D01*
X135175000Y-61874999D01*
X135181581Y-61874999D01*
X135252102Y-61868591D01*
X135252107Y-61868590D01*
X135414396Y-61818018D01*
X135559877Y-61730072D01*
X135680072Y-61609877D01*
X135768019Y-61464395D01*
X135818590Y-61302106D01*
X135825000Y-61231572D01*
X135825000Y-61150000D01*
X135175000Y-61150000D01*
X135175000Y-61874999D01*
X134668426Y-61874999D01*
X134674999Y-61874998D01*
X134675000Y-61874998D01*
X134675000Y-60650000D01*
X135175000Y-60650000D01*
X135824999Y-60650000D01*
X135824999Y-60568417D01*
X135818591Y-60497897D01*
X135818590Y-60497892D01*
X135768018Y-60335603D01*
X135680072Y-60190122D01*
X135559877Y-60069927D01*
X135414395Y-59981980D01*
X135414396Y-59981980D01*
X135252105Y-59931409D01*
X135252106Y-59931409D01*
X135181572Y-59925000D01*
X135175000Y-59925000D01*
X135175000Y-60650000D01*
X134675000Y-60650000D01*
X134675000Y-59925000D01*
X134674999Y-59924999D01*
X134668436Y-59925000D01*
X134668417Y-59925001D01*
X134597897Y-59931408D01*
X134597892Y-59931409D01*
X134435603Y-59981981D01*
X134290122Y-60069927D01*
X134290121Y-60069928D01*
X134188035Y-60172015D01*
X134126712Y-60205500D01*
X134057020Y-60200516D01*
X134012673Y-60172015D01*
X133910188Y-60069530D01*
X133907015Y-60067612D01*
X133764606Y-59981522D01*
X133602196Y-59930914D01*
X133602194Y-59930913D01*
X133602192Y-59930913D01*
X133552778Y-59926423D01*
X133531616Y-59924500D01*
X133018384Y-59924500D01*
X132999145Y-59926248D01*
X132947807Y-59930913D01*
X132785393Y-59981522D01*
X132639811Y-60069530D01*
X132519530Y-60189811D01*
X132519528Y-60189815D01*
X132493432Y-60232984D01*
X132489402Y-60239650D01*
X132437874Y-60286838D01*
X132383285Y-60299500D01*
X130823668Y-60299500D01*
X130756629Y-60279815D01*
X130710874Y-60227011D01*
X130700930Y-60157853D01*
X130709107Y-60128048D01*
X130738490Y-60057109D01*
X130738493Y-60057097D01*
X130774999Y-59873571D01*
X130775000Y-59873569D01*
X130775000Y-59480000D01*
X130125000Y-59480000D01*
X130125000Y-58980000D01*
X130775000Y-58980000D01*
X130775000Y-58586430D01*
X130774999Y-58586428D01*
X130738493Y-58402902D01*
X130738491Y-58402894D01*
X130666880Y-58230008D01*
X130666875Y-58229999D01*
X130562913Y-58074410D01*
X130562910Y-58074406D01*
X130430593Y-57942089D01*
X130430589Y-57942086D01*
X130275000Y-57838124D01*
X130269624Y-57835251D01*
X130270500Y-57833611D01*
X130222860Y-57795218D01*
X130200796Y-57728924D01*
X130218076Y-57661225D01*
X130269214Y-57613615D01*
X130324717Y-57600500D01*
X130999903Y-57600500D01*
X131066942Y-57620185D01*
X131087584Y-57636819D01*
X132315139Y-58864374D01*
X132315149Y-58864385D01*
X132319479Y-58868715D01*
X132319480Y-58868716D01*
X132431284Y-58980520D01*
X132431286Y-58980521D01*
X132431290Y-58980524D01*
X132545562Y-59046498D01*
X132568216Y-59059577D01*
X132680019Y-59089534D01*
X132701982Y-59095419D01*
X132757564Y-59127511D01*
X132848129Y-59218076D01*
X132848133Y-59218079D01*
X132848135Y-59218081D01*
X132989602Y-59301744D01*
X133015933Y-59309394D01*
X133147426Y-59347597D01*
X133147429Y-59347597D01*
X133147431Y-59347598D01*
X133184306Y-59350500D01*
X133184314Y-59350500D01*
X133615686Y-59350500D01*
X133615694Y-59350500D01*
X133652569Y-59347598D01*
X133652571Y-59347597D01*
X133652573Y-59347597D01*
X133694191Y-59335505D01*
X133810398Y-59301744D01*
X133951865Y-59218081D01*
X134012673Y-59157272D01*
X134073994Y-59123789D01*
X134143686Y-59128773D01*
X134188034Y-59157274D01*
X134248438Y-59217678D01*
X134248447Y-59217685D01*
X134389801Y-59301281D01*
X134547514Y-59347100D01*
X134547511Y-59347100D01*
X134549998Y-59347295D01*
X134550000Y-59347295D01*
X135050000Y-59347295D01*
X135050001Y-59347295D01*
X135052486Y-59347100D01*
X135210198Y-59301281D01*
X135351552Y-59217685D01*
X135351561Y-59217678D01*
X135467678Y-59101561D01*
X135467685Y-59101552D01*
X135551282Y-58960196D01*
X135551283Y-58960193D01*
X135597099Y-58802495D01*
X135597100Y-58802489D01*
X135599999Y-58765649D01*
X135600000Y-58765634D01*
X135600000Y-58750000D01*
X135050000Y-58750000D01*
X135050000Y-59347295D01*
X134550000Y-59347295D01*
X134550000Y-58250000D01*
X135050000Y-58250000D01*
X135600000Y-58250000D01*
X135600000Y-58234365D01*
X135599999Y-58234350D01*
X135597100Y-58197510D01*
X135597099Y-58197504D01*
X135551283Y-58039806D01*
X135551282Y-58039803D01*
X135467685Y-57898447D01*
X135467678Y-57898438D01*
X135351561Y-57782321D01*
X135351552Y-57782314D01*
X135210196Y-57698717D01*
X135210193Y-57698716D01*
X135052494Y-57652900D01*
X135052497Y-57652900D01*
X135050000Y-57652703D01*
X135050000Y-58250000D01*
X134550000Y-58250000D01*
X134550000Y-57652703D01*
X134547503Y-57652900D01*
X134389806Y-57698716D01*
X134389803Y-57698717D01*
X134248447Y-57782314D01*
X134248442Y-57782318D01*
X134188034Y-57842726D01*
X134126710Y-57876210D01*
X134057019Y-57871225D01*
X134012672Y-57842725D01*
X133951870Y-57781923D01*
X133951862Y-57781917D01*
X133849529Y-57721398D01*
X133810398Y-57698256D01*
X133810397Y-57698255D01*
X133810396Y-57698255D01*
X133810393Y-57698254D01*
X133652573Y-57652402D01*
X133652567Y-57652401D01*
X133615701Y-57649500D01*
X133615694Y-57649500D01*
X133184306Y-57649500D01*
X133184298Y-57649500D01*
X133147432Y-57652401D01*
X133147426Y-57652402D01*
X132989605Y-57698254D01*
X132989595Y-57698258D01*
X132983086Y-57702108D01*
X132915361Y-57719287D01*
X132849100Y-57697125D01*
X132832289Y-57683054D01*
X131787590Y-56638355D01*
X131787588Y-56638352D01*
X131668717Y-56519481D01*
X131668709Y-56519475D01*
X131580789Y-56468715D01*
X131580788Y-56468715D01*
X131560077Y-56456757D01*
X131531785Y-56440423D01*
X131379057Y-56399499D01*
X131220943Y-56399499D01*
X131213347Y-56399499D01*
X131213331Y-56399500D01*
X128720942Y-56399500D01*
X128568214Y-56440423D01*
X128519213Y-56468715D01*
X128519211Y-56468715D01*
X128431290Y-56519475D01*
X128431282Y-56519481D01*
X127413733Y-57537031D01*
X127412762Y-57536060D01*
X127363269Y-57572193D01*
X127321332Y-57579500D01*
X127052131Y-57579500D01*
X127052119Y-57579501D01*
X127013253Y-57583679D01*
X126988054Y-57583812D01*
X126987331Y-57583742D01*
X126947873Y-57579500D01*
X126943512Y-57579500D01*
X126937552Y-57578923D01*
X126910466Y-57568038D01*
X126882461Y-57559815D01*
X126878431Y-57555164D01*
X126872721Y-57552870D01*
X126855818Y-57529067D01*
X126836706Y-57507011D01*
X126835182Y-57500008D01*
X126832267Y-57495903D01*
X126831719Y-57484091D01*
X126825500Y-57455500D01*
X126825500Y-57200098D01*
X126845185Y-57133059D01*
X126861819Y-57112417D01*
X127295394Y-56678842D01*
X127780520Y-56193717D01*
X127807434Y-56147100D01*
X127859576Y-56056787D01*
X127859577Y-56056785D01*
X127862558Y-56045659D01*
X127867966Y-56025474D01*
X127875984Y-56011587D01*
X127878911Y-55998135D01*
X127900061Y-55969884D01*
X127912675Y-55957269D01*
X127974000Y-55923788D01*
X128043691Y-55928775D01*
X128088034Y-55957274D01*
X128148438Y-56017678D01*
X128148447Y-56017685D01*
X128289801Y-56101281D01*
X128447514Y-56147100D01*
X128447511Y-56147100D01*
X128449998Y-56147295D01*
X128450000Y-56147295D01*
X128950000Y-56147295D01*
X128950001Y-56147295D01*
X128952486Y-56147100D01*
X129110198Y-56101281D01*
X129251552Y-56017685D01*
X129251561Y-56017678D01*
X129367678Y-55901561D01*
X129367685Y-55901552D01*
X129451282Y-55760196D01*
X129451283Y-55760193D01*
X129497099Y-55602495D01*
X129497100Y-55602489D01*
X129499999Y-55565649D01*
X129500000Y-55565634D01*
X129500000Y-55550000D01*
X128950000Y-55550000D01*
X128950000Y-56147295D01*
X128450000Y-56147295D01*
X128450000Y-55050000D01*
X128950000Y-55050000D01*
X129500000Y-55050000D01*
X129500000Y-55034365D01*
X129499999Y-55034350D01*
X129497100Y-54997510D01*
X129497099Y-54997504D01*
X129451283Y-54839806D01*
X129451282Y-54839803D01*
X129367685Y-54698447D01*
X129367678Y-54698438D01*
X129251561Y-54582321D01*
X129251552Y-54582314D01*
X129110196Y-54498717D01*
X129110193Y-54498716D01*
X128952494Y-54452900D01*
X128952497Y-54452900D01*
X128950000Y-54452703D01*
X128950000Y-55050000D01*
X128450000Y-55050000D01*
X128450000Y-54452703D01*
X128447503Y-54452900D01*
X128289806Y-54498716D01*
X128289803Y-54498717D01*
X128148447Y-54582314D01*
X128148438Y-54582321D01*
X128112181Y-54618579D01*
X128050858Y-54652064D01*
X127981166Y-54647080D01*
X127925233Y-54605208D01*
X127900816Y-54539744D01*
X127900500Y-54530898D01*
X127900500Y-53636494D01*
X127920185Y-53569455D01*
X127936819Y-53548813D01*
X128308813Y-53176819D01*
X128370136Y-53143334D01*
X128396494Y-53140500D01*
X128833082Y-53140500D01*
X129803266Y-53140500D01*
X129870305Y-53160185D01*
X129916060Y-53212989D01*
X129925740Y-53245104D01*
X129929783Y-53270639D01*
X129989381Y-53454080D01*
X129989383Y-53454083D01*
X129989384Y-53454087D01*
X130076950Y-53625958D01*
X130190323Y-53782015D01*
X130326713Y-53918415D01*
X130482761Y-54031801D01*
X130654625Y-54119380D01*
X130654627Y-54119380D01*
X130654630Y-54119382D01*
X130838074Y-54178995D01*
X130838072Y-54178995D01*
X131028586Y-54209180D01*
X131028589Y-54209180D01*
X131036577Y-54209180D01*
X131045995Y-54209180D01*
X131046010Y-54209185D01*
X131125035Y-54209185D01*
X131197949Y-54209188D01*
X131197953Y-54209186D01*
X131205524Y-54209187D01*
X131205573Y-54209185D01*
X131412437Y-54209185D01*
X131412644Y-54209170D01*
X131421486Y-54209171D01*
X131612015Y-54179003D01*
X131795478Y-54119400D01*
X131967357Y-54031830D01*
X132123421Y-53918448D01*
X132259825Y-53782048D01*
X132373211Y-53625988D01*
X132460787Y-53454110D01*
X132460795Y-53454087D01*
X132520393Y-53270655D01*
X132520392Y-53270655D01*
X132520395Y-53270649D01*
X132524441Y-53245102D01*
X132554370Y-53181968D01*
X132613681Y-53145036D01*
X132646914Y-53140500D01*
X134887613Y-53140500D01*
X134954652Y-53160185D01*
X135000407Y-53212989D01*
X135002171Y-53217042D01*
X135002175Y-53217051D01*
X135002176Y-53217052D01*
X135041952Y-53313093D01*
X135133932Y-53450760D01*
X135133935Y-53450764D01*
X135250991Y-53567827D01*
X135250995Y-53567830D01*
X135250997Y-53567832D01*
X135353750Y-53636494D01*
X135388656Y-53659819D01*
X135541607Y-53723180D01*
X135541612Y-53723182D01*
X135541613Y-53723182D01*
X135541615Y-53723183D01*
X135703997Y-53755487D01*
X135707729Y-53755487D01*
X135707737Y-53755489D01*
X135786779Y-53755489D01*
X135855415Y-53755489D01*
X135855425Y-53755493D01*
X135906779Y-53755493D01*
X135906779Y-53755494D01*
X135989564Y-53755496D01*
X136151954Y-53723197D01*
X136304921Y-53659837D01*
X136377914Y-53611064D01*
X136444590Y-53590187D01*
X136511971Y-53608671D01*
X136515698Y-53611067D01*
X136588655Y-53659819D01*
X136741607Y-53723180D01*
X136741612Y-53723182D01*
X136741613Y-53723182D01*
X136741615Y-53723183D01*
X136903997Y-53755487D01*
X136907729Y-53755487D01*
X136907737Y-53755489D01*
X136986779Y-53755489D01*
X137055415Y-53755489D01*
X137055425Y-53755493D01*
X137106779Y-53755493D01*
X137106779Y-53755494D01*
X137189564Y-53755496D01*
X137351954Y-53723197D01*
X137504921Y-53659837D01*
X137577914Y-53611065D01*
X137642584Y-53567854D01*
X137642590Y-53567849D01*
X137759658Y-53450779D01*
X137759658Y-53450778D01*
X137759657Y-53450778D01*
X137759662Y-53450774D01*
X137851646Y-53313106D01*
X137891430Y-53217049D01*
X137935269Y-53162646D01*
X138001562Y-53140579D01*
X138005992Y-53140500D01*
X138946404Y-53140500D01*
X139914902Y-53140500D01*
X139981941Y-53160185D01*
X140002582Y-53176818D01*
X140256283Y-53430520D01*
X140256285Y-53430521D01*
X140256289Y-53430524D01*
X140389588Y-53507483D01*
X140393215Y-53509577D01*
X140457541Y-53526813D01*
X140517202Y-53563179D01*
X140541629Y-53603255D01*
X140556202Y-53642328D01*
X140556206Y-53642335D01*
X140642452Y-53757544D01*
X140642455Y-53757547D01*
X140757664Y-53843793D01*
X140757671Y-53843797D01*
X140892517Y-53894091D01*
X140892516Y-53894091D01*
X140899444Y-53894835D01*
X140952127Y-53900500D01*
X142440500Y-53900499D01*
X142507539Y-53920184D01*
X142553294Y-53972987D01*
X142564500Y-54024499D01*
X142564500Y-54997870D01*
X142564501Y-54997876D01*
X142570908Y-55057483D01*
X142621202Y-55192328D01*
X142621206Y-55192335D01*
X142707452Y-55307544D01*
X142707455Y-55307547D01*
X142822664Y-55393793D01*
X142822671Y-55393797D01*
X142842914Y-55401347D01*
X142957517Y-55444091D01*
X143017127Y-55450500D01*
X143335903Y-55450499D01*
X143402941Y-55470183D01*
X143448696Y-55522987D01*
X143458640Y-55592146D01*
X143429615Y-55655701D01*
X143423583Y-55662180D01*
X142680607Y-56405156D01*
X142619284Y-56438641D01*
X142549592Y-56433657D01*
X142524035Y-56420577D01*
X142479185Y-56390609D01*
X142479172Y-56390602D01*
X142333501Y-56330264D01*
X142333489Y-56330261D01*
X142178845Y-56299500D01*
X142178842Y-56299500D01*
X142021158Y-56299500D01*
X142021155Y-56299500D01*
X141866510Y-56330261D01*
X141866498Y-56330264D01*
X141720827Y-56390602D01*
X141720814Y-56390609D01*
X141589711Y-56478210D01*
X141589707Y-56478213D01*
X141478213Y-56589707D01*
X141478210Y-56589711D01*
X141390609Y-56720814D01*
X141390602Y-56720827D01*
X141330264Y-56866498D01*
X141330261Y-56866510D01*
X141299500Y-57021153D01*
X141299500Y-57178846D01*
X141330261Y-57333489D01*
X141330264Y-57333501D01*
X141390602Y-57479172D01*
X141390609Y-57479185D01*
X141478210Y-57610288D01*
X141478213Y-57610292D01*
X141589707Y-57721786D01*
X141589711Y-57721789D01*
X141665452Y-57772398D01*
X141710257Y-57826010D01*
X141718964Y-57895335D01*
X141688810Y-57958363D01*
X141629366Y-57995082D01*
X141596561Y-57999500D01*
X140879766Y-57999500D01*
X140812727Y-57979815D01*
X140810875Y-57978602D01*
X140679185Y-57890609D01*
X140679172Y-57890602D01*
X140533501Y-57830264D01*
X140533489Y-57830261D01*
X140378845Y-57799500D01*
X140378842Y-57799500D01*
X140221158Y-57799500D01*
X140221155Y-57799500D01*
X140066510Y-57830261D01*
X140066498Y-57830264D01*
X139920827Y-57890602D01*
X139920814Y-57890609D01*
X139789711Y-57978210D01*
X139789707Y-57978213D01*
X139678213Y-58089707D01*
X139678210Y-58089711D01*
X139590609Y-58220814D01*
X139590602Y-58220827D01*
X139530264Y-58366498D01*
X139530261Y-58366510D01*
X139499500Y-58521153D01*
X139499500Y-58678846D01*
X139530261Y-58833489D01*
X139530264Y-58833501D01*
X139590602Y-58979172D01*
X139590609Y-58979185D01*
X139678210Y-59110288D01*
X139678213Y-59110292D01*
X139789707Y-59221786D01*
X139789711Y-59221789D01*
X139920814Y-59309390D01*
X139920827Y-59309397D01*
X140066498Y-59369735D01*
X140066503Y-59369737D01*
X140221153Y-59400499D01*
X140221156Y-59400500D01*
X140221158Y-59400500D01*
X140378844Y-59400500D01*
X140378845Y-59400499D01*
X140533497Y-59369737D01*
X140679179Y-59309394D01*
X140747709Y-59263604D01*
X140810875Y-59221398D01*
X140877553Y-59200520D01*
X140879766Y-59200500D01*
X143788331Y-59200500D01*
X143788347Y-59200501D01*
X143795943Y-59200501D01*
X143954054Y-59200501D01*
X143954057Y-59200501D01*
X144106785Y-59159577D01*
X144165941Y-59125423D01*
X144243716Y-59080520D01*
X144355520Y-58968716D01*
X144355520Y-58968714D01*
X144365724Y-58958511D01*
X144365727Y-58958506D01*
X147805520Y-55518716D01*
X147817019Y-55498797D01*
X147835112Y-55481544D01*
X147850097Y-55461529D01*
X147864149Y-55453855D01*
X147867580Y-55450585D01*
X147881074Y-55444615D01*
X147882477Y-55444091D01*
X147882483Y-55444091D01*
X147916670Y-55431339D01*
X147986360Y-55426357D01*
X148003332Y-55431341D01*
X148037517Y-55444091D01*
X148037516Y-55444091D01*
X148044444Y-55444835D01*
X148097127Y-55450500D01*
X149092872Y-55450499D01*
X149152483Y-55444091D01*
X149186667Y-55431340D01*
X149256358Y-55426357D01*
X149273327Y-55431338D01*
X149307517Y-55444091D01*
X149367127Y-55450500D01*
X150362872Y-55450499D01*
X150422483Y-55444091D01*
X150456667Y-55431340D01*
X150526358Y-55426357D01*
X150543327Y-55431338D01*
X150577517Y-55444091D01*
X150637127Y-55450500D01*
X151632872Y-55450499D01*
X151692483Y-55444091D01*
X151726667Y-55431340D01*
X151796358Y-55426357D01*
X151813327Y-55431338D01*
X151847517Y-55444091D01*
X151907127Y-55450500D01*
X152902872Y-55450499D01*
X152962483Y-55444091D01*
X152996667Y-55431340D01*
X153022056Y-55429525D01*
X153046836Y-55423712D01*
X153061240Y-55426722D01*
X153066358Y-55426357D01*
X153081441Y-55430653D01*
X153082392Y-55430990D01*
X153117517Y-55444091D01*
X153120131Y-55444372D01*
X153129336Y-55447636D01*
X153152389Y-55464316D01*
X153177121Y-55478397D01*
X153180331Y-55484533D01*
X153185942Y-55488593D01*
X153196316Y-55515086D01*
X153209511Y-55540305D01*
X153208894Y-55547204D01*
X153211419Y-55553652D01*
X153205822Y-55581552D01*
X153203288Y-55609898D01*
X153198746Y-55616827D01*
X153197678Y-55622157D01*
X153190176Y-55629906D01*
X153175576Y-55652187D01*
X148264584Y-60563181D01*
X148203261Y-60596666D01*
X148176903Y-60599500D01*
X141479766Y-60599500D01*
X141412727Y-60579815D01*
X141410875Y-60578602D01*
X141279185Y-60490609D01*
X141279172Y-60490602D01*
X141133501Y-60430264D01*
X141133489Y-60430261D01*
X140978845Y-60399500D01*
X140978842Y-60399500D01*
X140821158Y-60399500D01*
X140821155Y-60399500D01*
X140666510Y-60430261D01*
X140666498Y-60430264D01*
X140520827Y-60490602D01*
X140520814Y-60490609D01*
X140389711Y-60578210D01*
X140389707Y-60578213D01*
X140278213Y-60689707D01*
X140278210Y-60689711D01*
X140190609Y-60820814D01*
X140190602Y-60820827D01*
X140130264Y-60966498D01*
X140130261Y-60966510D01*
X140099500Y-61121153D01*
X140099500Y-61278846D01*
X140130261Y-61433489D01*
X140130264Y-61433501D01*
X140190602Y-61579172D01*
X140190609Y-61579185D01*
X140278210Y-61710288D01*
X140278213Y-61710292D01*
X140379114Y-61811193D01*
X140412599Y-61872516D01*
X140407615Y-61942208D01*
X140365743Y-61998141D01*
X140315626Y-62020491D01*
X140266507Y-62030261D01*
X140266498Y-62030264D01*
X140120827Y-62090602D01*
X140120814Y-62090609D01*
X139989711Y-62178210D01*
X139989707Y-62178213D01*
X139878213Y-62289707D01*
X139878210Y-62289711D01*
X139790609Y-62420814D01*
X139790602Y-62420827D01*
X139730264Y-62566498D01*
X139730261Y-62566510D01*
X139699500Y-62721153D01*
X139699500Y-62878846D01*
X139730261Y-63033489D01*
X139730264Y-63033501D01*
X139790602Y-63179172D01*
X139790609Y-63179185D01*
X139878210Y-63310288D01*
X139878213Y-63310292D01*
X139989707Y-63421786D01*
X139989711Y-63421789D01*
X140120814Y-63509390D01*
X140120827Y-63509397D01*
X140265998Y-63569528D01*
X140266503Y-63569737D01*
X140398651Y-63596023D01*
X140421153Y-63600499D01*
X140421156Y-63600500D01*
X140421158Y-63600500D01*
X140578844Y-63600500D01*
X140578845Y-63600499D01*
X140733497Y-63569737D01*
X140879179Y-63509394D01*
X140879185Y-63509390D01*
X141010875Y-63421398D01*
X141077553Y-63400520D01*
X141079766Y-63400500D01*
X153013331Y-63400500D01*
X153013347Y-63400501D01*
X153020943Y-63400501D01*
X153179054Y-63400501D01*
X153179057Y-63400501D01*
X153331785Y-63359577D01*
X153393884Y-63323724D01*
X153468716Y-63280520D01*
X153580520Y-63168716D01*
X153580520Y-63168714D01*
X153590724Y-63158511D01*
X153590728Y-63158506D01*
X156573506Y-60175728D01*
X156573511Y-60175724D01*
X156583714Y-60165520D01*
X156583716Y-60165520D01*
X156695520Y-60053716D01*
X156747896Y-59962997D01*
X156774577Y-59916785D01*
X156815500Y-59764058D01*
X156815500Y-59605943D01*
X156815500Y-57337372D01*
X156835185Y-57270333D01*
X156887989Y-57224578D01*
X156957147Y-57214634D01*
X157008387Y-57234268D01*
X157120821Y-57309394D01*
X157120823Y-57309395D01*
X157120827Y-57309397D01*
X157266498Y-57369735D01*
X157266503Y-57369737D01*
X157408429Y-57397968D01*
X157421153Y-57400499D01*
X157421156Y-57400500D01*
X157421158Y-57400500D01*
X157578844Y-57400500D01*
X157578845Y-57400499D01*
X157733497Y-57369737D01*
X157879179Y-57309394D01*
X158010289Y-57221789D01*
X158121789Y-57110289D01*
X158209394Y-56979179D01*
X158269737Y-56833497D01*
X158300500Y-56678842D01*
X158300500Y-56521158D01*
X158300500Y-56521155D01*
X158300499Y-56521153D01*
X158291739Y-56477115D01*
X158269737Y-56366503D01*
X158269735Y-56366498D01*
X158209397Y-56220827D01*
X158209390Y-56220814D01*
X158121398Y-56089125D01*
X158103135Y-56045659D01*
X158100500Y-56033081D01*
X158100500Y-56020943D01*
X158088841Y-55977431D01*
X158088135Y-55974058D01*
X158088402Y-55970680D01*
X158085500Y-55948633D01*
X158085500Y-55514141D01*
X158105185Y-55447102D01*
X158157989Y-55401347D01*
X158166149Y-55397966D01*
X158177331Y-55393796D01*
X158292546Y-55307546D01*
X158378796Y-55192331D01*
X158429091Y-55057483D01*
X158435500Y-54997873D01*
X158435499Y-54024498D01*
X158455183Y-53957460D01*
X158507987Y-53911705D01*
X158559494Y-53900499D01*
X160047872Y-53900499D01*
X160107483Y-53894091D01*
X160242331Y-53843796D01*
X160357546Y-53757546D01*
X160443796Y-53642331D01*
X160449816Y-53626188D01*
X160468185Y-53601648D01*
X160484745Y-53575850D01*
X160488927Y-53573936D01*
X160491684Y-53570255D01*
X160520409Y-53559539D01*
X160548285Y-53546791D01*
X160552836Y-53547442D01*
X160557147Y-53545835D01*
X160587110Y-53552351D01*
X160617449Y-53556697D01*
X160622178Y-53559978D01*
X160625421Y-53560684D01*
X160647151Y-53575762D01*
X160650527Y-53578684D01*
X160764815Y-53692972D01*
X160823677Y-53728555D01*
X160831652Y-53735458D01*
X160845077Y-53756324D01*
X160861838Y-53774626D01*
X160864647Y-53786740D01*
X160869458Y-53794216D01*
X160869465Y-53807508D01*
X160874500Y-53829215D01*
X160874500Y-54724902D01*
X160854815Y-54791941D01*
X160838181Y-54812583D01*
X158119481Y-57531282D01*
X158119479Y-57531284D01*
X158095282Y-57573197D01*
X158078965Y-57601459D01*
X158059694Y-57634837D01*
X158040423Y-57668214D01*
X158040423Y-57668215D01*
X157999499Y-57820943D01*
X157999499Y-57820945D01*
X157999499Y-57989046D01*
X157999500Y-57989059D01*
X157999500Y-60484988D01*
X157979815Y-60552027D01*
X157948386Y-60585306D01*
X157843722Y-60661349D01*
X157721350Y-60783721D01*
X157721350Y-60783722D01*
X157721348Y-60783724D01*
X157694391Y-60820827D01*
X157619623Y-60923735D01*
X157541051Y-61077940D01*
X157487573Y-61242531D01*
X157460500Y-61413461D01*
X157460500Y-61586538D01*
X157487573Y-61757468D01*
X157541051Y-61922059D01*
X157580619Y-61999714D01*
X157619623Y-62076264D01*
X157721348Y-62216276D01*
X157843724Y-62338652D01*
X157983736Y-62440377D01*
X158107296Y-62503334D01*
X158137940Y-62518948D01*
X158211329Y-62542793D01*
X158302533Y-62572427D01*
X158381699Y-62584965D01*
X158473462Y-62599500D01*
X158473467Y-62599500D01*
X158646538Y-62599500D01*
X158729402Y-62586374D01*
X158817467Y-62572427D01*
X158982062Y-62518947D01*
X159136264Y-62440377D01*
X159276276Y-62338652D01*
X159398652Y-62216276D01*
X159500377Y-62076264D01*
X159578947Y-61922062D01*
X159632427Y-61757467D01*
X159653069Y-61627139D01*
X159659500Y-61586538D01*
X159659500Y-61413461D01*
X159643749Y-61314023D01*
X159632427Y-61242533D01*
X159592990Y-61121158D01*
X159578948Y-61077940D01*
X159522165Y-60966498D01*
X159500377Y-60923736D01*
X159449082Y-60853135D01*
X162540500Y-60853135D01*
X162540500Y-62146870D01*
X162540501Y-62146876D01*
X162546908Y-62206483D01*
X162597202Y-62341328D01*
X162597206Y-62341335D01*
X162683452Y-62456544D01*
X162683455Y-62456547D01*
X162798664Y-62542793D01*
X162798671Y-62542797D01*
X162933517Y-62593091D01*
X162933516Y-62593091D01*
X162940444Y-62593835D01*
X162993127Y-62599500D01*
X164286872Y-62599499D01*
X164346483Y-62593091D01*
X164481331Y-62542796D01*
X164596546Y-62456546D01*
X164682796Y-62341331D01*
X164733091Y-62206483D01*
X164739500Y-62146873D01*
X164739499Y-60853128D01*
X164733091Y-60793517D01*
X164729438Y-60783724D01*
X164682797Y-60658671D01*
X164682793Y-60658664D01*
X164596547Y-60543455D01*
X164596544Y-60543452D01*
X164481335Y-60457206D01*
X164481328Y-60457202D01*
X164346482Y-60406908D01*
X164346483Y-60406908D01*
X164286883Y-60400501D01*
X164286881Y-60400500D01*
X164286873Y-60400500D01*
X164286864Y-60400500D01*
X162993129Y-60400500D01*
X162993123Y-60400501D01*
X162933516Y-60406908D01*
X162798671Y-60457202D01*
X162798664Y-60457206D01*
X162683455Y-60543452D01*
X162683452Y-60543455D01*
X162597206Y-60658664D01*
X162597202Y-60658671D01*
X162546908Y-60793517D01*
X162540501Y-60853116D01*
X162540501Y-60853123D01*
X162540500Y-60853135D01*
X159449082Y-60853135D01*
X159398652Y-60783724D01*
X159276276Y-60661348D01*
X159274386Y-60659975D01*
X159251613Y-60643429D01*
X159208948Y-60588098D01*
X159200500Y-60543112D01*
X159200500Y-59895573D01*
X160517978Y-59895573D01*
X160523996Y-59899947D01*
X160678128Y-59978481D01*
X160842653Y-60031939D01*
X161013502Y-60059000D01*
X161186498Y-60059000D01*
X161357346Y-60031939D01*
X161521871Y-59978481D01*
X161676002Y-59899947D01*
X161682021Y-59895573D01*
X161100001Y-59313553D01*
X161100000Y-59313553D01*
X160517978Y-59895573D01*
X159200500Y-59895573D01*
X159200500Y-58873501D01*
X160001000Y-58873501D01*
X160001000Y-59046498D01*
X160028060Y-59217346D01*
X160081518Y-59381871D01*
X160160052Y-59536003D01*
X160160056Y-59536009D01*
X160164423Y-59542020D01*
X160164425Y-59542020D01*
X160746446Y-58960000D01*
X160746446Y-58959999D01*
X160701027Y-58914580D01*
X160755000Y-58914580D01*
X160755000Y-59005420D01*
X160778511Y-59093165D01*
X160823931Y-59171835D01*
X160888165Y-59236069D01*
X160966835Y-59281489D01*
X161054580Y-59305000D01*
X161145420Y-59305000D01*
X161233165Y-59281489D01*
X161311835Y-59236069D01*
X161376069Y-59171835D01*
X161421489Y-59093165D01*
X161445000Y-59005420D01*
X161445000Y-58959999D01*
X161453553Y-58959999D01*
X161453553Y-58960000D01*
X162035573Y-59542020D01*
X162039947Y-59536002D01*
X162118481Y-59381871D01*
X162171939Y-59217346D01*
X162199000Y-59046498D01*
X162199000Y-58873501D01*
X162171939Y-58702653D01*
X162118481Y-58538128D01*
X162039947Y-58383996D01*
X162035573Y-58377978D01*
X161453553Y-58959999D01*
X161445000Y-58959999D01*
X161445000Y-58914580D01*
X161421489Y-58826835D01*
X161376069Y-58748165D01*
X161311835Y-58683931D01*
X161233165Y-58638511D01*
X161145420Y-58615000D01*
X161054580Y-58615000D01*
X160966835Y-58638511D01*
X160888165Y-58683931D01*
X160823931Y-58748165D01*
X160778511Y-58826835D01*
X160755000Y-58914580D01*
X160701027Y-58914580D01*
X160164425Y-58377978D01*
X160164423Y-58377978D01*
X160160053Y-58383993D01*
X160160052Y-58383995D01*
X160081518Y-58538128D01*
X160028060Y-58702653D01*
X160001000Y-58873501D01*
X159200500Y-58873501D01*
X159200500Y-58200097D01*
X159209144Y-58170656D01*
X159215668Y-58140670D01*
X159219422Y-58135654D01*
X159220185Y-58133058D01*
X159236819Y-58112416D01*
X159324812Y-58024423D01*
X160517978Y-58024423D01*
X160517978Y-58024425D01*
X161100000Y-58606446D01*
X161100001Y-58606446D01*
X161682020Y-58024425D01*
X161682020Y-58024423D01*
X161676009Y-58020056D01*
X161676003Y-58020052D01*
X161521871Y-57941518D01*
X161357346Y-57888060D01*
X161186498Y-57861000D01*
X161013502Y-57861000D01*
X160842653Y-57888060D01*
X160678128Y-57941518D01*
X160523995Y-58020052D01*
X160523993Y-58020053D01*
X160517978Y-58024423D01*
X159324812Y-58024423D01*
X159365233Y-57984002D01*
X159824930Y-57524306D01*
X160412417Y-56936819D01*
X160473740Y-56903334D01*
X160500098Y-56900500D01*
X161713331Y-56900500D01*
X161713347Y-56900501D01*
X161720943Y-56900501D01*
X161879054Y-56900501D01*
X161879057Y-56900501D01*
X162031785Y-56859577D01*
X162098699Y-56820944D01*
X162168716Y-56780520D01*
X162280520Y-56668716D01*
X162280520Y-56668714D01*
X162290724Y-56658511D01*
X162290728Y-56658506D01*
X165058506Y-53890728D01*
X165058511Y-53890724D01*
X165068714Y-53880520D01*
X165068716Y-53880520D01*
X165180520Y-53768716D01*
X165259577Y-53631784D01*
X165272658Y-53582964D01*
X165309021Y-53523306D01*
X165371868Y-53492776D01*
X165409778Y-53494019D01*
X165409913Y-53492769D01*
X165477155Y-53499999D01*
X165477172Y-53500000D01*
X165600000Y-53500000D01*
X166100000Y-53500000D01*
X166222828Y-53500000D01*
X166222844Y-53499999D01*
X166282372Y-53493598D01*
X166282379Y-53493596D01*
X166417086Y-53443354D01*
X166417093Y-53443350D01*
X166532187Y-53357190D01*
X166532190Y-53357187D01*
X166618350Y-53242093D01*
X166618354Y-53242086D01*
X166668596Y-53107379D01*
X166668598Y-53107372D01*
X166674999Y-53047844D01*
X166675000Y-53047827D01*
X166675000Y-52725000D01*
X166100000Y-52725000D01*
X166100000Y-53500000D01*
X165600000Y-53500000D01*
X165600000Y-52225000D01*
X166100000Y-52225000D01*
X166675000Y-52225000D01*
X166675000Y-51902172D01*
X166674999Y-51902155D01*
X166668598Y-51842627D01*
X166668596Y-51842620D01*
X166618354Y-51707913D01*
X166618350Y-51707906D01*
X166532190Y-51592812D01*
X166532187Y-51592809D01*
X166417093Y-51506649D01*
X166417086Y-51506645D01*
X166282379Y-51456403D01*
X166282372Y-51456401D01*
X166222844Y-51450000D01*
X166100000Y-51450000D01*
X166100000Y-52225000D01*
X165600000Y-52225000D01*
X165600000Y-51450000D01*
X165477155Y-51450000D01*
X165437756Y-51454237D01*
X165368996Y-51441832D01*
X165317859Y-51394222D01*
X165300500Y-51330948D01*
X165300500Y-49469051D01*
X165320185Y-49402012D01*
X165372989Y-49356257D01*
X165437759Y-49345762D01*
X165477162Y-49349999D01*
X165477172Y-49350000D01*
X165600000Y-49350000D01*
X166100000Y-49350000D01*
X166222828Y-49350000D01*
X166222844Y-49349999D01*
X166282372Y-49343598D01*
X166282379Y-49343596D01*
X166417086Y-49293354D01*
X166417093Y-49293350D01*
X166532187Y-49207190D01*
X166532190Y-49207187D01*
X166618350Y-49092093D01*
X166618354Y-49092086D01*
X166668596Y-48957379D01*
X166668598Y-48957372D01*
X166674999Y-48897844D01*
X166675000Y-48897827D01*
X166675000Y-48575000D01*
X166100000Y-48575000D01*
X166100000Y-49350000D01*
X165600000Y-49350000D01*
X165600000Y-48075000D01*
X166100000Y-48075000D01*
X166675000Y-48075000D01*
X166675000Y-47752172D01*
X166674999Y-47752155D01*
X166668598Y-47692627D01*
X166668596Y-47692620D01*
X166618354Y-47557913D01*
X166618350Y-47557906D01*
X166532190Y-47442812D01*
X166532187Y-47442809D01*
X166417093Y-47356649D01*
X166417086Y-47356645D01*
X166282379Y-47306403D01*
X166282372Y-47306401D01*
X166222844Y-47300000D01*
X166100000Y-47300000D01*
X166100000Y-48075000D01*
X165600000Y-48075000D01*
X165600000Y-47300000D01*
X165477155Y-47300000D01*
X165437757Y-47304237D01*
X165368997Y-47291832D01*
X165317860Y-47244222D01*
X165300501Y-47180948D01*
X165300501Y-47020945D01*
X165300501Y-47020943D01*
X165259577Y-46868215D01*
X165215553Y-46791964D01*
X165180520Y-46731284D01*
X165068716Y-46619480D01*
X165068715Y-46619479D01*
X165064385Y-46615149D01*
X165064374Y-46615139D01*
X164390139Y-45940904D01*
X164380521Y-45931286D01*
X164380520Y-45931284D01*
X164268716Y-45819480D01*
X164226067Y-45794857D01*
X164216597Y-45786427D01*
X164204542Y-45767107D01*
X164188827Y-45750626D01*
X164186399Y-45738031D01*
X164179610Y-45727150D01*
X164179914Y-45704378D01*
X164175605Y-45682019D01*
X164180371Y-45670112D01*
X164180543Y-45657287D01*
X164193109Y-45638295D01*
X164201573Y-45617154D01*
X164217184Y-45601909D01*
X164219098Y-45599018D01*
X164221007Y-45598176D01*
X164224729Y-45594542D01*
X164307546Y-45532546D01*
X164393796Y-45417331D01*
X164444091Y-45282483D01*
X164450500Y-45222873D01*
X164450500Y-45222844D01*
X164950000Y-45222844D01*
X164956401Y-45282372D01*
X164956403Y-45282379D01*
X165006645Y-45417086D01*
X165006649Y-45417093D01*
X165092809Y-45532187D01*
X165092812Y-45532190D01*
X165207906Y-45618350D01*
X165207913Y-45618354D01*
X165342620Y-45668596D01*
X165342627Y-45668598D01*
X165402155Y-45674999D01*
X165402172Y-45675000D01*
X165525000Y-45675000D01*
X166025000Y-45675000D01*
X166147828Y-45675000D01*
X166147844Y-45674999D01*
X166207372Y-45668598D01*
X166207379Y-45668596D01*
X166342086Y-45618354D01*
X166342093Y-45618350D01*
X166457187Y-45532190D01*
X166457190Y-45532187D01*
X166543350Y-45417093D01*
X166543354Y-45417086D01*
X166593596Y-45282379D01*
X166593598Y-45282372D01*
X166599999Y-45222844D01*
X166600000Y-45222827D01*
X166600000Y-44900000D01*
X166025000Y-44900000D01*
X166025000Y-45675000D01*
X165525000Y-45675000D01*
X165525000Y-44900000D01*
X164950000Y-44900000D01*
X164950000Y-45222844D01*
X164450500Y-45222844D01*
X164450499Y-44624019D01*
X164450499Y-44077155D01*
X164950000Y-44077155D01*
X164950000Y-44400000D01*
X165525000Y-44400000D01*
X166025000Y-44400000D01*
X166600000Y-44400000D01*
X166600000Y-44077172D01*
X166599999Y-44077155D01*
X166593598Y-44017627D01*
X166593596Y-44017620D01*
X166543354Y-43882913D01*
X166543350Y-43882906D01*
X166457190Y-43767812D01*
X166457187Y-43767809D01*
X166342093Y-43681649D01*
X166342086Y-43681645D01*
X166207379Y-43631403D01*
X166207372Y-43631401D01*
X166147844Y-43625000D01*
X166025000Y-43625000D01*
X166025000Y-44400000D01*
X165525000Y-44400000D01*
X165525000Y-43625000D01*
X165402155Y-43625000D01*
X165342627Y-43631401D01*
X165342620Y-43631403D01*
X165207913Y-43681645D01*
X165207906Y-43681649D01*
X165092812Y-43767809D01*
X165092809Y-43767812D01*
X165006649Y-43882906D01*
X165006645Y-43882913D01*
X164956403Y-44017620D01*
X164956401Y-44017627D01*
X164950000Y-44077155D01*
X164450499Y-44077155D01*
X164450499Y-44077129D01*
X164450498Y-44077123D01*
X164444091Y-44017516D01*
X164393797Y-43882671D01*
X164393793Y-43882664D01*
X164307547Y-43767455D01*
X164307544Y-43767452D01*
X164192335Y-43681206D01*
X164192328Y-43681202D01*
X164057486Y-43630910D01*
X164057485Y-43630909D01*
X164057483Y-43630909D01*
X163997873Y-43624500D01*
X163997863Y-43624500D01*
X163252129Y-43624500D01*
X163252123Y-43624501D01*
X163192516Y-43630908D01*
X163057664Y-43681205D01*
X163056836Y-43681658D01*
X163055914Y-43681858D01*
X163049360Y-43684303D01*
X163049008Y-43683360D01*
X162988562Y-43696504D01*
X162923100Y-43672082D01*
X162909737Y-43660502D01*
X162378044Y-43128809D01*
X162347339Y-43078017D01*
X162318478Y-42985394D01*
X162230472Y-42839815D01*
X162230470Y-42839813D01*
X162230469Y-42839811D01*
X162110188Y-42719530D01*
X162061034Y-42689815D01*
X162060347Y-42689399D01*
X162053082Y-42681465D01*
X162043297Y-42676997D01*
X162029897Y-42656146D01*
X162013162Y-42637871D01*
X162010343Y-42625719D01*
X162005523Y-42618219D01*
X162000500Y-42583284D01*
X162000500Y-42505424D01*
X162020185Y-42438385D01*
X162059402Y-42399886D01*
X162103044Y-42372968D01*
X162222968Y-42253044D01*
X162234465Y-42234403D01*
X162286412Y-42187679D01*
X162340004Y-42175500D01*
X163238331Y-42175500D01*
X163238347Y-42175501D01*
X163245943Y-42175501D01*
X163404054Y-42175501D01*
X163404057Y-42175501D01*
X163556785Y-42134577D01*
X163617541Y-42099499D01*
X163693716Y-42055520D01*
X163805520Y-41943716D01*
X163805520Y-41943714D01*
X163815723Y-41933512D01*
X163815727Y-41933506D01*
X163993713Y-41755521D01*
X163993716Y-41755520D01*
X164105520Y-41643716D01*
X164155639Y-41556904D01*
X164184577Y-41506785D01*
X164187767Y-41494875D01*
X164194025Y-41482847D01*
X164209207Y-41467040D01*
X164220609Y-41448329D01*
X164229712Y-41440811D01*
X164307546Y-41382546D01*
X164393796Y-41267331D01*
X164444091Y-41132483D01*
X164450500Y-41072873D01*
X164450500Y-41072844D01*
X164950000Y-41072844D01*
X164956401Y-41132372D01*
X164956403Y-41132379D01*
X165006645Y-41267086D01*
X165006649Y-41267093D01*
X165092809Y-41382187D01*
X165092812Y-41382190D01*
X165207906Y-41468350D01*
X165207913Y-41468354D01*
X165342620Y-41518596D01*
X165342627Y-41518598D01*
X165402155Y-41524999D01*
X165402172Y-41525000D01*
X165525000Y-41525000D01*
X166025000Y-41525000D01*
X166147828Y-41525000D01*
X166147844Y-41524999D01*
X166207372Y-41518598D01*
X166207379Y-41518596D01*
X166342086Y-41468354D01*
X166342093Y-41468350D01*
X166457187Y-41382190D01*
X166457190Y-41382187D01*
X166543350Y-41267093D01*
X166543354Y-41267086D01*
X166593596Y-41132379D01*
X166593598Y-41132372D01*
X166599999Y-41072844D01*
X166600000Y-41072827D01*
X166600000Y-40750000D01*
X166025000Y-40750000D01*
X166025000Y-41525000D01*
X165525000Y-41525000D01*
X165525000Y-40750000D01*
X164950000Y-40750000D01*
X164950000Y-41072844D01*
X164450500Y-41072844D01*
X164450499Y-40451264D01*
X164450499Y-39927155D01*
X164950000Y-39927155D01*
X164950000Y-40250000D01*
X165525000Y-40250000D01*
X166025000Y-40250000D01*
X166600000Y-40250000D01*
X166600000Y-39927172D01*
X166599999Y-39927155D01*
X166593598Y-39867627D01*
X166593596Y-39867620D01*
X166543354Y-39732913D01*
X166543350Y-39732906D01*
X166457190Y-39617812D01*
X166457187Y-39617809D01*
X166342093Y-39531649D01*
X166342086Y-39531645D01*
X166207379Y-39481403D01*
X166207372Y-39481401D01*
X166147844Y-39475000D01*
X166025000Y-39475000D01*
X166025000Y-40250000D01*
X165525000Y-40250000D01*
X165525000Y-39475000D01*
X165402155Y-39475000D01*
X165342627Y-39481401D01*
X165342620Y-39481403D01*
X165207913Y-39531645D01*
X165207906Y-39531649D01*
X165092812Y-39617809D01*
X165092809Y-39617812D01*
X165006649Y-39732906D01*
X165006645Y-39732913D01*
X164956403Y-39867620D01*
X164956401Y-39867627D01*
X164950000Y-39927155D01*
X164450499Y-39927155D01*
X164450499Y-39927129D01*
X164450498Y-39927123D01*
X164450497Y-39927116D01*
X164444561Y-39871885D01*
X164444091Y-39867516D01*
X164393797Y-39732671D01*
X164393793Y-39732664D01*
X164307547Y-39617455D01*
X164307546Y-39617454D01*
X164275188Y-39593230D01*
X164233318Y-39537296D01*
X164225501Y-39493965D01*
X164225501Y-39445945D01*
X164225501Y-39445943D01*
X164184577Y-39293215D01*
X164141538Y-39218670D01*
X164105520Y-39156284D01*
X163993716Y-39044480D01*
X163993715Y-39044479D01*
X163989385Y-39040149D01*
X163989374Y-39040139D01*
X162334574Y-37385339D01*
X162301089Y-37324016D01*
X162300638Y-37321849D01*
X162275924Y-37197607D01*
X162269737Y-37166503D01*
X162263944Y-37152517D01*
X162209397Y-37020827D01*
X162209390Y-37020814D01*
X162121789Y-36889711D01*
X162121786Y-36889707D01*
X162010292Y-36778213D01*
X162010288Y-36778210D01*
X161879185Y-36690609D01*
X161879172Y-36690602D01*
X161733501Y-36630264D01*
X161733489Y-36630261D01*
X161578845Y-36599500D01*
X161578842Y-36599500D01*
X161421158Y-36599500D01*
X161421155Y-36599500D01*
X161266510Y-36630261D01*
X161266498Y-36630264D01*
X161120827Y-36690602D01*
X161120814Y-36690609D01*
X160989711Y-36778210D01*
X160989707Y-36778213D01*
X160878213Y-36889707D01*
X160878210Y-36889711D01*
X160790609Y-37020814D01*
X160790604Y-37020823D01*
X160728923Y-37169737D01*
X160713132Y-37189331D01*
X160700749Y-37211241D01*
X160691582Y-37216072D01*
X160685082Y-37224140D01*
X160661202Y-37232088D01*
X160638941Y-37243823D01*
X160628619Y-37242932D01*
X160618788Y-37246205D01*
X160594401Y-37239980D01*
X160569330Y-37237818D01*
X160561127Y-37231488D01*
X160551089Y-37228926D01*
X160533941Y-37210508D01*
X160514016Y-37195132D01*
X160508571Y-37183259D01*
X160503478Y-37177789D01*
X160497558Y-37163910D01*
X160494347Y-37154900D01*
X160494091Y-37152517D01*
X160480763Y-37116784D01*
X160480452Y-37115910D01*
X160478520Y-37081913D01*
X160476090Y-37047926D01*
X160476508Y-37046500D01*
X160476489Y-37046153D01*
X160476742Y-37045705D01*
X160481075Y-37030949D01*
X160493597Y-36997375D01*
X160493598Y-36997372D01*
X160499999Y-36937844D01*
X160500000Y-36937827D01*
X160500000Y-36690000D01*
X158000000Y-36690000D01*
X158000000Y-36937844D01*
X158006401Y-36997372D01*
X158006403Y-36997379D01*
X158018925Y-37030952D01*
X158023909Y-37100643D01*
X158018925Y-37117617D01*
X158005909Y-37152514D01*
X158005908Y-37152516D01*
X157999501Y-37212116D01*
X157999500Y-37212135D01*
X157999500Y-38150903D01*
X157979815Y-38217942D01*
X157927011Y-38263697D01*
X157857853Y-38273641D01*
X157794297Y-38244616D01*
X157787819Y-38238584D01*
X156887590Y-37338355D01*
X156887588Y-37338352D01*
X156768717Y-37219481D01*
X156768709Y-37219475D01*
X156649106Y-37150423D01*
X156649106Y-37150422D01*
X156649101Y-37150421D01*
X156643058Y-37146932D01*
X156631786Y-37140423D01*
X156593603Y-37130192D01*
X156479057Y-37099499D01*
X156320943Y-37099499D01*
X156313347Y-37099499D01*
X156313331Y-37099500D01*
X143120665Y-37099500D01*
X143053626Y-37079815D01*
X143007871Y-37027011D01*
X142997375Y-36962245D01*
X142999999Y-36937828D01*
X143000000Y-36937827D01*
X143000000Y-36690000D01*
X140500000Y-36690000D01*
X140500000Y-36937839D01*
X140503700Y-36972242D01*
X140491296Y-37041002D01*
X140443687Y-37092140D01*
X140380411Y-37109500D01*
X139349500Y-37109500D01*
X139282461Y-37089815D01*
X139236706Y-37037011D01*
X139225500Y-36985500D01*
X139225499Y-36501662D01*
X139225498Y-36501644D01*
X139215349Y-36402292D01*
X139215348Y-36402289D01*
X139197753Y-36349191D01*
X139162003Y-36241303D01*
X139161999Y-36241297D01*
X139161998Y-36241294D01*
X139072970Y-36096959D01*
X139072967Y-36096955D01*
X138953044Y-35977032D01*
X138953040Y-35977029D01*
X138808705Y-35888001D01*
X138808699Y-35887998D01*
X138808697Y-35887997D01*
X138781069Y-35878842D01*
X138647709Y-35834651D01*
X138548346Y-35824500D01*
X138001662Y-35824500D01*
X138001644Y-35824501D01*
X137902292Y-35834650D01*
X137902289Y-35834651D01*
X137741305Y-35887996D01*
X137741294Y-35888001D01*
X137596959Y-35977029D01*
X137596953Y-35977033D01*
X137587324Y-35986663D01*
X137526000Y-36020146D01*
X137456308Y-36015159D01*
X137411965Y-35986660D01*
X137402732Y-35977427D01*
X137402728Y-35977424D01*
X137258492Y-35888457D01*
X137258481Y-35888452D01*
X137097606Y-35835144D01*
X136998322Y-35825000D01*
X136975000Y-35825000D01*
X136975000Y-38376000D01*
X136955315Y-38443039D01*
X136902511Y-38488794D01*
X136851000Y-38500000D01*
X136725000Y-38500000D01*
X136725000Y-38626000D01*
X136705315Y-38693039D01*
X136652511Y-38738794D01*
X136601000Y-38750000D01*
X135775001Y-38750000D01*
X135775001Y-38798322D01*
X135785144Y-38897607D01*
X135838452Y-39058481D01*
X135838457Y-39058492D01*
X135927424Y-39202728D01*
X135927427Y-39202732D01*
X135929337Y-39204642D01*
X135930228Y-39206275D01*
X135931905Y-39208395D01*
X135931542Y-39208681D01*
X135962822Y-39265965D01*
X135957838Y-39335657D01*
X135943156Y-39363553D01*
X135936957Y-39372385D01*
X135919528Y-39389815D01*
X135887214Y-39443268D01*
X135884785Y-39446730D01*
X135860646Y-39465983D01*
X135837874Y-39486838D01*
X135833117Y-39487941D01*
X135830163Y-39490298D01*
X135817257Y-39491619D01*
X135783285Y-39499500D01*
X135169470Y-39499500D01*
X135128549Y-39510464D01*
X135128549Y-39510465D01*
X135118417Y-39513180D01*
X135016744Y-39540423D01*
X135016739Y-39540426D01*
X134879820Y-39619475D01*
X134879812Y-39619481D01*
X134768010Y-39731283D01*
X134768010Y-39731284D01*
X134768008Y-39731286D01*
X134713591Y-39785703D01*
X134659602Y-39839692D01*
X134598279Y-39873176D01*
X134596113Y-39873627D01*
X134440773Y-39904526D01*
X134440763Y-39904529D01*
X134295092Y-39964867D01*
X134295079Y-39964874D01*
X134163976Y-40052475D01*
X134163972Y-40052478D01*
X134052478Y-40163972D01*
X134052475Y-40163976D01*
X133964874Y-40295079D01*
X133964867Y-40295092D01*
X133904529Y-40440763D01*
X133904526Y-40440775D01*
X133873765Y-40595418D01*
X133873765Y-40753111D01*
X133904526Y-40907754D01*
X133904529Y-40907766D01*
X133964867Y-41053437D01*
X133964874Y-41053450D01*
X134052475Y-41184553D01*
X134052478Y-41184557D01*
X134163972Y-41296051D01*
X134163976Y-41296054D01*
X134295079Y-41383655D01*
X134295092Y-41383662D01*
X134433047Y-41440804D01*
X134440768Y-41444002D01*
X134595418Y-41474764D01*
X134595421Y-41474765D01*
X134595423Y-41474765D01*
X134753109Y-41474765D01*
X134753110Y-41474764D01*
X134907762Y-41444002D01*
X135053444Y-41383659D01*
X135184554Y-41296054D01*
X135296054Y-41184554D01*
X135383659Y-41053444D01*
X135444002Y-40907762D01*
X135454107Y-40856961D01*
X135465377Y-40800308D01*
X135480091Y-40772177D01*
X135493281Y-40743297D01*
X135496170Y-40741440D01*
X135497762Y-40738397D01*
X135525354Y-40722684D01*
X135552059Y-40705523D01*
X135556652Y-40704862D01*
X135558478Y-40703823D01*
X135586994Y-40700500D01*
X135783285Y-40700500D01*
X135850324Y-40720185D01*
X135889401Y-40760349D01*
X135919528Y-40810185D01*
X135919530Y-40810188D01*
X135929337Y-40819995D01*
X135962822Y-40881318D01*
X135957838Y-40951010D01*
X135931802Y-40991523D01*
X135931905Y-40991605D01*
X135931079Y-40992649D01*
X135929343Y-40995351D01*
X135927430Y-40997264D01*
X135927424Y-40997271D01*
X135838457Y-41141507D01*
X135838452Y-41141518D01*
X135785144Y-41302393D01*
X135775000Y-41401677D01*
X135775000Y-41450000D01*
X136601000Y-41450000D01*
X136668039Y-41469685D01*
X136713794Y-41522489D01*
X136725000Y-41574000D01*
X136725000Y-41826000D01*
X136705315Y-41893039D01*
X136652511Y-41938794D01*
X136601000Y-41950000D01*
X135775001Y-41950000D01*
X135775001Y-41998322D01*
X135785144Y-42097607D01*
X135838452Y-42258481D01*
X135838457Y-42258492D01*
X135927424Y-42402728D01*
X135927427Y-42402732D01*
X135979337Y-42454642D01*
X135980582Y-42456922D01*
X135982812Y-42458260D01*
X135997234Y-42487417D01*
X136012822Y-42515965D01*
X136012636Y-42518558D01*
X136013789Y-42520888D01*
X136010158Y-42553210D01*
X136007838Y-42585657D01*
X136006190Y-42588533D01*
X136005990Y-42590321D01*
X136000409Y-42598630D01*
X135987836Y-42620588D01*
X135983821Y-42625521D01*
X135919528Y-42689815D01*
X135884925Y-42747055D01*
X135879465Y-42753765D01*
X135857517Y-42768849D01*
X135837874Y-42786838D01*
X135828016Y-42789124D01*
X135821883Y-42793340D01*
X135807988Y-42793769D01*
X135783285Y-42799500D01*
X135000097Y-42799500D01*
X134933058Y-42779815D01*
X134912416Y-42763181D01*
X134834574Y-42685339D01*
X134801089Y-42624016D01*
X134800638Y-42621849D01*
X134777479Y-42505424D01*
X134769737Y-42466503D01*
X134766323Y-42458260D01*
X134709397Y-42320827D01*
X134709390Y-42320814D01*
X134621789Y-42189711D01*
X134621786Y-42189707D01*
X134510292Y-42078213D01*
X134510288Y-42078210D01*
X134379185Y-41990609D01*
X134379172Y-41990602D01*
X134233501Y-41930264D01*
X134233489Y-41930261D01*
X134078845Y-41899500D01*
X134078842Y-41899500D01*
X133921158Y-41899500D01*
X133921155Y-41899500D01*
X133766510Y-41930261D01*
X133766498Y-41930264D01*
X133620827Y-41990602D01*
X133620814Y-41990609D01*
X133489711Y-42078210D01*
X133489707Y-42078213D01*
X133378213Y-42189707D01*
X133378210Y-42189711D01*
X133290609Y-42320814D01*
X133290602Y-42320827D01*
X133230264Y-42466498D01*
X133230261Y-42466510D01*
X133199500Y-42621153D01*
X133199500Y-42778846D01*
X133230261Y-42933489D01*
X133230264Y-42933501D01*
X133290602Y-43079172D01*
X133290609Y-43079185D01*
X133378210Y-43210288D01*
X133378213Y-43210292D01*
X133489707Y-43321786D01*
X133489711Y-43321789D01*
X133620814Y-43409390D01*
X133620827Y-43409397D01*
X133763116Y-43468334D01*
X133766503Y-43469737D01*
X133831147Y-43482595D01*
X133921849Y-43500638D01*
X133983760Y-43533023D01*
X133985339Y-43534574D01*
X134215139Y-43764374D01*
X134215149Y-43764385D01*
X134219479Y-43768715D01*
X134219480Y-43768716D01*
X134331284Y-43880520D01*
X134331286Y-43880521D01*
X134331290Y-43880524D01*
X134468209Y-43959573D01*
X134468216Y-43959577D01*
X134580019Y-43989534D01*
X134620942Y-44000500D01*
X134620943Y-44000500D01*
X135783285Y-44000500D01*
X135850324Y-44020185D01*
X135889401Y-44060349D01*
X135910260Y-44094854D01*
X135919530Y-44110188D01*
X136039811Y-44230469D01*
X136039813Y-44230470D01*
X136039815Y-44230472D01*
X136185394Y-44318478D01*
X136347804Y-44369086D01*
X136418384Y-44375500D01*
X136418387Y-44375500D01*
X136931613Y-44375500D01*
X136931616Y-44375500D01*
X137002196Y-44369086D01*
X137164606Y-44318478D01*
X137310185Y-44230472D01*
X137310189Y-44230468D01*
X137412319Y-44128339D01*
X137473642Y-44094854D01*
X137543334Y-44099838D01*
X137587681Y-44128339D01*
X137689811Y-44230469D01*
X137689813Y-44230470D01*
X137689815Y-44230472D01*
X137835394Y-44318478D01*
X137997804Y-44369086D01*
X138068384Y-44375500D01*
X138068387Y-44375500D01*
X138581613Y-44375500D01*
X138581616Y-44375500D01*
X138652196Y-44369086D01*
X138814606Y-44318478D01*
X138911352Y-44259992D01*
X138978904Y-44242157D01*
X139045378Y-44263674D01*
X139089666Y-44317714D01*
X139099500Y-44366110D01*
X139099500Y-47299903D01*
X139079815Y-47366942D01*
X139063181Y-47387584D01*
X138387584Y-48063181D01*
X138326261Y-48096666D01*
X138299903Y-48099500D01*
X133079766Y-48099500D01*
X133012727Y-48079815D01*
X133010875Y-48078602D01*
X132879185Y-47990609D01*
X132879172Y-47990602D01*
X132733501Y-47930264D01*
X132733489Y-47930261D01*
X132578845Y-47899500D01*
X132578842Y-47899500D01*
X132421158Y-47899500D01*
X132421155Y-47899500D01*
X132266510Y-47930261D01*
X132266498Y-47930264D01*
X132120827Y-47990602D01*
X132120814Y-47990609D01*
X131989711Y-48078210D01*
X131989707Y-48078213D01*
X131878213Y-48189707D01*
X131878210Y-48189711D01*
X131790609Y-48320814D01*
X131790602Y-48320827D01*
X131730264Y-48466498D01*
X131730261Y-48466510D01*
X131699500Y-48621153D01*
X131699500Y-48778846D01*
X131730261Y-48933489D01*
X131730264Y-48933501D01*
X131790602Y-49079172D01*
X131790609Y-49079185D01*
X131878210Y-49210288D01*
X131878213Y-49210292D01*
X131989707Y-49321786D01*
X131989711Y-49321789D01*
X132120814Y-49409390D01*
X132120827Y-49409397D01*
X132250673Y-49463180D01*
X132266503Y-49469737D01*
X132416131Y-49499500D01*
X132421153Y-49500499D01*
X132421156Y-49500500D01*
X132421158Y-49500500D01*
X132578844Y-49500500D01*
X132578845Y-49500499D01*
X132733497Y-49469737D01*
X132871449Y-49412596D01*
X132879172Y-49409397D01*
X132879172Y-49409396D01*
X132879179Y-49409394D01*
X132892996Y-49400162D01*
X133010875Y-49321398D01*
X133077553Y-49300520D01*
X133079766Y-49300500D01*
X138513331Y-49300500D01*
X138513347Y-49300501D01*
X138520943Y-49300501D01*
X138679054Y-49300501D01*
X138679057Y-49300501D01*
X138831785Y-49259577D01*
X138910456Y-49214156D01*
X138968716Y-49180520D01*
X139080520Y-49068716D01*
X139080520Y-49068714D01*
X139090724Y-49058511D01*
X139090728Y-49058506D01*
X140058506Y-48090728D01*
X140058511Y-48090724D01*
X140068714Y-48080520D01*
X140068716Y-48080520D01*
X140180520Y-47968716D01*
X140233392Y-47877139D01*
X140259577Y-47831785D01*
X140259579Y-47831775D01*
X140260935Y-47828504D01*
X140262827Y-47826155D01*
X140263641Y-47824746D01*
X140263860Y-47824872D01*
X140304771Y-47774097D01*
X140371063Y-47752026D01*
X140438764Y-47769300D01*
X140486379Y-47820433D01*
X140499500Y-47875947D01*
X140499500Y-48367870D01*
X140499501Y-48367876D01*
X140505908Y-48427481D01*
X140518659Y-48461669D01*
X140523642Y-48531361D01*
X140518659Y-48548331D01*
X140505908Y-48582518D01*
X140501755Y-48621153D01*
X140499501Y-48642123D01*
X140499500Y-48642135D01*
X140499500Y-49637870D01*
X140499501Y-49637876D01*
X140505908Y-49697481D01*
X140518659Y-49731669D01*
X140523642Y-49801361D01*
X140518659Y-49818331D01*
X140505908Y-49852518D01*
X140499501Y-49912116D01*
X140499500Y-49912135D01*
X140499500Y-50907870D01*
X140499501Y-50907876D01*
X140506738Y-50975196D01*
X140504992Y-50975383D01*
X140501763Y-51035556D01*
X140460892Y-51092225D01*
X140416925Y-51114069D01*
X140393220Y-51120421D01*
X140393208Y-51120426D01*
X140256289Y-51199475D01*
X140256281Y-51199481D01*
X140002583Y-51453181D01*
X139941260Y-51486666D01*
X139914902Y-51489500D01*
X132205564Y-51489500D01*
X132197958Y-51489499D01*
X132197949Y-51489497D01*
X132176417Y-51489497D01*
X132176305Y-51489465D01*
X132028584Y-51489470D01*
X131838066Y-51519655D01*
X131654616Y-51579270D01*
X131482743Y-51666852D01*
X131482742Y-51666853D01*
X131326694Y-51780235D01*
X131326694Y-51780236D01*
X131312751Y-51794179D01*
X131251427Y-51827662D01*
X131181735Y-51822676D01*
X131137395Y-51794180D01*
X131123432Y-51780218D01*
X131123428Y-51780215D01*
X131123426Y-51780213D01*
X131123425Y-51780212D01*
X130967376Y-51666844D01*
X130967373Y-51666842D01*
X130967366Y-51666837D01*
X130795484Y-51579266D01*
X130612018Y-51519663D01*
X130612016Y-51519662D01*
X130612017Y-51519662D01*
X130421488Y-51489496D01*
X130421487Y-51489496D01*
X130325035Y-51489500D01*
X127996670Y-51489500D01*
X127996654Y-51489499D01*
X127989058Y-51489499D01*
X127830943Y-51489499D01*
X127766955Y-51506645D01*
X127678214Y-51530423D01*
X127678209Y-51530426D01*
X127541290Y-51609475D01*
X127541282Y-51609481D01*
X124737584Y-54413181D01*
X124676261Y-54446666D01*
X124649903Y-54449500D01*
X124484298Y-54449500D01*
X124447432Y-54452401D01*
X124447426Y-54452402D01*
X124289606Y-54498254D01*
X124289603Y-54498255D01*
X124148137Y-54581917D01*
X124148133Y-54581920D01*
X124087327Y-54642726D01*
X124026003Y-54676210D01*
X123956312Y-54671225D01*
X123911965Y-54642725D01*
X123851561Y-54582321D01*
X123851552Y-54582314D01*
X123710196Y-54498717D01*
X123710193Y-54498716D01*
X123552494Y-54452900D01*
X123552497Y-54452900D01*
X123550000Y-54452703D01*
X123550000Y-56147295D01*
X123550001Y-56147295D01*
X123552486Y-56147100D01*
X123710198Y-56101281D01*
X123851552Y-56017685D01*
X123851556Y-56017682D01*
X123911963Y-55957274D01*
X123919910Y-55952934D01*
X123925336Y-55945687D01*
X123950091Y-55936453D01*
X123973286Y-55923788D01*
X123982317Y-55924433D01*
X123990800Y-55921270D01*
X124016621Y-55926887D01*
X124042978Y-55928772D01*
X124052031Y-55934590D01*
X124059073Y-55936122D01*
X124087327Y-55957273D01*
X124099938Y-55969884D01*
X124132031Y-56025470D01*
X124140421Y-56056783D01*
X124140423Y-56056786D01*
X124162324Y-56094720D01*
X124162328Y-56094725D01*
X124219479Y-56193715D01*
X124219481Y-56193718D01*
X124338349Y-56312586D01*
X124338355Y-56312591D01*
X124992583Y-56966819D01*
X125026068Y-57028142D01*
X125021084Y-57097834D01*
X124979212Y-57153767D01*
X124913748Y-57178184D01*
X124904902Y-57178500D01*
X124900057Y-57178500D01*
X124741943Y-57178500D01*
X124589215Y-57219423D01*
X124589214Y-57219423D01*
X124589212Y-57219424D01*
X124589209Y-57219425D01*
X124539096Y-57248359D01*
X124539095Y-57248360D01*
X124501036Y-57270333D01*
X124452285Y-57298479D01*
X124452282Y-57298481D01*
X124269479Y-57481284D01*
X124248570Y-57517501D01*
X124241432Y-57524306D01*
X124237650Y-57533411D01*
X124216566Y-57548015D01*
X124198003Y-57565716D01*
X124186789Y-57568642D01*
X124180215Y-57573197D01*
X124151692Y-57577803D01*
X124145474Y-57579426D01*
X124143324Y-57579500D01*
X124052128Y-57579501D01*
X124008789Y-57584159D01*
X124004293Y-57584315D01*
X124001812Y-57583679D01*
X123986748Y-57583679D01*
X123947874Y-57579500D01*
X123552130Y-57579500D01*
X123552119Y-57579501D01*
X123513253Y-57583679D01*
X123486748Y-57583679D01*
X123447874Y-57579500D01*
X122752132Y-57579500D01*
X122752117Y-57579501D01*
X122710904Y-57583931D01*
X122684402Y-57583931D01*
X122647834Y-57580000D01*
X122550000Y-57580000D01*
X122549948Y-57580051D01*
X122530315Y-57646914D01*
X122500312Y-57679141D01*
X122442452Y-57722455D01*
X122356206Y-57837664D01*
X122356202Y-57837671D01*
X122305908Y-57972517D01*
X122299501Y-58032116D01*
X122299500Y-58032135D01*
X122299500Y-58526000D01*
X122296949Y-58534685D01*
X122298238Y-58543647D01*
X122287259Y-58567687D01*
X122279815Y-58593039D01*
X122272974Y-58598966D01*
X122269213Y-58607203D01*
X122246978Y-58621492D01*
X122227011Y-58638794D01*
X122216496Y-58641081D01*
X122210435Y-58644977D01*
X122175500Y-58650000D01*
X122174000Y-58650000D01*
X122106961Y-58630315D01*
X122061206Y-58577511D01*
X122050000Y-58526000D01*
X122050000Y-57580000D01*
X121952155Y-57580000D01*
X121892627Y-57586401D01*
X121892620Y-57586403D01*
X121757913Y-57636645D01*
X121757906Y-57636649D01*
X121642812Y-57722809D01*
X121642808Y-57722813D01*
X121630426Y-57739353D01*
X121574491Y-57781222D01*
X121504799Y-57786203D01*
X121483711Y-57779600D01*
X121452098Y-57766506D01*
X121452100Y-57766506D01*
X121425000Y-57761115D01*
X121425000Y-58513011D01*
X121415060Y-58495795D01*
X121359205Y-58439940D01*
X121290796Y-58400444D01*
X121214496Y-58380000D01*
X121135504Y-58380000D01*
X121059204Y-58400444D01*
X120990795Y-58439940D01*
X120934940Y-58495795D01*
X120925000Y-58513011D01*
X120925000Y-57761116D01*
X120924999Y-57761115D01*
X120897899Y-57766506D01*
X120897896Y-57766507D01*
X120725008Y-57838119D01*
X120724999Y-57838124D01*
X120569410Y-57942086D01*
X120569406Y-57942089D01*
X120437089Y-58074406D01*
X120437086Y-58074410D01*
X120333124Y-58229999D01*
X120333119Y-58230008D01*
X120261508Y-58402894D01*
X120261506Y-58402902D01*
X120225000Y-58586428D01*
X120225000Y-58980000D01*
X120875000Y-58980000D01*
X120875000Y-59480000D01*
X120225000Y-59480000D01*
X120225000Y-59873571D01*
X120261506Y-60057097D01*
X120261508Y-60057105D01*
X120333119Y-60229991D01*
X120333124Y-60230000D01*
X120437086Y-60385589D01*
X120437089Y-60385593D01*
X120550512Y-60499016D01*
X120551786Y-60501350D01*
X120554067Y-60502721D01*
X120568439Y-60531847D01*
X120583997Y-60560339D01*
X120583807Y-60562991D01*
X120584985Y-60565378D01*
X120581328Y-60597646D01*
X120579013Y-60630031D01*
X120577418Y-60632161D01*
X120577119Y-60634804D01*
X120556596Y-60659975D01*
X120537141Y-60685964D01*
X120534133Y-60687526D01*
X120532968Y-60688956D01*
X120519006Y-60695384D01*
X120501317Y-60704573D01*
X120498144Y-60705608D01*
X120368215Y-60740423D01*
X120349099Y-60751460D01*
X120337891Y-60757930D01*
X120337887Y-60757932D01*
X120231290Y-60819475D01*
X120231282Y-60819481D01*
X120173625Y-60877139D01*
X120119480Y-60931284D01*
X120119478Y-60931286D01*
X119939350Y-61111415D01*
X119787584Y-61263181D01*
X119726261Y-61296666D01*
X119699903Y-61299500D01*
X119420939Y-61299500D01*
X119410880Y-61302195D01*
X119410881Y-61302196D01*
X119268211Y-61340424D01*
X119261851Y-61343059D01*
X119192381Y-61350525D01*
X119129903Y-61319247D01*
X119094253Y-61259157D01*
X119091045Y-61215893D01*
X119100500Y-61123345D01*
X119100499Y-60576656D01*
X119100219Y-60573919D01*
X119090349Y-60477292D01*
X119090348Y-60477289D01*
X119083693Y-60457206D01*
X119037003Y-60316303D01*
X119036999Y-60316297D01*
X119036998Y-60316294D01*
X118947970Y-60171959D01*
X118947967Y-60171955D01*
X118828044Y-60052032D01*
X118828040Y-60052029D01*
X118683705Y-59963001D01*
X118683699Y-59962998D01*
X118683697Y-59962997D01*
X118611749Y-59939156D01*
X118522709Y-59909651D01*
X118423352Y-59899500D01*
X118423345Y-59899500D01*
X118344386Y-59899500D01*
X118296936Y-59890062D01*
X118291835Y-59887949D01*
X118291828Y-59887947D01*
X118098543Y-59849500D01*
X118098541Y-59849500D01*
X116515782Y-59849500D01*
X116486341Y-59840855D01*
X116456355Y-59834332D01*
X116451339Y-59830577D01*
X116448743Y-59829815D01*
X116428101Y-59813181D01*
X116336819Y-59721899D01*
X116303334Y-59660576D01*
X116300500Y-59634218D01*
X116300500Y-58423322D01*
X117025001Y-58423322D01*
X117035144Y-58522607D01*
X117088452Y-58683481D01*
X117088457Y-58683492D01*
X117177424Y-58827728D01*
X117177427Y-58827732D01*
X117297267Y-58947572D01*
X117297271Y-58947575D01*
X117441507Y-59036542D01*
X117441518Y-59036547D01*
X117602393Y-59089855D01*
X117701683Y-59099999D01*
X118250000Y-59099999D01*
X118298308Y-59099999D01*
X118298322Y-59099998D01*
X118397607Y-59089855D01*
X118558481Y-59036547D01*
X118558492Y-59036542D01*
X118702728Y-58947575D01*
X118702732Y-58947572D01*
X118822572Y-58827732D01*
X118822575Y-58827728D01*
X118911542Y-58683492D01*
X118911547Y-58683481D01*
X118958649Y-58541337D01*
X118958650Y-58541335D01*
X118964855Y-58522607D01*
X118974999Y-58423322D01*
X118975000Y-58423309D01*
X118975000Y-58400000D01*
X118250000Y-58400000D01*
X118250000Y-59099999D01*
X117701683Y-59099999D01*
X117749999Y-59099998D01*
X117750000Y-59099998D01*
X117750000Y-58400000D01*
X117025001Y-58400000D01*
X117025001Y-58423322D01*
X116300500Y-58423322D01*
X116300500Y-58165782D01*
X116320185Y-58098743D01*
X116336819Y-58078101D01*
X116778101Y-57636819D01*
X116839424Y-57603334D01*
X116865782Y-57600500D01*
X116922040Y-57600500D01*
X116989079Y-57620185D01*
X117034834Y-57672989D01*
X117044778Y-57742147D01*
X117039747Y-57763502D01*
X117035143Y-57777393D01*
X117025000Y-57876677D01*
X117025000Y-57900000D01*
X118974999Y-57900000D01*
X118974999Y-57876692D01*
X118974998Y-57876677D01*
X118964855Y-57777392D01*
X118911547Y-57616518D01*
X118911542Y-57616507D01*
X118822575Y-57472271D01*
X118822572Y-57472267D01*
X118813339Y-57463034D01*
X118779854Y-57401711D01*
X118784838Y-57332019D01*
X118813343Y-57287668D01*
X118822968Y-57278044D01*
X118912003Y-57133697D01*
X118965349Y-56972708D01*
X118975500Y-56873345D01*
X118975499Y-56836434D01*
X118977882Y-56812241D01*
X118984193Y-56780520D01*
X119000500Y-56698541D01*
X119000500Y-55565649D01*
X122500000Y-55565649D01*
X122502899Y-55602489D01*
X122502900Y-55602495D01*
X122548716Y-55760193D01*
X122548717Y-55760196D01*
X122632314Y-55901552D01*
X122632321Y-55901561D01*
X122748438Y-56017678D01*
X122748447Y-56017685D01*
X122889801Y-56101281D01*
X123047514Y-56147100D01*
X123047511Y-56147100D01*
X123049998Y-56147295D01*
X123050000Y-56147295D01*
X123050000Y-55550000D01*
X122500000Y-55550000D01*
X122500000Y-55565649D01*
X119000500Y-55565649D01*
X119000500Y-55034350D01*
X122500000Y-55034350D01*
X122500000Y-55050000D01*
X123050000Y-55050000D01*
X123050000Y-54452703D01*
X123047503Y-54452900D01*
X122889806Y-54498716D01*
X122889803Y-54498717D01*
X122748447Y-54582314D01*
X122748438Y-54582321D01*
X122632321Y-54698438D01*
X122632314Y-54698447D01*
X122548717Y-54839803D01*
X122548716Y-54839806D01*
X122502900Y-54997504D01*
X122502899Y-54997510D01*
X122500000Y-55034350D01*
X119000500Y-55034350D01*
X119000500Y-54724500D01*
X119020185Y-54657461D01*
X119072989Y-54611706D01*
X119124500Y-54600500D01*
X119198543Y-54600500D01*
X119328582Y-54574632D01*
X119391835Y-54562051D01*
X119572357Y-54487277D01*
X119573907Y-54486635D01*
X119573907Y-54486634D01*
X119573914Y-54486632D01*
X119737782Y-54377139D01*
X119877139Y-54237782D01*
X119986632Y-54073914D01*
X120062051Y-53891835D01*
X120083889Y-53782048D01*
X120100500Y-53698543D01*
X120100500Y-53501456D01*
X120062052Y-53308170D01*
X120062051Y-53308169D01*
X120062051Y-53308165D01*
X120046514Y-53270655D01*
X119986635Y-53126092D01*
X119986628Y-53126079D01*
X119877139Y-52962218D01*
X119877136Y-52962214D01*
X119737785Y-52822863D01*
X119737781Y-52822860D01*
X119573920Y-52713371D01*
X119573907Y-52713364D01*
X119391839Y-52637950D01*
X119391829Y-52637947D01*
X119198543Y-52599500D01*
X119198541Y-52599500D01*
X119124500Y-52599500D01*
X119057461Y-52579815D01*
X119011706Y-52527011D01*
X119000500Y-52475500D01*
X119000500Y-48601456D01*
X118980434Y-48500583D01*
X118980433Y-48500582D01*
X118979207Y-48494415D01*
X118962051Y-48408164D01*
X118925872Y-48320821D01*
X118886632Y-48226086D01*
X118862327Y-48189711D01*
X118777139Y-48062217D01*
X118634686Y-47919764D01*
X118634655Y-47919735D01*
X116602601Y-45887681D01*
X116569116Y-45826358D01*
X116574100Y-45756666D01*
X116602601Y-45712319D01*
X119027056Y-43287864D01*
X121487320Y-40827599D01*
X121548641Y-40794116D01*
X121618333Y-40799100D01*
X121662680Y-40827601D01*
X122013181Y-41178102D01*
X122046666Y-41239425D01*
X122049500Y-41265783D01*
X122049500Y-41751121D01*
X122049501Y-41751125D01*
X122052399Y-41793886D01*
X122052399Y-41793887D01*
X122077058Y-41893039D01*
X122088436Y-41938794D01*
X122098360Y-41978696D01*
X122182967Y-42149292D01*
X122182969Y-42149295D01*
X122302277Y-42297721D01*
X122302278Y-42297722D01*
X122450704Y-42417030D01*
X122450707Y-42417032D01*
X122621302Y-42501639D01*
X122621303Y-42501639D01*
X122621307Y-42501641D01*
X122806111Y-42547600D01*
X122848877Y-42550500D01*
X123751122Y-42550499D01*
X123793889Y-42547600D01*
X123978693Y-42501641D01*
X124149296Y-42417030D01*
X124297722Y-42297722D01*
X124353353Y-42228514D01*
X124410696Y-42188595D01*
X124480518Y-42186015D01*
X124540651Y-42221594D01*
X124546647Y-42228514D01*
X124602277Y-42297721D01*
X124602278Y-42297722D01*
X124750704Y-42417030D01*
X124750707Y-42417032D01*
X124851252Y-42466897D01*
X124916673Y-42499343D01*
X124927330Y-42504628D01*
X124926380Y-42506542D01*
X124974384Y-42542095D01*
X124999136Y-42607433D01*
X124999499Y-42616914D01*
X124999499Y-42779054D01*
X124999498Y-42779054D01*
X125040423Y-42931785D01*
X125069358Y-42981900D01*
X125069359Y-42981904D01*
X125069360Y-42981904D01*
X125119289Y-43068386D01*
X125119479Y-43068714D01*
X125119481Y-43068717D01*
X125238349Y-43187585D01*
X125238355Y-43187590D01*
X126863181Y-44812416D01*
X126877884Y-44839343D01*
X126894477Y-44865162D01*
X126895368Y-44871362D01*
X126896666Y-44873739D01*
X126899500Y-44900097D01*
X126899500Y-45149902D01*
X126879815Y-45216941D01*
X126863181Y-45237583D01*
X126287582Y-45813181D01*
X126226259Y-45846666D01*
X126199901Y-45849500D01*
X124141971Y-45849500D01*
X124141965Y-45849500D01*
X124141964Y-45849501D01*
X124130316Y-45850536D01*
X124022584Y-45860113D01*
X123826954Y-45916089D01*
X123775231Y-45943107D01*
X123646593Y-46010302D01*
X123646591Y-46010303D01*
X123646590Y-46010304D01*
X123488890Y-46138890D01*
X123360304Y-46296590D01*
X123360302Y-46296593D01*
X123266091Y-46476951D01*
X123213825Y-46659612D01*
X123176459Y-46718648D01*
X123113105Y-46748112D01*
X123094610Y-46749499D01*
X123070943Y-46749499D01*
X122940376Y-46784485D01*
X122918211Y-46790424D01*
X122781287Y-46869477D01*
X122781282Y-46869481D01*
X122199217Y-47451546D01*
X122199214Y-47451548D01*
X122199215Y-47451549D01*
X122094478Y-47556285D01*
X122062756Y-47611231D01*
X122053331Y-47627557D01*
X122033699Y-47661560D01*
X122015767Y-47692620D01*
X122015423Y-47693215D01*
X121974499Y-47845943D01*
X121974499Y-47845945D01*
X121974499Y-48014046D01*
X121974500Y-48014059D01*
X121974500Y-49183480D01*
X121954815Y-49250519D01*
X121938181Y-49271161D01*
X121819531Y-49389810D01*
X121819530Y-49389811D01*
X121731522Y-49535393D01*
X121680913Y-49697807D01*
X121677836Y-49731669D01*
X121674886Y-49764143D01*
X121674500Y-49768386D01*
X121674500Y-50431613D01*
X121680913Y-50502192D01*
X121680913Y-50502194D01*
X121680914Y-50502196D01*
X121731522Y-50664606D01*
X121817587Y-50806975D01*
X121819530Y-50810188D01*
X121939811Y-50930469D01*
X121939813Y-50930470D01*
X121939815Y-50930472D01*
X122085394Y-51018478D01*
X122247804Y-51069086D01*
X122318384Y-51075500D01*
X122318387Y-51075500D01*
X122831613Y-51075500D01*
X122831616Y-51075500D01*
X122902196Y-51069086D01*
X123064606Y-51018478D01*
X123210185Y-50930472D01*
X123253175Y-50887482D01*
X123312319Y-50828339D01*
X123373642Y-50794854D01*
X123443334Y-50799838D01*
X123487681Y-50828339D01*
X123589811Y-50930469D01*
X123589813Y-50930470D01*
X123589815Y-50930472D01*
X123735394Y-51018478D01*
X123897804Y-51069086D01*
X123968384Y-51075500D01*
X123968387Y-51075500D01*
X124481613Y-51075500D01*
X124481616Y-51075500D01*
X124552196Y-51069086D01*
X124714606Y-51018478D01*
X124860185Y-50930472D01*
X124980472Y-50810185D01*
X125010598Y-50760349D01*
X125062126Y-50713162D01*
X125116715Y-50700500D01*
X126227728Y-50700500D01*
X126294767Y-50720185D01*
X126315410Y-50736820D01*
X126367174Y-50788585D01*
X126367178Y-50788588D01*
X126367180Y-50788590D01*
X126508103Y-50871931D01*
X126508104Y-50871931D01*
X126508107Y-50871933D01*
X126665320Y-50917608D01*
X126665323Y-50917608D01*
X126665325Y-50917609D01*
X126702060Y-50920500D01*
X126702068Y-50920500D01*
X127127932Y-50920500D01*
X127127940Y-50920500D01*
X127164675Y-50917609D01*
X127164677Y-50917608D01*
X127164679Y-50917608D01*
X127321892Y-50871933D01*
X127321892Y-50871932D01*
X127321897Y-50871931D01*
X127337367Y-50862781D01*
X127405087Y-50845597D01*
X127463611Y-50862781D01*
X127478297Y-50871466D01*
X127478298Y-50871467D01*
X127635000Y-50916992D01*
X127635000Y-50916991D01*
X128135000Y-50916991D01*
X128291697Y-50871468D01*
X128432508Y-50788193D01*
X128432516Y-50788187D01*
X128548187Y-50672516D01*
X128548193Y-50672508D01*
X128631468Y-50531697D01*
X128631470Y-50531692D01*
X128677109Y-50374603D01*
X128677111Y-50374591D01*
X128679047Y-50350000D01*
X128135000Y-50350000D01*
X128135000Y-50916991D01*
X127635000Y-50916991D01*
X127635000Y-50611357D01*
X127652268Y-50548236D01*
X127661931Y-50531897D01*
X127661932Y-50531893D01*
X127661933Y-50531892D01*
X127707608Y-50374679D01*
X127707609Y-50374673D01*
X127707615Y-50374603D01*
X127710500Y-50337940D01*
X127710500Y-49862060D01*
X127707609Y-49825325D01*
X127705577Y-49818331D01*
X127661932Y-49668104D01*
X127652266Y-49651759D01*
X127635000Y-49588641D01*
X127635000Y-49283006D01*
X128135000Y-49283006D01*
X128135000Y-49850000D01*
X128679046Y-49850000D01*
X128677110Y-49825402D01*
X128631470Y-49668307D01*
X128631468Y-49668302D01*
X128548193Y-49527491D01*
X128548187Y-49527483D01*
X128432516Y-49411812D01*
X128432508Y-49411806D01*
X128291695Y-49328530D01*
X128291692Y-49328528D01*
X128135001Y-49283005D01*
X128135000Y-49283006D01*
X127635000Y-49283006D01*
X127634998Y-49283005D01*
X127478308Y-49328529D01*
X127478301Y-49328532D01*
X127463606Y-49337222D01*
X127395881Y-49354401D01*
X127337370Y-49337220D01*
X127321897Y-49328069D01*
X127321895Y-49328068D01*
X127321891Y-49328066D01*
X127321892Y-49328066D01*
X127164679Y-49282391D01*
X127164673Y-49282390D01*
X127127947Y-49279500D01*
X127127940Y-49279500D01*
X126702060Y-49279500D01*
X126702052Y-49279500D01*
X126665326Y-49282390D01*
X126665320Y-49282391D01*
X126508107Y-49328066D01*
X126508104Y-49328068D01*
X126367182Y-49411408D01*
X126367174Y-49411414D01*
X126315410Y-49463180D01*
X126254087Y-49496666D01*
X126227728Y-49499500D01*
X125116715Y-49499500D01*
X125049676Y-49479815D01*
X125010598Y-49439650D01*
X125000525Y-49422987D01*
X124980472Y-49389815D01*
X124980470Y-49389813D01*
X124980469Y-49389811D01*
X124860188Y-49269530D01*
X124768600Y-49214163D01*
X124714606Y-49181522D01*
X124552196Y-49130914D01*
X124552194Y-49130913D01*
X124552192Y-49130913D01*
X124502778Y-49126423D01*
X124481616Y-49124500D01*
X123968384Y-49124500D01*
X123949145Y-49126248D01*
X123897807Y-49130913D01*
X123735393Y-49181522D01*
X123589811Y-49269530D01*
X123589810Y-49269531D01*
X123487681Y-49371661D01*
X123479735Y-49375999D01*
X123474310Y-49383247D01*
X123449550Y-49392481D01*
X123426358Y-49405146D01*
X123417328Y-49404500D01*
X123408846Y-49407664D01*
X123383025Y-49402047D01*
X123356666Y-49400162D01*
X123347612Y-49394343D01*
X123340573Y-49392812D01*
X123312319Y-49371661D01*
X123211819Y-49271161D01*
X123178334Y-49209838D01*
X123175500Y-49183480D01*
X123175500Y-48525059D01*
X123195185Y-48458020D01*
X123247989Y-48412265D01*
X123317147Y-48402321D01*
X123380703Y-48431346D01*
X123395602Y-48446699D01*
X123488888Y-48561107D01*
X123538373Y-48601456D01*
X123646593Y-48689698D01*
X123826951Y-48783909D01*
X124022582Y-48839886D01*
X124141963Y-48850500D01*
X127058036Y-48850499D01*
X127177418Y-48839886D01*
X127373049Y-48783909D01*
X127553407Y-48689698D01*
X127711109Y-48561109D01*
X127839698Y-48403407D01*
X127933909Y-48223049D01*
X127989886Y-48027418D01*
X128000500Y-47908037D01*
X128000499Y-46791964D01*
X127989886Y-46672582D01*
X127933909Y-46476951D01*
X127866719Y-46348322D01*
X129325001Y-46348322D01*
X129335144Y-46447607D01*
X129388452Y-46608481D01*
X129388457Y-46608492D01*
X129477424Y-46752728D01*
X129477427Y-46752732D01*
X129597267Y-46872572D01*
X129597271Y-46872575D01*
X129741507Y-46961542D01*
X129741518Y-46961547D01*
X129902393Y-47014855D01*
X130001683Y-47024999D01*
X130550000Y-47024999D01*
X130598308Y-47024999D01*
X130598322Y-47024998D01*
X130697607Y-47014855D01*
X130858481Y-46961547D01*
X130858492Y-46961542D01*
X131002728Y-46872575D01*
X131002732Y-46872572D01*
X131062319Y-46812986D01*
X131123642Y-46779501D01*
X131193334Y-46784485D01*
X131237681Y-46812986D01*
X131297267Y-46872572D01*
X131297271Y-46872575D01*
X131441507Y-46961542D01*
X131441518Y-46961547D01*
X131602393Y-47014855D01*
X131701683Y-47024999D01*
X132250000Y-47024999D01*
X132298308Y-47024999D01*
X132298322Y-47024998D01*
X132397607Y-47014855D01*
X132558481Y-46961547D01*
X132558492Y-46961542D01*
X132702728Y-46872575D01*
X132702732Y-46872572D01*
X132822572Y-46752732D01*
X132822575Y-46752728D01*
X132911542Y-46608492D01*
X132911547Y-46608481D01*
X132964855Y-46447606D01*
X132974999Y-46348322D01*
X132975000Y-46348309D01*
X132975000Y-46325000D01*
X132250000Y-46325000D01*
X132250000Y-47024999D01*
X131701683Y-47024999D01*
X131749999Y-47024998D01*
X131750000Y-47024998D01*
X131750000Y-46325000D01*
X130550000Y-46325000D01*
X130550000Y-47024999D01*
X130001683Y-47024999D01*
X130049999Y-47024998D01*
X130050000Y-47024998D01*
X130050000Y-46325000D01*
X129325001Y-46325000D01*
X129325001Y-46348322D01*
X127866719Y-46348322D01*
X127839698Y-46296593D01*
X127756985Y-46195154D01*
X127754991Y-46192417D01*
X127744295Y-46162574D01*
X127731995Y-46133355D01*
X127732593Y-46129924D01*
X127731418Y-46126644D01*
X127738555Y-46095756D01*
X127744004Y-46064526D01*
X127746612Y-46060887D01*
X127747148Y-46058568D01*
X127750884Y-46054926D01*
X127767525Y-46031710D01*
X127830758Y-45968477D01*
X127980520Y-45818716D01*
X128059577Y-45681784D01*
X128100501Y-45529057D01*
X128100501Y-45370942D01*
X128100501Y-45363347D01*
X128100500Y-45363329D01*
X128100500Y-45249500D01*
X128120185Y-45182461D01*
X128172989Y-45136706D01*
X128224500Y-45125500D01*
X129359996Y-45125500D01*
X129427035Y-45145185D01*
X129465535Y-45184404D01*
X129477031Y-45203043D01*
X129486660Y-45212672D01*
X129520145Y-45273995D01*
X129515161Y-45343687D01*
X129486663Y-45388031D01*
X129477428Y-45397265D01*
X129477424Y-45397271D01*
X129388457Y-45541507D01*
X129388452Y-45541518D01*
X129335144Y-45702393D01*
X129325000Y-45801677D01*
X129325000Y-45825000D01*
X132974999Y-45825000D01*
X132974999Y-45801692D01*
X132974998Y-45801677D01*
X132964855Y-45702392D01*
X132911547Y-45541518D01*
X132911542Y-45541507D01*
X132822575Y-45397271D01*
X132822572Y-45397267D01*
X132813339Y-45388034D01*
X132779854Y-45326711D01*
X132784838Y-45257019D01*
X132813343Y-45212668D01*
X132822968Y-45203044D01*
X132912003Y-45058697D01*
X132965349Y-44897708D01*
X132975500Y-44798345D01*
X132975499Y-44251656D01*
X132965349Y-44152292D01*
X132912003Y-43991303D01*
X132911999Y-43991297D01*
X132911998Y-43991294D01*
X132822970Y-43846959D01*
X132822967Y-43846955D01*
X132703044Y-43727032D01*
X132703040Y-43727029D01*
X132558705Y-43638001D01*
X132558699Y-43637998D01*
X132558697Y-43637997D01*
X132558694Y-43637996D01*
X132397709Y-43584651D01*
X132298346Y-43574500D01*
X131701662Y-43574500D01*
X131701644Y-43574501D01*
X131602292Y-43584650D01*
X131602289Y-43584651D01*
X131441305Y-43637996D01*
X131441294Y-43638001D01*
X131296959Y-43727029D01*
X131237681Y-43786307D01*
X131176357Y-43819791D01*
X131106666Y-43814806D01*
X131062319Y-43786307D01*
X131040386Y-43764374D01*
X131003044Y-43727032D01*
X131003041Y-43727030D01*
X131003040Y-43727029D01*
X130858705Y-43638001D01*
X130858699Y-43637998D01*
X130858697Y-43637997D01*
X130858694Y-43637996D01*
X130697709Y-43584651D01*
X130598346Y-43574500D01*
X130001662Y-43574500D01*
X130001644Y-43574501D01*
X129902292Y-43584650D01*
X129902289Y-43584651D01*
X129741305Y-43637996D01*
X129741294Y-43638001D01*
X129596959Y-43727029D01*
X129596955Y-43727032D01*
X129477031Y-43846956D01*
X129465535Y-43865596D01*
X129413588Y-43912321D01*
X129359996Y-43924500D01*
X127725098Y-43924500D01*
X127658059Y-43904815D01*
X127637417Y-43888181D01*
X127037100Y-43287864D01*
X126382165Y-42632930D01*
X126348681Y-42571608D01*
X126353665Y-42501916D01*
X126395537Y-42445983D01*
X126414747Y-42434164D01*
X126449296Y-42417030D01*
X126597722Y-42297722D01*
X126653675Y-42228112D01*
X126711015Y-42188196D01*
X126780837Y-42185616D01*
X126840970Y-42221194D01*
X126846967Y-42228115D01*
X126902632Y-42297366D01*
X126902633Y-42297367D01*
X127050974Y-42416607D01*
X127050977Y-42416609D01*
X127221476Y-42501168D01*
X127406175Y-42547102D01*
X127448903Y-42550000D01*
X127650000Y-42550000D01*
X128150000Y-42550000D01*
X128351097Y-42550000D01*
X128393824Y-42547102D01*
X128578523Y-42501168D01*
X128749022Y-42416609D01*
X128749025Y-42416607D01*
X128897366Y-42297367D01*
X128897367Y-42297366D01*
X129016607Y-42149025D01*
X129016609Y-42149022D01*
X129101168Y-41978523D01*
X129147102Y-41793824D01*
X129150000Y-41751096D01*
X129150000Y-41300000D01*
X128150000Y-41300000D01*
X128150000Y-42550000D01*
X127650000Y-42550000D01*
X127650000Y-41174000D01*
X127669685Y-41106961D01*
X127722489Y-41061206D01*
X127774000Y-41050000D01*
X127900000Y-41050000D01*
X127900000Y-40924000D01*
X127919685Y-40856961D01*
X127972489Y-40811206D01*
X128024000Y-40800000D01*
X129150000Y-40800000D01*
X129150000Y-40424216D01*
X129169685Y-40357177D01*
X129222489Y-40311422D01*
X129291647Y-40301478D01*
X129321447Y-40309653D01*
X129466503Y-40369737D01*
X129606609Y-40397606D01*
X129621153Y-40400499D01*
X129621156Y-40400500D01*
X129621158Y-40400500D01*
X129778844Y-40400500D01*
X129778845Y-40400499D01*
X129933497Y-40369737D01*
X130079179Y-40309394D01*
X130210289Y-40221789D01*
X130321789Y-40110289D01*
X130409394Y-39979179D01*
X130412253Y-39972278D01*
X130440316Y-39904526D01*
X130469737Y-39833497D01*
X130500500Y-39678842D01*
X130500500Y-39521158D01*
X130500500Y-39521155D01*
X130500499Y-39521153D01*
X130497303Y-39505087D01*
X130469737Y-39366503D01*
X130456960Y-39335657D01*
X130409397Y-39220827D01*
X130409390Y-39220814D01*
X130321398Y-39089125D01*
X130300520Y-39022447D01*
X130300500Y-39020234D01*
X130300500Y-38201677D01*
X135775000Y-38201677D01*
X135775000Y-38250000D01*
X136475000Y-38250000D01*
X136475000Y-37050000D01*
X135775001Y-37050000D01*
X135775001Y-37098322D01*
X135785144Y-37197607D01*
X135838452Y-37358481D01*
X135838457Y-37358492D01*
X135927424Y-37502728D01*
X135987014Y-37562319D01*
X136020498Y-37623643D01*
X136015513Y-37693334D01*
X135987014Y-37737681D01*
X135927424Y-37797271D01*
X135838457Y-37941507D01*
X135838452Y-37941518D01*
X135785144Y-38102393D01*
X135775000Y-38201677D01*
X130300500Y-38201677D01*
X130300500Y-36561426D01*
X130301826Y-36556908D01*
X130300836Y-36552305D01*
X130311577Y-36523702D01*
X130318044Y-36501677D01*
X135775000Y-36501677D01*
X135775000Y-36550000D01*
X136475000Y-36550000D01*
X136475000Y-35824999D01*
X136451693Y-35825000D01*
X136451674Y-35825001D01*
X136352392Y-35835144D01*
X136191518Y-35888452D01*
X136191507Y-35888457D01*
X136047271Y-35977424D01*
X136047267Y-35977427D01*
X135927427Y-36097267D01*
X135927424Y-36097271D01*
X135838457Y-36241507D01*
X135838452Y-36241518D01*
X135785144Y-36402393D01*
X135775000Y-36501677D01*
X130318044Y-36501677D01*
X130320185Y-36494387D01*
X130324202Y-36490081D01*
X130325399Y-36486895D01*
X130340518Y-36472596D01*
X130350411Y-36461994D01*
X130352959Y-36460094D01*
X130410289Y-36421789D01*
X130521789Y-36310289D01*
X130609394Y-36179179D01*
X130669737Y-36033497D01*
X130700500Y-35878842D01*
X130700500Y-35721158D01*
X130700500Y-35721155D01*
X130700499Y-35721153D01*
X130686086Y-35648691D01*
X130692313Y-35579100D01*
X130735176Y-35523922D01*
X130801066Y-35500678D01*
X130807703Y-35500500D01*
X140494137Y-35500500D01*
X140561176Y-35520185D01*
X140606931Y-35572989D01*
X140616875Y-35642147D01*
X140593403Y-35698812D01*
X140556647Y-35747910D01*
X140556645Y-35747913D01*
X140506403Y-35882620D01*
X140506401Y-35882627D01*
X140500000Y-35942155D01*
X140500000Y-36190000D01*
X143000000Y-36190000D01*
X143000000Y-35942172D01*
X142999999Y-35942155D01*
X142993598Y-35882627D01*
X142993596Y-35882620D01*
X142943354Y-35747913D01*
X142943352Y-35747910D01*
X142906597Y-35698812D01*
X142882179Y-35633348D01*
X142897030Y-35565075D01*
X142946435Y-35515669D01*
X143005863Y-35500500D01*
X157994137Y-35500500D01*
X158061176Y-35520185D01*
X158106931Y-35572989D01*
X158116875Y-35642147D01*
X158093403Y-35698812D01*
X158056647Y-35747910D01*
X158056645Y-35747913D01*
X158006403Y-35882620D01*
X158006401Y-35882627D01*
X158000000Y-35942155D01*
X158000000Y-36190000D01*
X160500000Y-36190000D01*
X160500000Y-35942172D01*
X160499999Y-35942155D01*
X160493598Y-35882627D01*
X160493596Y-35882620D01*
X160443354Y-35747913D01*
X160443352Y-35747910D01*
X160406597Y-35698812D01*
X160382179Y-35633348D01*
X160397030Y-35565075D01*
X160446435Y-35515669D01*
X160505863Y-35500500D01*
X162434108Y-35500500D01*
X162497295Y-35500500D01*
X162502673Y-35500616D01*
X162508273Y-35500861D01*
X162574390Y-35523441D01*
X162586281Y-35532983D01*
X164962667Y-37693334D01*
X166937050Y-39488228D01*
X166973414Y-39547889D01*
X166976578Y-39563793D01*
X166981671Y-39602472D01*
X166982614Y-39613251D01*
X166999382Y-39997297D01*
X166999500Y-40002706D01*
X166999500Y-62449137D01*
X166979815Y-62516176D01*
X166963181Y-62536818D01*
X162536818Y-66963181D01*
X162475495Y-66996666D01*
X162449137Y-66999500D01*
X110002706Y-66999500D01*
X109997297Y-66999382D01*
X109613250Y-66982614D01*
X109602473Y-66981671D01*
X109431668Y-66959183D01*
X109367772Y-66930916D01*
X109364902Y-66928412D01*
X105662248Y-63596023D01*
X105625588Y-63536547D01*
X105624147Y-63530725D01*
X105570025Y-63286597D01*
X105568152Y-63275971D01*
X105518326Y-62897506D01*
X105517386Y-62886771D01*
X105500618Y-62502702D01*
X105500500Y-62497293D01*
X105500500Y-61797248D01*
X107949500Y-61797248D01*
X107949500Y-62062751D01*
X107949501Y-62062767D01*
X107984156Y-62326001D01*
X108052879Y-62582478D01*
X108154481Y-62827768D01*
X108154489Y-62827785D01*
X108287240Y-63057714D01*
X108287251Y-63057730D01*
X108448879Y-63268368D01*
X108448885Y-63268375D01*
X108636624Y-63456114D01*
X108636631Y-63456120D01*
X108670334Y-63481981D01*
X108847278Y-63617755D01*
X108847285Y-63617759D01*
X109077214Y-63750510D01*
X109077219Y-63750512D01*
X109077222Y-63750514D01*
X109077226Y-63750515D01*
X109077231Y-63750518D01*
X109322522Y-63852120D01*
X109322520Y-63852120D01*
X109322526Y-63852121D01*
X109322527Y-63852122D01*
X109578997Y-63920843D01*
X109842242Y-63955500D01*
X109842249Y-63955500D01*
X110107751Y-63955500D01*
X110107758Y-63955500D01*
X110371003Y-63920843D01*
X110627473Y-63852122D01*
X110872778Y-63750514D01*
X111102722Y-63617755D01*
X111313370Y-63456119D01*
X111501119Y-63268370D01*
X111662755Y-63057722D01*
X111795514Y-62827778D01*
X111897122Y-62582473D01*
X111965843Y-62326003D01*
X112000500Y-62062758D01*
X112000500Y-61797242D01*
X111965843Y-61533997D01*
X111897122Y-61277527D01*
X111893472Y-61268716D01*
X111795518Y-61032231D01*
X111795510Y-61032214D01*
X111662759Y-60802285D01*
X111662755Y-60802278D01*
X111553562Y-60659975D01*
X111501120Y-60591631D01*
X111501114Y-60591624D01*
X111313375Y-60403885D01*
X111313368Y-60403879D01*
X111102730Y-60242251D01*
X111102728Y-60242249D01*
X111102722Y-60242245D01*
X111102717Y-60242242D01*
X111102714Y-60242240D01*
X110872785Y-60109489D01*
X110872768Y-60109481D01*
X110627477Y-60007879D01*
X110627479Y-60007879D01*
X110371001Y-59939156D01*
X110107767Y-59904501D01*
X110107764Y-59904500D01*
X110107758Y-59904500D01*
X109842242Y-59904500D01*
X109842236Y-59904500D01*
X109842232Y-59904501D01*
X109578998Y-59939156D01*
X109322521Y-60007879D01*
X109077231Y-60109481D01*
X109077214Y-60109489D01*
X108847285Y-60242240D01*
X108847269Y-60242251D01*
X108636631Y-60403879D01*
X108636624Y-60403885D01*
X108448885Y-60591624D01*
X108448879Y-60591631D01*
X108287251Y-60802269D01*
X108287240Y-60802285D01*
X108154489Y-61032214D01*
X108154481Y-61032231D01*
X108052879Y-61277521D01*
X107984156Y-61533998D01*
X107949501Y-61797232D01*
X107949500Y-61797248D01*
X105500500Y-61797248D01*
X105500500Y-55827313D01*
X105807000Y-55827313D01*
X105807000Y-56082686D01*
X105825285Y-56221569D01*
X105840331Y-56335851D01*
X105906422Y-56582507D01*
X105906425Y-56582517D01*
X106004141Y-56818423D01*
X106004143Y-56818427D01*
X106131822Y-57039573D01*
X106131825Y-57039578D01*
X106131827Y-57039580D01*
X106287271Y-57242160D01*
X106287277Y-57242167D01*
X106467832Y-57422722D01*
X106467839Y-57422728D01*
X106669938Y-57577803D01*
X106670427Y-57578178D01*
X106891573Y-57705857D01*
X107024977Y-57761115D01*
X107105085Y-57794297D01*
X107127492Y-57803578D01*
X107374149Y-57869669D01*
X107627321Y-57903000D01*
X107627328Y-57903000D01*
X107882672Y-57903000D01*
X107882679Y-57903000D01*
X108135851Y-57869669D01*
X108382508Y-57803578D01*
X108618427Y-57705857D01*
X108839573Y-57578178D01*
X109042162Y-57422727D01*
X109222727Y-57242162D01*
X109378178Y-57039573D01*
X109505857Y-56818427D01*
X109603578Y-56582508D01*
X109669669Y-56335851D01*
X109703000Y-56082679D01*
X109703000Y-55827321D01*
X109702999Y-55827313D01*
X110257000Y-55827313D01*
X110257000Y-56082686D01*
X110275285Y-56221569D01*
X110290331Y-56335851D01*
X110356422Y-56582507D01*
X110356425Y-56582517D01*
X110454141Y-56818423D01*
X110454143Y-56818427D01*
X110581822Y-57039573D01*
X110581825Y-57039578D01*
X110581827Y-57039580D01*
X110737271Y-57242160D01*
X110737277Y-57242167D01*
X110917832Y-57422722D01*
X110917839Y-57422728D01*
X111119938Y-57577803D01*
X111120427Y-57578178D01*
X111341573Y-57705857D01*
X111474977Y-57761115D01*
X111555085Y-57794297D01*
X111577492Y-57803578D01*
X111824149Y-57869669D01*
X112077321Y-57903000D01*
X112077328Y-57903000D01*
X112332672Y-57903000D01*
X112332679Y-57903000D01*
X112585851Y-57869669D01*
X112832508Y-57803578D01*
X113068427Y-57705857D01*
X113289573Y-57578178D01*
X113492162Y-57422727D01*
X113672727Y-57242162D01*
X113828178Y-57039573D01*
X113955857Y-56818427D01*
X114053578Y-56582508D01*
X114119669Y-56335851D01*
X114153000Y-56082679D01*
X114153000Y-55827321D01*
X114119669Y-55574149D01*
X114053578Y-55327492D01*
X114045316Y-55307547D01*
X113955858Y-55091576D01*
X113955857Y-55091573D01*
X113828178Y-54870427D01*
X113804680Y-54839803D01*
X113672728Y-54667839D01*
X113672722Y-54667832D01*
X113492167Y-54487277D01*
X113492160Y-54487271D01*
X113289580Y-54331827D01*
X113289578Y-54331825D01*
X113289573Y-54331822D01*
X113068427Y-54204143D01*
X113068423Y-54204141D01*
X112832517Y-54106425D01*
X112832510Y-54106423D01*
X112832508Y-54106422D01*
X112585851Y-54040331D01*
X112543541Y-54034760D01*
X112332686Y-54007000D01*
X112332679Y-54007000D01*
X112077321Y-54007000D01*
X112077313Y-54007000D01*
X111836335Y-54038726D01*
X111824149Y-54040331D01*
X111698841Y-54073907D01*
X111577492Y-54106422D01*
X111577482Y-54106425D01*
X111341576Y-54204141D01*
X111341572Y-54204143D01*
X111283303Y-54237785D01*
X111120427Y-54331822D01*
X111120424Y-54331823D01*
X111120419Y-54331827D01*
X110917839Y-54487271D01*
X110917832Y-54487277D01*
X110737277Y-54667832D01*
X110737271Y-54667839D01*
X110581827Y-54870419D01*
X110454143Y-55091572D01*
X110454141Y-55091576D01*
X110356425Y-55327482D01*
X110356422Y-55327492D01*
X110290331Y-55574149D01*
X110290330Y-55574157D01*
X110257000Y-55827313D01*
X109702999Y-55827313D01*
X109669669Y-55574149D01*
X109603578Y-55327492D01*
X109595316Y-55307547D01*
X109505858Y-55091576D01*
X109505857Y-55091573D01*
X109378178Y-54870427D01*
X109354680Y-54839803D01*
X109222728Y-54667839D01*
X109222722Y-54667832D01*
X109042167Y-54487277D01*
X109042160Y-54487271D01*
X108839580Y-54331827D01*
X108839578Y-54331825D01*
X108839573Y-54331822D01*
X108618427Y-54204143D01*
X108618423Y-54204141D01*
X108382517Y-54106425D01*
X108382510Y-54106423D01*
X108382508Y-54106422D01*
X108135851Y-54040331D01*
X108093541Y-54034760D01*
X107882686Y-54007000D01*
X107882679Y-54007000D01*
X107627321Y-54007000D01*
X107627313Y-54007000D01*
X107386335Y-54038726D01*
X107374149Y-54040331D01*
X107248841Y-54073907D01*
X107127492Y-54106422D01*
X107127482Y-54106425D01*
X106891576Y-54204141D01*
X106891572Y-54204143D01*
X106833303Y-54237785D01*
X106670427Y-54331822D01*
X106670424Y-54331823D01*
X106670419Y-54331827D01*
X106467839Y-54487271D01*
X106467832Y-54487277D01*
X106287277Y-54667832D01*
X106287271Y-54667839D01*
X106131827Y-54870419D01*
X106004143Y-55091572D01*
X106004141Y-55091576D01*
X105906425Y-55327482D01*
X105906422Y-55327492D01*
X105840331Y-55574149D01*
X105840330Y-55574157D01*
X105807000Y-55827313D01*
X105500500Y-55827313D01*
X105500500Y-51387313D01*
X105807000Y-51387313D01*
X105807000Y-51642686D01*
X105827248Y-51796480D01*
X105840331Y-51895851D01*
X105906422Y-52142507D01*
X105906425Y-52142517D01*
X106004054Y-52378213D01*
X106004143Y-52378427D01*
X106131822Y-52599573D01*
X106131825Y-52599578D01*
X106131827Y-52599580D01*
X106287271Y-52802160D01*
X106287277Y-52802167D01*
X106467832Y-52982722D01*
X106467839Y-52982728D01*
X106630424Y-53107483D01*
X106670427Y-53138178D01*
X106891573Y-53265857D01*
X107005608Y-53313092D01*
X107112924Y-53357544D01*
X107127492Y-53363578D01*
X107374149Y-53429669D01*
X107627321Y-53463000D01*
X107627328Y-53463000D01*
X107882672Y-53463000D01*
X107882679Y-53463000D01*
X108135851Y-53429669D01*
X108382508Y-53363578D01*
X108618427Y-53265857D01*
X108839573Y-53138178D01*
X109042162Y-52982727D01*
X109068981Y-52955908D01*
X109103047Y-52921843D01*
X109222722Y-52802167D01*
X109222727Y-52802162D01*
X109378178Y-52599573D01*
X109505857Y-52378427D01*
X109603578Y-52142508D01*
X109669669Y-51895851D01*
X109703000Y-51642679D01*
X109703000Y-51387360D01*
X110257500Y-51387360D01*
X110257500Y-51642639D01*
X110257501Y-51642656D01*
X110290820Y-51895743D01*
X110290823Y-51895756D01*
X110356896Y-52142346D01*
X110356899Y-52142356D01*
X110454590Y-52378202D01*
X110454595Y-52378213D01*
X110582233Y-52599287D01*
X110582239Y-52599295D01*
X110662522Y-52703922D01*
X111367659Y-51998785D01*
X111455436Y-52130152D01*
X111589848Y-52264564D01*
X111721213Y-52352339D01*
X111016076Y-53057476D01*
X111120704Y-53137760D01*
X111120712Y-53137766D01*
X111341786Y-53265404D01*
X111341797Y-53265409D01*
X111577643Y-53363100D01*
X111577653Y-53363103D01*
X111824243Y-53429176D01*
X111824256Y-53429179D01*
X112077343Y-53462498D01*
X112077361Y-53462500D01*
X112332639Y-53462500D01*
X112332656Y-53462498D01*
X112585743Y-53429179D01*
X112585756Y-53429176D01*
X112832346Y-53363103D01*
X112832356Y-53363100D01*
X113068202Y-53265409D01*
X113068213Y-53265404D01*
X113289287Y-53137766D01*
X113289305Y-53137754D01*
X113393922Y-53057477D01*
X113393922Y-53057475D01*
X112688787Y-52352339D01*
X112820152Y-52264564D01*
X112954564Y-52130152D01*
X113042339Y-51998786D01*
X113747475Y-52703922D01*
X113747477Y-52703922D01*
X113827754Y-52599305D01*
X113827766Y-52599287D01*
X113955404Y-52378213D01*
X113955409Y-52378202D01*
X114053100Y-52142356D01*
X114053103Y-52142346D01*
X114119176Y-51895756D01*
X114119179Y-51895743D01*
X114152498Y-51642656D01*
X114152500Y-51642639D01*
X114152500Y-51387360D01*
X114152498Y-51387343D01*
X114119179Y-51134256D01*
X114119176Y-51134243D01*
X114053103Y-50887653D01*
X114053100Y-50887643D01*
X113955409Y-50651797D01*
X113955404Y-50651786D01*
X113827766Y-50430712D01*
X113827760Y-50430704D01*
X113747476Y-50326076D01*
X113042339Y-51031212D01*
X112954564Y-50899848D01*
X112820152Y-50765436D01*
X112688786Y-50677659D01*
X113393922Y-49972522D01*
X113289295Y-49892239D01*
X113289287Y-49892233D01*
X113068213Y-49764595D01*
X113068202Y-49764590D01*
X112832356Y-49666899D01*
X112832346Y-49666896D01*
X112585756Y-49600823D01*
X112585743Y-49600820D01*
X112332656Y-49567501D01*
X112332639Y-49567500D01*
X112077361Y-49567500D01*
X112077343Y-49567501D01*
X111824256Y-49600820D01*
X111824243Y-49600823D01*
X111577653Y-49666896D01*
X111577643Y-49666899D01*
X111341797Y-49764590D01*
X111341786Y-49764595D01*
X111120705Y-49892237D01*
X111016076Y-49972521D01*
X111016076Y-49972522D01*
X111721213Y-50677659D01*
X111589848Y-50765436D01*
X111455436Y-50899848D01*
X111367659Y-51031213D01*
X110662522Y-50326076D01*
X110662521Y-50326076D01*
X110582237Y-50430705D01*
X110454595Y-50651786D01*
X110454590Y-50651797D01*
X110356899Y-50887643D01*
X110356896Y-50887653D01*
X110290823Y-51134243D01*
X110290820Y-51134256D01*
X110257501Y-51387343D01*
X110257500Y-51387360D01*
X109703000Y-51387360D01*
X109703000Y-51387321D01*
X109669669Y-51134149D01*
X109603578Y-50887492D01*
X109597132Y-50871931D01*
X109545347Y-50746910D01*
X109505857Y-50651573D01*
X109378178Y-50430427D01*
X109222727Y-50227838D01*
X109222722Y-50227832D01*
X109042167Y-50047277D01*
X109042160Y-50047271D01*
X108839580Y-49891827D01*
X108839578Y-49891825D01*
X108839573Y-49891822D01*
X108618427Y-49764143D01*
X108618423Y-49764141D01*
X108382517Y-49666425D01*
X108382510Y-49666423D01*
X108382508Y-49666422D01*
X108135851Y-49600331D01*
X108093541Y-49594760D01*
X107882686Y-49567000D01*
X107882679Y-49567000D01*
X107627321Y-49567000D01*
X107627313Y-49567000D01*
X107386335Y-49598726D01*
X107374149Y-49600331D01*
X107234028Y-49637876D01*
X107127492Y-49666422D01*
X107127482Y-49666425D01*
X106891576Y-49764141D01*
X106891572Y-49764143D01*
X106758366Y-49841050D01*
X106670427Y-49891822D01*
X106670424Y-49891823D01*
X106670419Y-49891827D01*
X106467839Y-50047271D01*
X106467832Y-50047277D01*
X106287277Y-50227832D01*
X106287271Y-50227839D01*
X106131827Y-50430419D01*
X106131823Y-50430424D01*
X106131822Y-50430427D01*
X106131136Y-50431616D01*
X106004143Y-50651572D01*
X106004141Y-50651576D01*
X105906425Y-50887482D01*
X105906422Y-50887492D01*
X105843448Y-51122518D01*
X105840332Y-51134146D01*
X105840330Y-51134157D01*
X105807000Y-51387313D01*
X105500500Y-51387313D01*
X105500500Y-46937313D01*
X105807000Y-46937313D01*
X105807000Y-47192686D01*
X105830624Y-47372123D01*
X105840331Y-47445851D01*
X105889019Y-47627557D01*
X105906422Y-47692507D01*
X105906425Y-47692517D01*
X106001836Y-47922858D01*
X106004143Y-47928427D01*
X106131822Y-48149573D01*
X106131825Y-48149578D01*
X106131827Y-48149580D01*
X106287271Y-48352160D01*
X106287277Y-48352167D01*
X106467832Y-48532722D01*
X106467839Y-48532728D01*
X106610412Y-48642127D01*
X106670427Y-48688178D01*
X106891573Y-48815857D01*
X107127492Y-48913578D01*
X107374149Y-48979669D01*
X107615134Y-49011395D01*
X107627305Y-49012998D01*
X107627321Y-49013000D01*
X107627328Y-49013000D01*
X107882672Y-49013000D01*
X107882679Y-49013000D01*
X108135851Y-48979669D01*
X108382508Y-48913578D01*
X108618427Y-48815857D01*
X108839573Y-48688178D01*
X109042162Y-48532727D01*
X109222727Y-48352162D01*
X109378178Y-48149573D01*
X109505857Y-47928427D01*
X109603578Y-47692508D01*
X109669669Y-47445851D01*
X109703000Y-47192679D01*
X109703000Y-46937321D01*
X109669669Y-46684149D01*
X109603578Y-46437492D01*
X109505857Y-46201573D01*
X109378178Y-45980427D01*
X109347466Y-45940402D01*
X109222728Y-45777839D01*
X109222722Y-45777832D01*
X109042167Y-45597277D01*
X109042160Y-45597271D01*
X108839580Y-45441827D01*
X108839578Y-45441825D01*
X108839573Y-45441822D01*
X108618427Y-45314143D01*
X108618423Y-45314141D01*
X108382517Y-45216425D01*
X108382510Y-45216423D01*
X108382508Y-45216422D01*
X108135851Y-45150331D01*
X108093541Y-45144760D01*
X107882686Y-45117000D01*
X107882679Y-45117000D01*
X107627321Y-45117000D01*
X107627313Y-45117000D01*
X107413236Y-45145185D01*
X107374149Y-45150331D01*
X107249393Y-45183759D01*
X107127492Y-45216422D01*
X107127482Y-45216425D01*
X106891576Y-45314141D01*
X106891572Y-45314143D01*
X106763590Y-45388034D01*
X106670427Y-45441822D01*
X106670424Y-45441823D01*
X106670419Y-45441827D01*
X106467839Y-45597271D01*
X106467832Y-45597277D01*
X106287277Y-45777832D01*
X106287271Y-45777839D01*
X106131827Y-45980419D01*
X106131823Y-45980424D01*
X106131822Y-45980427D01*
X106109502Y-46019086D01*
X106004143Y-46201572D01*
X106004141Y-46201576D01*
X105906425Y-46437482D01*
X105906422Y-46437492D01*
X105843431Y-46672582D01*
X105840332Y-46684146D01*
X105840330Y-46684157D01*
X105807000Y-46937313D01*
X105500500Y-46937313D01*
X105500500Y-40967248D01*
X107949500Y-40967248D01*
X107949500Y-41232751D01*
X107949501Y-41232767D01*
X107984156Y-41496001D01*
X108052879Y-41752478D01*
X108154481Y-41997768D01*
X108154489Y-41997785D01*
X108287240Y-42227714D01*
X108287251Y-42227730D01*
X108448879Y-42438368D01*
X108448885Y-42438375D01*
X108636624Y-42626114D01*
X108636631Y-42626120D01*
X108786633Y-42741221D01*
X108847278Y-42787755D01*
X108861727Y-42796097D01*
X109077214Y-42920510D01*
X109077219Y-42920512D01*
X109077222Y-42920514D01*
X109077226Y-42920515D01*
X109077231Y-42920518D01*
X109322522Y-43022120D01*
X109322520Y-43022120D01*
X109322526Y-43022121D01*
X109322527Y-43022122D01*
X109578997Y-43090843D01*
X109842242Y-43125500D01*
X109842249Y-43125500D01*
X110107751Y-43125500D01*
X110107758Y-43125500D01*
X110371003Y-43090843D01*
X110627473Y-43022122D01*
X110872778Y-42920514D01*
X111102722Y-42787755D01*
X111313370Y-42626119D01*
X111501119Y-42438370D01*
X111662755Y-42227722D01*
X111795514Y-41997778D01*
X111891630Y-41765732D01*
X111897120Y-41752478D01*
X111897120Y-41752477D01*
X111897122Y-41752473D01*
X111965843Y-41496003D01*
X112000500Y-41232758D01*
X112000500Y-40967242D01*
X111965843Y-40703997D01*
X111897122Y-40447527D01*
X111894325Y-40440775D01*
X111795518Y-40202231D01*
X111795510Y-40202214D01*
X111662759Y-39972285D01*
X111662755Y-39972278D01*
X111556265Y-39833497D01*
X111501120Y-39761631D01*
X111501114Y-39761624D01*
X111313375Y-39573885D01*
X111313368Y-39573879D01*
X111102730Y-39412251D01*
X111102728Y-39412249D01*
X111102722Y-39412245D01*
X111102717Y-39412242D01*
X111102714Y-39412240D01*
X110872785Y-39279489D01*
X110872768Y-39279481D01*
X110627477Y-39177879D01*
X110627479Y-39177879D01*
X110371001Y-39109156D01*
X110107767Y-39074501D01*
X110107764Y-39074500D01*
X110107758Y-39074500D01*
X109842242Y-39074500D01*
X109842236Y-39074500D01*
X109842232Y-39074501D01*
X109578998Y-39109156D01*
X109322521Y-39177879D01*
X109077231Y-39279481D01*
X109077214Y-39279489D01*
X108847285Y-39412240D01*
X108847269Y-39412251D01*
X108636631Y-39573879D01*
X108636624Y-39573885D01*
X108448885Y-39761624D01*
X108448879Y-39761631D01*
X108287251Y-39972269D01*
X108287240Y-39972285D01*
X108154489Y-40202214D01*
X108154481Y-40202231D01*
X108052879Y-40447521D01*
X107984156Y-40703998D01*
X107949501Y-40967232D01*
X107949500Y-40967248D01*
X105500500Y-40967248D01*
X105500500Y-40002706D01*
X105500618Y-39997297D01*
X105502652Y-39950704D01*
X105517387Y-39613224D01*
X105518325Y-39602497D01*
X105531150Y-39505083D01*
X105559415Y-39441190D01*
X105566383Y-39433616D01*
X109433595Y-35566404D01*
X109494914Y-35532922D01*
X109505059Y-35531153D01*
X109602497Y-35518325D01*
X109613224Y-35517387D01*
X109997297Y-35500617D01*
X110002706Y-35500500D01*
X110065892Y-35500500D01*
X121492481Y-35500500D01*
X121559520Y-35520185D01*
G37*
%TD.AperFunction*%
%TA.AperFunction,Conductor*%
G36*
X155555098Y-39600185D02*
G01*
X155600853Y-39652989D01*
X155610797Y-39722147D01*
X155581772Y-39785703D01*
X155579478Y-39788165D01*
X155578210Y-39789711D01*
X155490609Y-39920814D01*
X155490602Y-39920827D01*
X155430264Y-40066498D01*
X155430261Y-40066510D01*
X155399500Y-40221153D01*
X155399500Y-40378846D01*
X155430261Y-40533489D01*
X155430264Y-40533501D01*
X155490602Y-40679172D01*
X155490609Y-40679185D01*
X155578210Y-40810288D01*
X155578213Y-40810292D01*
X155689707Y-40921786D01*
X155689711Y-40921789D01*
X155820814Y-41009390D01*
X155820827Y-41009397D01*
X155927182Y-41053450D01*
X155966503Y-41069737D01*
X156121153Y-41100499D01*
X156121156Y-41100500D01*
X156121158Y-41100500D01*
X156278844Y-41100500D01*
X156278845Y-41100499D01*
X156433497Y-41069737D01*
X156579179Y-41009394D01*
X156710289Y-40921789D01*
X156821789Y-40810289D01*
X156909394Y-40679179D01*
X156969737Y-40533497D01*
X156990003Y-40431616D01*
X157000638Y-40378150D01*
X157033023Y-40316239D01*
X157034518Y-40314716D01*
X157732416Y-39616819D01*
X157759343Y-39602115D01*
X157785162Y-39585523D01*
X157791362Y-39584631D01*
X157793739Y-39583334D01*
X157820097Y-39580500D01*
X157879906Y-39580500D01*
X157946945Y-39600185D01*
X157992700Y-39652989D01*
X158003195Y-39717752D01*
X157999500Y-39752127D01*
X157999500Y-39752128D01*
X157999500Y-39752132D01*
X157999500Y-40747870D01*
X157999501Y-40747876D01*
X158005908Y-40807481D01*
X158018659Y-40841669D01*
X158023642Y-40911361D01*
X158018659Y-40928331D01*
X158005908Y-40962518D01*
X157999892Y-41018478D01*
X157999501Y-41022123D01*
X157999500Y-41022135D01*
X157999500Y-42017870D01*
X157999501Y-42017876D01*
X158005908Y-42077481D01*
X158018659Y-42111669D01*
X158023642Y-42181361D01*
X158018659Y-42198331D01*
X158005908Y-42232518D01*
X157999744Y-42289859D01*
X157999501Y-42292123D01*
X157999500Y-42292135D01*
X157999500Y-43287870D01*
X157999501Y-43287876D01*
X158005908Y-43347481D01*
X158018659Y-43381669D01*
X158023642Y-43451361D01*
X158018659Y-43468331D01*
X158005908Y-43502518D01*
X158004538Y-43515264D01*
X157999501Y-43562123D01*
X157999500Y-43562135D01*
X157999500Y-44557870D01*
X157999679Y-44561195D01*
X157998133Y-44561277D01*
X157986797Y-44624019D01*
X157939173Y-44675144D01*
X157871469Y-44692406D01*
X157805181Y-44670324D01*
X157788246Y-44656167D01*
X157710292Y-44578213D01*
X157710288Y-44578210D01*
X157579185Y-44490609D01*
X157579172Y-44490602D01*
X157433501Y-44430264D01*
X157433489Y-44430261D01*
X157278845Y-44399500D01*
X157278842Y-44399500D01*
X157121158Y-44399500D01*
X157121155Y-44399500D01*
X156966510Y-44430261D01*
X156966498Y-44430264D01*
X156820827Y-44490602D01*
X156820814Y-44490609D01*
X156689711Y-44578210D01*
X156689707Y-44578213D01*
X156578213Y-44689707D01*
X156578210Y-44689711D01*
X156490609Y-44820814D01*
X156490602Y-44820827D01*
X156430264Y-44966498D01*
X156430261Y-44966508D01*
X156399362Y-45121848D01*
X156366977Y-45183759D01*
X156365426Y-45185337D01*
X151777584Y-49773181D01*
X151716261Y-49806666D01*
X151689903Y-49809500D01*
X143120094Y-49809500D01*
X143053055Y-49789815D01*
X143007300Y-49737011D01*
X142996804Y-49672246D01*
X143000500Y-49637873D01*
X143000499Y-48642128D01*
X142994091Y-48582517D01*
X142981340Y-48548332D01*
X142976357Y-48478642D01*
X142981340Y-48461669D01*
X142994091Y-48427483D01*
X143000500Y-48367873D01*
X143000499Y-47372128D01*
X142994091Y-47312517D01*
X142981340Y-47278332D01*
X142976357Y-47208642D01*
X142981340Y-47191669D01*
X142994091Y-47157483D01*
X143000500Y-47097873D01*
X143000499Y-46102128D01*
X142994091Y-46042517D01*
X142981340Y-46008332D01*
X142976357Y-45938642D01*
X142981338Y-45921672D01*
X142994091Y-45887483D01*
X143000500Y-45827873D01*
X143000499Y-44832128D01*
X142994091Y-44772517D01*
X142981340Y-44738332D01*
X142976357Y-44668642D01*
X142981338Y-44651672D01*
X142994091Y-44617483D01*
X143000500Y-44557873D01*
X143000499Y-43562128D01*
X142994091Y-43502517D01*
X142981340Y-43468332D01*
X142976357Y-43398642D01*
X142981340Y-43381669D01*
X142994091Y-43347483D01*
X143000500Y-43287873D01*
X143000499Y-42292128D01*
X142994091Y-42232517D01*
X142981340Y-42198332D01*
X142976357Y-42128642D01*
X142981341Y-42111667D01*
X142994091Y-42077483D01*
X143000500Y-42017873D01*
X143000499Y-41022128D01*
X142994091Y-40962517D01*
X142981340Y-40928332D01*
X142976357Y-40858642D01*
X142981340Y-40841669D01*
X142994091Y-40807483D01*
X143000500Y-40747873D01*
X143000499Y-39752128D01*
X142996804Y-39717753D01*
X143009211Y-39648994D01*
X143056822Y-39597857D01*
X143120094Y-39580500D01*
X155488059Y-39580500D01*
X155555098Y-39600185D01*
G37*
%TD.AperFunction*%
%TA.AperFunction,Conductor*%
G36*
X160657370Y-45855120D02*
G01*
X160685600Y-45876258D01*
X160689811Y-45880469D01*
X160689813Y-45880470D01*
X160689815Y-45880472D01*
X160835394Y-45968478D01*
X160997804Y-46019086D01*
X161068384Y-46025500D01*
X161524903Y-46025500D01*
X161591942Y-46045185D01*
X161612584Y-46061819D01*
X162215139Y-46664374D01*
X162215149Y-46664385D01*
X162219479Y-46668715D01*
X162219480Y-46668716D01*
X162331284Y-46780520D01*
X162331286Y-46780521D01*
X162331290Y-46780524D01*
X162391869Y-46815499D01*
X162391874Y-46815501D01*
X162468209Y-46859574D01*
X162468210Y-46859575D01*
X162468212Y-46859575D01*
X162468215Y-46859577D01*
X162620943Y-46900501D01*
X162620946Y-46900501D01*
X162786653Y-46900501D01*
X162786669Y-46900500D01*
X163599903Y-46900500D01*
X163629343Y-46909144D01*
X163659330Y-46915668D01*
X163664345Y-46919422D01*
X163666942Y-46920185D01*
X163687584Y-46936819D01*
X163838584Y-47087819D01*
X163872069Y-47149142D01*
X163867085Y-47218834D01*
X163825213Y-47274767D01*
X163759749Y-47299184D01*
X163750903Y-47299500D01*
X163327129Y-47299500D01*
X163327123Y-47299501D01*
X163267516Y-47305908D01*
X163132671Y-47356202D01*
X163132664Y-47356206D01*
X163017455Y-47442452D01*
X163017452Y-47442455D01*
X162931206Y-47557664D01*
X162931203Y-47557669D01*
X162899066Y-47643834D01*
X162885795Y-47661560D01*
X162876597Y-47681703D01*
X162865265Y-47688985D01*
X162857194Y-47699767D01*
X162836448Y-47707504D01*
X162817819Y-47719477D01*
X162795900Y-47722628D01*
X162791730Y-47724184D01*
X162782884Y-47724500D01*
X162568139Y-47724500D01*
X162501100Y-47704815D01*
X162455345Y-47652011D01*
X162444781Y-47613102D01*
X162439855Y-47564892D01*
X162386547Y-47404018D01*
X162386542Y-47404007D01*
X162297575Y-47259771D01*
X162297572Y-47259767D01*
X162177732Y-47139927D01*
X162177728Y-47139924D01*
X162033492Y-47050957D01*
X162033481Y-47050952D01*
X161872606Y-46997644D01*
X161773322Y-46987500D01*
X161725000Y-46987500D01*
X161725000Y-47813500D01*
X161705315Y-47880539D01*
X161652511Y-47926294D01*
X161601000Y-47937500D01*
X161349000Y-47937500D01*
X161281961Y-47917815D01*
X161236206Y-47865011D01*
X161225000Y-47813500D01*
X161225000Y-46987500D01*
X161224999Y-46987499D01*
X161176693Y-46987500D01*
X161176675Y-46987501D01*
X161077392Y-46997644D01*
X160916518Y-47050952D01*
X160916507Y-47050957D01*
X160772271Y-47139924D01*
X160711239Y-47200956D01*
X160649915Y-47234440D01*
X160580224Y-47229455D01*
X160524290Y-47187584D01*
X160499874Y-47122119D01*
X160500268Y-47100023D01*
X160500500Y-47097873D01*
X160500499Y-46102128D01*
X160494091Y-46042517D01*
X160481340Y-46008332D01*
X160479454Y-45981960D01*
X160473841Y-45956127D01*
X160476676Y-45943107D01*
X160476357Y-45938642D01*
X160481351Y-45921641D01*
X160481747Y-45920580D01*
X160523631Y-45864655D01*
X160589100Y-45840253D01*
X160657370Y-45855120D01*
G37*
%TD.AperFunction*%
%TA.AperFunction,Conductor*%
G36*
X160652397Y-37584131D02*
G01*
X160663659Y-37584534D01*
X160683608Y-37598385D01*
X160705702Y-37608475D01*
X160713283Y-37618988D01*
X160721051Y-37624382D01*
X160739060Y-37654736D01*
X160790602Y-37779172D01*
X160790609Y-37779185D01*
X160878210Y-37910288D01*
X160878213Y-37910292D01*
X160989707Y-38021786D01*
X160989711Y-38021789D01*
X161120814Y-38109390D01*
X161120827Y-38109397D01*
X161221033Y-38150903D01*
X161266503Y-38169737D01*
X161331147Y-38182595D01*
X161421849Y-38200638D01*
X161483760Y-38233023D01*
X161485339Y-38234574D01*
X162835502Y-39584737D01*
X162868987Y-39646060D01*
X162864003Y-39715752D01*
X162856658Y-39731836D01*
X162856205Y-39732664D01*
X162805908Y-39867517D01*
X162800178Y-39920821D01*
X162799500Y-39927127D01*
X162799500Y-40447527D01*
X162799501Y-40850500D01*
X162779817Y-40917539D01*
X162727013Y-40963294D01*
X162675501Y-40974500D01*
X162340004Y-40974500D01*
X162336317Y-40973417D01*
X162332573Y-40974277D01*
X162303058Y-40963651D01*
X162272965Y-40954815D01*
X162269400Y-40951534D01*
X162266833Y-40950610D01*
X162257917Y-40940965D01*
X162241593Y-40925941D01*
X162237771Y-40920955D01*
X162222968Y-40896956D01*
X162207568Y-40881556D01*
X162202609Y-40875087D01*
X162192844Y-40849793D01*
X162179854Y-40826004D01*
X162180448Y-40817686D01*
X162177445Y-40809906D01*
X162182904Y-40783350D01*
X162184838Y-40756312D01*
X162190167Y-40748019D01*
X162191515Y-40741467D01*
X162199880Y-40732908D01*
X162213345Y-40711959D01*
X162222573Y-40702731D01*
X162311542Y-40558492D01*
X162311547Y-40558481D01*
X162364855Y-40397606D01*
X162374999Y-40298322D01*
X162375000Y-40298309D01*
X162375000Y-40275000D01*
X161524000Y-40275000D01*
X161456961Y-40255315D01*
X161411206Y-40202511D01*
X161400000Y-40151000D01*
X161400000Y-40025000D01*
X161274000Y-40025000D01*
X161206961Y-40005315D01*
X161161206Y-39952511D01*
X161150000Y-39901000D01*
X161150000Y-39775000D01*
X161650000Y-39775000D01*
X162374999Y-39775000D01*
X162374999Y-39751692D01*
X162374998Y-39751677D01*
X162364855Y-39652392D01*
X162311547Y-39491518D01*
X162311542Y-39491507D01*
X162222575Y-39347271D01*
X162222572Y-39347267D01*
X162102732Y-39227427D01*
X162102728Y-39227424D01*
X161958492Y-39138457D01*
X161958481Y-39138452D01*
X161797606Y-39085144D01*
X161698322Y-39075000D01*
X161650000Y-39075000D01*
X161650000Y-39775000D01*
X161150000Y-39775000D01*
X161150000Y-39075000D01*
X161149999Y-39074999D01*
X161101693Y-39075000D01*
X161101675Y-39075001D01*
X161002392Y-39085144D01*
X160841518Y-39138452D01*
X160841507Y-39138457D01*
X160691121Y-39231218D01*
X160689684Y-39228889D01*
X160636572Y-39250296D01*
X160567934Y-39237232D01*
X160517256Y-39189134D01*
X160500499Y-39126887D01*
X160500499Y-38482128D01*
X160494091Y-38422517D01*
X160481340Y-38388332D01*
X160476357Y-38318642D01*
X160481338Y-38301672D01*
X160494091Y-38267483D01*
X160500500Y-38207873D01*
X160500499Y-37702186D01*
X160503673Y-37691375D01*
X160502469Y-37680171D01*
X160513340Y-37658452D01*
X160520183Y-37635149D01*
X160528699Y-37627769D01*
X160533744Y-37617692D01*
X160554631Y-37605298D01*
X160572987Y-37589394D01*
X160584141Y-37587790D01*
X160593833Y-37582040D01*
X160618103Y-37582906D01*
X160642146Y-37579450D01*
X160652397Y-37584131D01*
G37*
%TD.AperFunction*%
%TD*%
M02*
