%TF.GenerationSoftware,KiCad,Pcbnew,9.0.1*%
%TF.CreationDate,2025-10-12T18:30:29-07:00*%
%TF.ProjectId,esp-32 s3 template,6573702d-3332-4207-9333-2074656d706c,rev?*%
%TF.SameCoordinates,Original*%
%TF.FileFunction,Soldermask,Bot*%
%TF.FilePolarity,Negative*%
%FSLAX46Y46*%
G04 Gerber Fmt 4.6, Leading zero omitted, Abs format (unit mm)*
G04 Created by KiCad (PCBNEW 9.0.1) date 2025-10-12 18:30:29*
%MOMM*%
%LPD*%
G01*
G04 APERTURE LIST*
G04 Aperture macros list*
%AMRoundRect*
0 Rectangle with rounded corners*
0 $1 Rounding radius*
0 $2 $3 $4 $5 $6 $7 $8 $9 X,Y pos of 4 corners*
0 Add a 4 corners polygon primitive as box body*
4,1,4,$2,$3,$4,$5,$6,$7,$8,$9,$2,$3,0*
0 Add four circle primitives for the rounded corners*
1,1,$1+$1,$2,$3*
1,1,$1+$1,$4,$5*
1,1,$1+$1,$6,$7*
1,1,$1+$1,$8,$9*
0 Add four rect primitives between the rounded corners*
20,1,$1+$1,$2,$3,$4,$5,0*
20,1,$1+$1,$4,$5,$6,$7,0*
20,1,$1+$1,$6,$7,$8,$9,0*
20,1,$1+$1,$8,$9,$2,$3,0*%
G04 Aperture macros list end*
%ADD10C,0.600000*%
%ADD11O,1.104000X2.204000*%
%ADD12O,1.104000X1.904000*%
%ADD13C,3.550000*%
%ADD14RoundRect,0.102000X-1.447500X1.447500X-1.447500X-1.447500X1.447500X-1.447500X1.447500X1.447500X0*%
%ADD15C,3.099000*%
%ADD16RoundRect,0.225000X0.250000X-0.225000X0.250000X0.225000X-0.250000X0.225000X-0.250000X-0.225000X0*%
%ADD17RoundRect,0.250000X0.750000X-2.000000X0.750000X2.000000X-0.750000X2.000000X-0.750000X-2.000000X0*%
%ADD18RoundRect,0.150000X-0.150000X0.875000X-0.150000X-0.875000X0.150000X-0.875000X0.150000X0.875000X0*%
%ADD19RoundRect,0.225000X0.225000X0.250000X-0.225000X0.250000X-0.225000X-0.250000X0.225000X-0.250000X0*%
%ADD20RoundRect,0.200000X-0.200000X-0.275000X0.200000X-0.275000X0.200000X0.275000X-0.200000X0.275000X0*%
%ADD21RoundRect,0.162500X0.162500X-0.650000X0.162500X0.650000X-0.162500X0.650000X-0.162500X-0.650000X0*%
%ADD22RoundRect,0.102000X0.599000X0.599000X-0.599000X0.599000X-0.599000X-0.599000X0.599000X-0.599000X0*%
%ADD23C,1.402000*%
%ADD24RoundRect,0.250000X-0.295000X-0.315000X0.295000X-0.315000X0.295000X0.315000X-0.295000X0.315000X0*%
%ADD25R,1.000000X1.500000*%
G04 APERTURE END LIST*
D10*
%TO.C,J1*%
X122610000Y-59720000D03*
X128390000Y-59720000D03*
D11*
X121175000Y-59230000D03*
X129825000Y-59230000D03*
D12*
X121175000Y-63400000D03*
X129825000Y-63400000D03*
%TD*%
D13*
%TO.C,J2*%
X109975000Y-41100000D03*
X109975000Y-61930000D03*
D14*
X112205000Y-47065000D03*
D15*
X112205000Y-51515000D03*
X112205000Y-55955000D03*
X107755000Y-55955000D03*
X107755000Y-51515000D03*
X107755000Y-47065000D03*
%TD*%
D16*
%TO.C,C13*%
X145050000Y-52275000D03*
X145050000Y-50725000D03*
%TD*%
D17*
%TO.C,X1*%
X149300000Y-60750000D03*
X149300000Y-52250000D03*
%TD*%
D16*
%TO.C,C14*%
X145050000Y-61275000D03*
X145050000Y-59725000D03*
%TD*%
D18*
%TO.C,U3*%
X120820000Y-41650000D03*
X122090000Y-41650000D03*
X123360000Y-41650000D03*
X124630000Y-41650000D03*
X125900000Y-41650000D03*
X127170000Y-41650000D03*
X128440000Y-41650000D03*
X129710000Y-41650000D03*
X130980000Y-41650000D03*
X130980000Y-50950000D03*
X129710000Y-50950000D03*
X128440000Y-50950000D03*
X127170000Y-50950000D03*
X125900000Y-50950000D03*
X124630000Y-50950000D03*
X123360000Y-50950000D03*
X122090000Y-50950000D03*
X120820000Y-50950000D03*
%TD*%
D19*
%TO.C,C12*%
X138475000Y-54300000D03*
X136925000Y-54300000D03*
%TD*%
D20*
%TO.C,R8*%
X124375000Y-53600000D03*
X126025000Y-53600000D03*
%TD*%
D21*
%TO.C,U4*%
X139605000Y-49887500D03*
X138335000Y-49887500D03*
X137065000Y-49887500D03*
X135795000Y-49887500D03*
X135795000Y-42712500D03*
X137065000Y-42712500D03*
X138335000Y-42712500D03*
X139605000Y-42712500D03*
%TD*%
D22*
%TO.C,U5*%
X163640000Y-61500000D03*
D23*
X161100000Y-64040000D03*
X158560000Y-61500000D03*
X161100000Y-58960000D03*
%TD*%
D24*
%TO.C,C11*%
X120785000Y-53600000D03*
X122215000Y-53600000D03*
%TD*%
D25*
%TO.C,D6*%
X161600000Y-47450000D03*
X158400000Y-47450000D03*
X158400000Y-42550000D03*
X161600000Y-42550000D03*
%TD*%
D19*
%TO.C,C15*%
X138475000Y-52300000D03*
X136925000Y-52300000D03*
%TD*%
M02*
