%TF.GenerationSoftware,KiCad,Pcbnew,9.0.1*%
%TF.CreationDate,2025-10-12T18:30:29-07:00*%
%TF.ProjectId,esp-32 s3 template,6573702d-3332-4207-9333-2074656d706c,rev?*%
%TF.SameCoordinates,Original*%
%TF.FileFunction,Legend,Top*%
%TF.FilePolarity,Positive*%
%FSLAX46Y46*%
G04 Gerber Fmt 4.6, Leading zero omitted, Abs format (unit mm)*
G04 Created by KiCad (PCBNEW 9.0.1) date 2025-10-12 18:30:29*
%MOMM*%
%LPD*%
G01*
G04 APERTURE LIST*
%ADD10C,0.150000*%
%ADD11C,0.120000*%
%ADD12C,0.127000*%
%ADD13C,0.200000*%
%ADD14C,0.100000*%
G04 APERTURE END LIST*
D10*
X161333333Y-54859580D02*
X161285714Y-54907200D01*
X161285714Y-54907200D02*
X161142857Y-54954819D01*
X161142857Y-54954819D02*
X161047619Y-54954819D01*
X161047619Y-54954819D02*
X160904762Y-54907200D01*
X160904762Y-54907200D02*
X160809524Y-54811961D01*
X160809524Y-54811961D02*
X160761905Y-54716723D01*
X160761905Y-54716723D02*
X160714286Y-54526247D01*
X160714286Y-54526247D02*
X160714286Y-54383390D01*
X160714286Y-54383390D02*
X160761905Y-54192914D01*
X160761905Y-54192914D02*
X160809524Y-54097676D01*
X160809524Y-54097676D02*
X160904762Y-54002438D01*
X160904762Y-54002438D02*
X161047619Y-53954819D01*
X161047619Y-53954819D02*
X161142857Y-53954819D01*
X161142857Y-53954819D02*
X161285714Y-54002438D01*
X161285714Y-54002438D02*
X161333333Y-54050057D01*
X161809524Y-54954819D02*
X162000000Y-54954819D01*
X162000000Y-54954819D02*
X162095238Y-54907200D01*
X162095238Y-54907200D02*
X162142857Y-54859580D01*
X162142857Y-54859580D02*
X162238095Y-54716723D01*
X162238095Y-54716723D02*
X162285714Y-54526247D01*
X162285714Y-54526247D02*
X162285714Y-54145295D01*
X162285714Y-54145295D02*
X162238095Y-54050057D01*
X162238095Y-54050057D02*
X162190476Y-54002438D01*
X162190476Y-54002438D02*
X162095238Y-53954819D01*
X162095238Y-53954819D02*
X161904762Y-53954819D01*
X161904762Y-53954819D02*
X161809524Y-54002438D01*
X161809524Y-54002438D02*
X161761905Y-54050057D01*
X161761905Y-54050057D02*
X161714286Y-54145295D01*
X161714286Y-54145295D02*
X161714286Y-54383390D01*
X161714286Y-54383390D02*
X161761905Y-54478628D01*
X161761905Y-54478628D02*
X161809524Y-54526247D01*
X161809524Y-54526247D02*
X161904762Y-54573866D01*
X161904762Y-54573866D02*
X162095238Y-54573866D01*
X162095238Y-54573866D02*
X162190476Y-54526247D01*
X162190476Y-54526247D02*
X162238095Y-54478628D01*
X162238095Y-54478628D02*
X162285714Y-54383390D01*
X134408333Y-43704819D02*
X134075000Y-43228628D01*
X133836905Y-43704819D02*
X133836905Y-42704819D01*
X133836905Y-42704819D02*
X134217857Y-42704819D01*
X134217857Y-42704819D02*
X134313095Y-42752438D01*
X134313095Y-42752438D02*
X134360714Y-42800057D01*
X134360714Y-42800057D02*
X134408333Y-42895295D01*
X134408333Y-42895295D02*
X134408333Y-43038152D01*
X134408333Y-43038152D02*
X134360714Y-43133390D01*
X134360714Y-43133390D02*
X134313095Y-43181009D01*
X134313095Y-43181009D02*
X134217857Y-43228628D01*
X134217857Y-43228628D02*
X133836905Y-43228628D01*
X135265476Y-43038152D02*
X135265476Y-43704819D01*
X135027381Y-42657200D02*
X134789286Y-43371485D01*
X134789286Y-43371485D02*
X135408333Y-43371485D01*
X163333333Y-56454819D02*
X163000000Y-55978628D01*
X162761905Y-56454819D02*
X162761905Y-55454819D01*
X162761905Y-55454819D02*
X163142857Y-55454819D01*
X163142857Y-55454819D02*
X163238095Y-55502438D01*
X163238095Y-55502438D02*
X163285714Y-55550057D01*
X163285714Y-55550057D02*
X163333333Y-55645295D01*
X163333333Y-55645295D02*
X163333333Y-55788152D01*
X163333333Y-55788152D02*
X163285714Y-55883390D01*
X163285714Y-55883390D02*
X163238095Y-55931009D01*
X163238095Y-55931009D02*
X163142857Y-55978628D01*
X163142857Y-55978628D02*
X162761905Y-55978628D01*
X164238095Y-55454819D02*
X163761905Y-55454819D01*
X163761905Y-55454819D02*
X163714286Y-55931009D01*
X163714286Y-55931009D02*
X163761905Y-55883390D01*
X163761905Y-55883390D02*
X163857143Y-55835771D01*
X163857143Y-55835771D02*
X164095238Y-55835771D01*
X164095238Y-55835771D02*
X164190476Y-55883390D01*
X164190476Y-55883390D02*
X164238095Y-55931009D01*
X164238095Y-55931009D02*
X164285714Y-56026247D01*
X164285714Y-56026247D02*
X164285714Y-56264342D01*
X164285714Y-56264342D02*
X164238095Y-56359580D01*
X164238095Y-56359580D02*
X164190476Y-56407200D01*
X164190476Y-56407200D02*
X164095238Y-56454819D01*
X164095238Y-56454819D02*
X163857143Y-56454819D01*
X163857143Y-56454819D02*
X163761905Y-56407200D01*
X163761905Y-56407200D02*
X163714286Y-56359580D01*
X118454819Y-66738094D02*
X117454819Y-66738094D01*
X117454819Y-66738094D02*
X117454819Y-66499999D01*
X117454819Y-66499999D02*
X117502438Y-66357142D01*
X117502438Y-66357142D02*
X117597676Y-66261904D01*
X117597676Y-66261904D02*
X117692914Y-66214285D01*
X117692914Y-66214285D02*
X117883390Y-66166666D01*
X117883390Y-66166666D02*
X118026247Y-66166666D01*
X118026247Y-66166666D02*
X118216723Y-66214285D01*
X118216723Y-66214285D02*
X118311961Y-66261904D01*
X118311961Y-66261904D02*
X118407200Y-66357142D01*
X118407200Y-66357142D02*
X118454819Y-66499999D01*
X118454819Y-66499999D02*
X118454819Y-66738094D01*
X118454819Y-65214285D02*
X118454819Y-65785713D01*
X118454819Y-65499999D02*
X117454819Y-65499999D01*
X117454819Y-65499999D02*
X117597676Y-65595237D01*
X117597676Y-65595237D02*
X117692914Y-65690475D01*
X117692914Y-65690475D02*
X117740533Y-65785713D01*
X133933333Y-63054819D02*
X133600000Y-62578628D01*
X133361905Y-63054819D02*
X133361905Y-62054819D01*
X133361905Y-62054819D02*
X133742857Y-62054819D01*
X133742857Y-62054819D02*
X133838095Y-62102438D01*
X133838095Y-62102438D02*
X133885714Y-62150057D01*
X133885714Y-62150057D02*
X133933333Y-62245295D01*
X133933333Y-62245295D02*
X133933333Y-62388152D01*
X133933333Y-62388152D02*
X133885714Y-62483390D01*
X133885714Y-62483390D02*
X133838095Y-62531009D01*
X133838095Y-62531009D02*
X133742857Y-62578628D01*
X133742857Y-62578628D02*
X133361905Y-62578628D01*
X134314286Y-62150057D02*
X134361905Y-62102438D01*
X134361905Y-62102438D02*
X134457143Y-62054819D01*
X134457143Y-62054819D02*
X134695238Y-62054819D01*
X134695238Y-62054819D02*
X134790476Y-62102438D01*
X134790476Y-62102438D02*
X134838095Y-62150057D01*
X134838095Y-62150057D02*
X134885714Y-62245295D01*
X134885714Y-62245295D02*
X134885714Y-62340533D01*
X134885714Y-62340533D02*
X134838095Y-62483390D01*
X134838095Y-62483390D02*
X134266667Y-63054819D01*
X134266667Y-63054819D02*
X134885714Y-63054819D01*
X134033333Y-66554819D02*
X133700000Y-66078628D01*
X133461905Y-66554819D02*
X133461905Y-65554819D01*
X133461905Y-65554819D02*
X133842857Y-65554819D01*
X133842857Y-65554819D02*
X133938095Y-65602438D01*
X133938095Y-65602438D02*
X133985714Y-65650057D01*
X133985714Y-65650057D02*
X134033333Y-65745295D01*
X134033333Y-65745295D02*
X134033333Y-65888152D01*
X134033333Y-65888152D02*
X133985714Y-65983390D01*
X133985714Y-65983390D02*
X133938095Y-66031009D01*
X133938095Y-66031009D02*
X133842857Y-66078628D01*
X133842857Y-66078628D02*
X133461905Y-66078628D01*
X134985714Y-66554819D02*
X134414286Y-66554819D01*
X134700000Y-66554819D02*
X134700000Y-65554819D01*
X134700000Y-65554819D02*
X134604762Y-65697676D01*
X134604762Y-65697676D02*
X134509524Y-65792914D01*
X134509524Y-65792914D02*
X134414286Y-65840533D01*
X163441667Y-54607200D02*
X163584524Y-54654819D01*
X163584524Y-54654819D02*
X163822619Y-54654819D01*
X163822619Y-54654819D02*
X163917857Y-54607200D01*
X163917857Y-54607200D02*
X163965476Y-54559580D01*
X163965476Y-54559580D02*
X164013095Y-54464342D01*
X164013095Y-54464342D02*
X164013095Y-54369104D01*
X164013095Y-54369104D02*
X163965476Y-54273866D01*
X163965476Y-54273866D02*
X163917857Y-54226247D01*
X163917857Y-54226247D02*
X163822619Y-54178628D01*
X163822619Y-54178628D02*
X163632143Y-54131009D01*
X163632143Y-54131009D02*
X163536905Y-54083390D01*
X163536905Y-54083390D02*
X163489286Y-54035771D01*
X163489286Y-54035771D02*
X163441667Y-53940533D01*
X163441667Y-53940533D02*
X163441667Y-53845295D01*
X163441667Y-53845295D02*
X163489286Y-53750057D01*
X163489286Y-53750057D02*
X163536905Y-53702438D01*
X163536905Y-53702438D02*
X163632143Y-53654819D01*
X163632143Y-53654819D02*
X163870238Y-53654819D01*
X163870238Y-53654819D02*
X164013095Y-53702438D01*
X164346429Y-53654819D02*
X164584524Y-54654819D01*
X164584524Y-54654819D02*
X164775000Y-53940533D01*
X164775000Y-53940533D02*
X164965476Y-54654819D01*
X164965476Y-54654819D02*
X165203572Y-53654819D01*
X166108333Y-54654819D02*
X165536905Y-54654819D01*
X165822619Y-54654819D02*
X165822619Y-53654819D01*
X165822619Y-53654819D02*
X165727381Y-53797676D01*
X165727381Y-53797676D02*
X165632143Y-53892914D01*
X165632143Y-53892914D02*
X165536905Y-53940533D01*
X120559580Y-37766666D02*
X120607200Y-37814285D01*
X120607200Y-37814285D02*
X120654819Y-37957142D01*
X120654819Y-37957142D02*
X120654819Y-38052380D01*
X120654819Y-38052380D02*
X120607200Y-38195237D01*
X120607200Y-38195237D02*
X120511961Y-38290475D01*
X120511961Y-38290475D02*
X120416723Y-38338094D01*
X120416723Y-38338094D02*
X120226247Y-38385713D01*
X120226247Y-38385713D02*
X120083390Y-38385713D01*
X120083390Y-38385713D02*
X119892914Y-38338094D01*
X119892914Y-38338094D02*
X119797676Y-38290475D01*
X119797676Y-38290475D02*
X119702438Y-38195237D01*
X119702438Y-38195237D02*
X119654819Y-38052380D01*
X119654819Y-38052380D02*
X119654819Y-37957142D01*
X119654819Y-37957142D02*
X119702438Y-37814285D01*
X119702438Y-37814285D02*
X119750057Y-37766666D01*
X119654819Y-37433332D02*
X119654819Y-36814285D01*
X119654819Y-36814285D02*
X120035771Y-37147618D01*
X120035771Y-37147618D02*
X120035771Y-37004761D01*
X120035771Y-37004761D02*
X120083390Y-36909523D01*
X120083390Y-36909523D02*
X120131009Y-36861904D01*
X120131009Y-36861904D02*
X120226247Y-36814285D01*
X120226247Y-36814285D02*
X120464342Y-36814285D01*
X120464342Y-36814285D02*
X120559580Y-36861904D01*
X120559580Y-36861904D02*
X120607200Y-36909523D01*
X120607200Y-36909523D02*
X120654819Y-37004761D01*
X120654819Y-37004761D02*
X120654819Y-37290475D01*
X120654819Y-37290475D02*
X120607200Y-37385713D01*
X120607200Y-37385713D02*
X120559580Y-37433332D01*
X134408333Y-38859580D02*
X134360714Y-38907200D01*
X134360714Y-38907200D02*
X134217857Y-38954819D01*
X134217857Y-38954819D02*
X134122619Y-38954819D01*
X134122619Y-38954819D02*
X133979762Y-38907200D01*
X133979762Y-38907200D02*
X133884524Y-38811961D01*
X133884524Y-38811961D02*
X133836905Y-38716723D01*
X133836905Y-38716723D02*
X133789286Y-38526247D01*
X133789286Y-38526247D02*
X133789286Y-38383390D01*
X133789286Y-38383390D02*
X133836905Y-38192914D01*
X133836905Y-38192914D02*
X133884524Y-38097676D01*
X133884524Y-38097676D02*
X133979762Y-38002438D01*
X133979762Y-38002438D02*
X134122619Y-37954819D01*
X134122619Y-37954819D02*
X134217857Y-37954819D01*
X134217857Y-37954819D02*
X134360714Y-38002438D01*
X134360714Y-38002438D02*
X134408333Y-38050057D01*
X134979762Y-38383390D02*
X134884524Y-38335771D01*
X134884524Y-38335771D02*
X134836905Y-38288152D01*
X134836905Y-38288152D02*
X134789286Y-38192914D01*
X134789286Y-38192914D02*
X134789286Y-38145295D01*
X134789286Y-38145295D02*
X134836905Y-38050057D01*
X134836905Y-38050057D02*
X134884524Y-38002438D01*
X134884524Y-38002438D02*
X134979762Y-37954819D01*
X134979762Y-37954819D02*
X135170238Y-37954819D01*
X135170238Y-37954819D02*
X135265476Y-38002438D01*
X135265476Y-38002438D02*
X135313095Y-38050057D01*
X135313095Y-38050057D02*
X135360714Y-38145295D01*
X135360714Y-38145295D02*
X135360714Y-38192914D01*
X135360714Y-38192914D02*
X135313095Y-38288152D01*
X135313095Y-38288152D02*
X135265476Y-38335771D01*
X135265476Y-38335771D02*
X135170238Y-38383390D01*
X135170238Y-38383390D02*
X134979762Y-38383390D01*
X134979762Y-38383390D02*
X134884524Y-38431009D01*
X134884524Y-38431009D02*
X134836905Y-38478628D01*
X134836905Y-38478628D02*
X134789286Y-38573866D01*
X134789286Y-38573866D02*
X134789286Y-38764342D01*
X134789286Y-38764342D02*
X134836905Y-38859580D01*
X134836905Y-38859580D02*
X134884524Y-38907200D01*
X134884524Y-38907200D02*
X134979762Y-38954819D01*
X134979762Y-38954819D02*
X135170238Y-38954819D01*
X135170238Y-38954819D02*
X135265476Y-38907200D01*
X135265476Y-38907200D02*
X135313095Y-38859580D01*
X135313095Y-38859580D02*
X135360714Y-38764342D01*
X135360714Y-38764342D02*
X135360714Y-38573866D01*
X135360714Y-38573866D02*
X135313095Y-38478628D01*
X135313095Y-38478628D02*
X135265476Y-38431009D01*
X135265476Y-38431009D02*
X135170238Y-38383390D01*
X120866666Y-56554819D02*
X120866666Y-57269104D01*
X120866666Y-57269104D02*
X120819047Y-57411961D01*
X120819047Y-57411961D02*
X120723809Y-57507200D01*
X120723809Y-57507200D02*
X120580952Y-57554819D01*
X120580952Y-57554819D02*
X120485714Y-57554819D01*
X121866666Y-57554819D02*
X121295238Y-57554819D01*
X121580952Y-57554819D02*
X121580952Y-56554819D01*
X121580952Y-56554819D02*
X121485714Y-56697676D01*
X121485714Y-56697676D02*
X121390476Y-56792914D01*
X121390476Y-56792914D02*
X121295238Y-56840533D01*
X128759580Y-45266666D02*
X128807200Y-45314285D01*
X128807200Y-45314285D02*
X128854819Y-45457142D01*
X128854819Y-45457142D02*
X128854819Y-45552380D01*
X128854819Y-45552380D02*
X128807200Y-45695237D01*
X128807200Y-45695237D02*
X128711961Y-45790475D01*
X128711961Y-45790475D02*
X128616723Y-45838094D01*
X128616723Y-45838094D02*
X128426247Y-45885713D01*
X128426247Y-45885713D02*
X128283390Y-45885713D01*
X128283390Y-45885713D02*
X128092914Y-45838094D01*
X128092914Y-45838094D02*
X127997676Y-45790475D01*
X127997676Y-45790475D02*
X127902438Y-45695237D01*
X127902438Y-45695237D02*
X127854819Y-45552380D01*
X127854819Y-45552380D02*
X127854819Y-45457142D01*
X127854819Y-45457142D02*
X127902438Y-45314285D01*
X127902438Y-45314285D02*
X127950057Y-45266666D01*
X128188152Y-44409523D02*
X128854819Y-44409523D01*
X127807200Y-44647618D02*
X128521485Y-44885713D01*
X128521485Y-44885713D02*
X128521485Y-44266666D01*
X116959580Y-57541666D02*
X117007200Y-57589285D01*
X117007200Y-57589285D02*
X117054819Y-57732142D01*
X117054819Y-57732142D02*
X117054819Y-57827380D01*
X117054819Y-57827380D02*
X117007200Y-57970237D01*
X117007200Y-57970237D02*
X116911961Y-58065475D01*
X116911961Y-58065475D02*
X116816723Y-58113094D01*
X116816723Y-58113094D02*
X116626247Y-58160713D01*
X116626247Y-58160713D02*
X116483390Y-58160713D01*
X116483390Y-58160713D02*
X116292914Y-58113094D01*
X116292914Y-58113094D02*
X116197676Y-58065475D01*
X116197676Y-58065475D02*
X116102438Y-57970237D01*
X116102438Y-57970237D02*
X116054819Y-57827380D01*
X116054819Y-57827380D02*
X116054819Y-57732142D01*
X116054819Y-57732142D02*
X116102438Y-57589285D01*
X116102438Y-57589285D02*
X116150057Y-57541666D01*
X117054819Y-56589285D02*
X117054819Y-57160713D01*
X117054819Y-56874999D02*
X116054819Y-56874999D01*
X116054819Y-56874999D02*
X116197676Y-56970237D01*
X116197676Y-56970237D02*
X116292914Y-57065475D01*
X116292914Y-57065475D02*
X116340533Y-57160713D01*
X115166666Y-38204819D02*
X115166666Y-38919104D01*
X115166666Y-38919104D02*
X115119047Y-39061961D01*
X115119047Y-39061961D02*
X115023809Y-39157200D01*
X115023809Y-39157200D02*
X114880952Y-39204819D01*
X114880952Y-39204819D02*
X114785714Y-39204819D01*
X115595238Y-38300057D02*
X115642857Y-38252438D01*
X115642857Y-38252438D02*
X115738095Y-38204819D01*
X115738095Y-38204819D02*
X115976190Y-38204819D01*
X115976190Y-38204819D02*
X116071428Y-38252438D01*
X116071428Y-38252438D02*
X116119047Y-38300057D01*
X116119047Y-38300057D02*
X116166666Y-38395295D01*
X116166666Y-38395295D02*
X116166666Y-38490533D01*
X116166666Y-38490533D02*
X116119047Y-38633390D01*
X116119047Y-38633390D02*
X115547619Y-39204819D01*
X115547619Y-39204819D02*
X116166666Y-39204819D01*
X134408333Y-40454819D02*
X134075000Y-39978628D01*
X133836905Y-40454819D02*
X133836905Y-39454819D01*
X133836905Y-39454819D02*
X134217857Y-39454819D01*
X134217857Y-39454819D02*
X134313095Y-39502438D01*
X134313095Y-39502438D02*
X134360714Y-39550057D01*
X134360714Y-39550057D02*
X134408333Y-39645295D01*
X134408333Y-39645295D02*
X134408333Y-39788152D01*
X134408333Y-39788152D02*
X134360714Y-39883390D01*
X134360714Y-39883390D02*
X134313095Y-39931009D01*
X134313095Y-39931009D02*
X134217857Y-39978628D01*
X134217857Y-39978628D02*
X133836905Y-39978628D01*
X134884524Y-40454819D02*
X135075000Y-40454819D01*
X135075000Y-40454819D02*
X135170238Y-40407200D01*
X135170238Y-40407200D02*
X135217857Y-40359580D01*
X135217857Y-40359580D02*
X135313095Y-40216723D01*
X135313095Y-40216723D02*
X135360714Y-40026247D01*
X135360714Y-40026247D02*
X135360714Y-39645295D01*
X135360714Y-39645295D02*
X135313095Y-39550057D01*
X135313095Y-39550057D02*
X135265476Y-39502438D01*
X135265476Y-39502438D02*
X135170238Y-39454819D01*
X135170238Y-39454819D02*
X134979762Y-39454819D01*
X134979762Y-39454819D02*
X134884524Y-39502438D01*
X134884524Y-39502438D02*
X134836905Y-39550057D01*
X134836905Y-39550057D02*
X134789286Y-39645295D01*
X134789286Y-39645295D02*
X134789286Y-39883390D01*
X134789286Y-39883390D02*
X134836905Y-39978628D01*
X134836905Y-39978628D02*
X134884524Y-40026247D01*
X134884524Y-40026247D02*
X134979762Y-40073866D01*
X134979762Y-40073866D02*
X135170238Y-40073866D01*
X135170238Y-40073866D02*
X135265476Y-40026247D01*
X135265476Y-40026247D02*
X135313095Y-39978628D01*
X135313095Y-39978628D02*
X135360714Y-39883390D01*
X134408333Y-42109580D02*
X134360714Y-42157200D01*
X134360714Y-42157200D02*
X134217857Y-42204819D01*
X134217857Y-42204819D02*
X134122619Y-42204819D01*
X134122619Y-42204819D02*
X133979762Y-42157200D01*
X133979762Y-42157200D02*
X133884524Y-42061961D01*
X133884524Y-42061961D02*
X133836905Y-41966723D01*
X133836905Y-41966723D02*
X133789286Y-41776247D01*
X133789286Y-41776247D02*
X133789286Y-41633390D01*
X133789286Y-41633390D02*
X133836905Y-41442914D01*
X133836905Y-41442914D02*
X133884524Y-41347676D01*
X133884524Y-41347676D02*
X133979762Y-41252438D01*
X133979762Y-41252438D02*
X134122619Y-41204819D01*
X134122619Y-41204819D02*
X134217857Y-41204819D01*
X134217857Y-41204819D02*
X134360714Y-41252438D01*
X134360714Y-41252438D02*
X134408333Y-41300057D01*
X135265476Y-41204819D02*
X135075000Y-41204819D01*
X135075000Y-41204819D02*
X134979762Y-41252438D01*
X134979762Y-41252438D02*
X134932143Y-41300057D01*
X134932143Y-41300057D02*
X134836905Y-41442914D01*
X134836905Y-41442914D02*
X134789286Y-41633390D01*
X134789286Y-41633390D02*
X134789286Y-42014342D01*
X134789286Y-42014342D02*
X134836905Y-42109580D01*
X134836905Y-42109580D02*
X134884524Y-42157200D01*
X134884524Y-42157200D02*
X134979762Y-42204819D01*
X134979762Y-42204819D02*
X135170238Y-42204819D01*
X135170238Y-42204819D02*
X135265476Y-42157200D01*
X135265476Y-42157200D02*
X135313095Y-42109580D01*
X135313095Y-42109580D02*
X135360714Y-42014342D01*
X135360714Y-42014342D02*
X135360714Y-41776247D01*
X135360714Y-41776247D02*
X135313095Y-41681009D01*
X135313095Y-41681009D02*
X135265476Y-41633390D01*
X135265476Y-41633390D02*
X135170238Y-41585771D01*
X135170238Y-41585771D02*
X134979762Y-41585771D01*
X134979762Y-41585771D02*
X134884524Y-41633390D01*
X134884524Y-41633390D02*
X134836905Y-41681009D01*
X134836905Y-41681009D02*
X134789286Y-41776247D01*
X160738095Y-36654819D02*
X160738095Y-37464342D01*
X160738095Y-37464342D02*
X160785714Y-37559580D01*
X160785714Y-37559580D02*
X160833333Y-37607200D01*
X160833333Y-37607200D02*
X160928571Y-37654819D01*
X160928571Y-37654819D02*
X161119047Y-37654819D01*
X161119047Y-37654819D02*
X161214285Y-37607200D01*
X161214285Y-37607200D02*
X161261904Y-37559580D01*
X161261904Y-37559580D02*
X161309523Y-37464342D01*
X161309523Y-37464342D02*
X161309523Y-36654819D01*
X161738095Y-36750057D02*
X161785714Y-36702438D01*
X161785714Y-36702438D02*
X161880952Y-36654819D01*
X161880952Y-36654819D02*
X162119047Y-36654819D01*
X162119047Y-36654819D02*
X162214285Y-36702438D01*
X162214285Y-36702438D02*
X162261904Y-36750057D01*
X162261904Y-36750057D02*
X162309523Y-36845295D01*
X162309523Y-36845295D02*
X162309523Y-36940533D01*
X162309523Y-36940533D02*
X162261904Y-37083390D01*
X162261904Y-37083390D02*
X161690476Y-37654819D01*
X161690476Y-37654819D02*
X162309523Y-37654819D01*
X164333333Y-38954819D02*
X164000000Y-38478628D01*
X163761905Y-38954819D02*
X163761905Y-37954819D01*
X163761905Y-37954819D02*
X164142857Y-37954819D01*
X164142857Y-37954819D02*
X164238095Y-38002438D01*
X164238095Y-38002438D02*
X164285714Y-38050057D01*
X164285714Y-38050057D02*
X164333333Y-38145295D01*
X164333333Y-38145295D02*
X164333333Y-38288152D01*
X164333333Y-38288152D02*
X164285714Y-38383390D01*
X164285714Y-38383390D02*
X164238095Y-38431009D01*
X164238095Y-38431009D02*
X164142857Y-38478628D01*
X164142857Y-38478628D02*
X163761905Y-38478628D01*
X165190476Y-37954819D02*
X165000000Y-37954819D01*
X165000000Y-37954819D02*
X164904762Y-38002438D01*
X164904762Y-38002438D02*
X164857143Y-38050057D01*
X164857143Y-38050057D02*
X164761905Y-38192914D01*
X164761905Y-38192914D02*
X164714286Y-38383390D01*
X164714286Y-38383390D02*
X164714286Y-38764342D01*
X164714286Y-38764342D02*
X164761905Y-38859580D01*
X164761905Y-38859580D02*
X164809524Y-38907200D01*
X164809524Y-38907200D02*
X164904762Y-38954819D01*
X164904762Y-38954819D02*
X165095238Y-38954819D01*
X165095238Y-38954819D02*
X165190476Y-38907200D01*
X165190476Y-38907200D02*
X165238095Y-38859580D01*
X165238095Y-38859580D02*
X165285714Y-38764342D01*
X165285714Y-38764342D02*
X165285714Y-38526247D01*
X165285714Y-38526247D02*
X165238095Y-38431009D01*
X165238095Y-38431009D02*
X165190476Y-38383390D01*
X165190476Y-38383390D02*
X165095238Y-38335771D01*
X165095238Y-38335771D02*
X164904762Y-38335771D01*
X164904762Y-38335771D02*
X164809524Y-38383390D01*
X164809524Y-38383390D02*
X164761905Y-38431009D01*
X164761905Y-38431009D02*
X164714286Y-38526247D01*
X130254819Y-43061904D02*
X131064342Y-43061904D01*
X131064342Y-43061904D02*
X131159580Y-43014285D01*
X131159580Y-43014285D02*
X131207200Y-42966666D01*
X131207200Y-42966666D02*
X131254819Y-42871428D01*
X131254819Y-42871428D02*
X131254819Y-42680952D01*
X131254819Y-42680952D02*
X131207200Y-42585714D01*
X131207200Y-42585714D02*
X131159580Y-42538095D01*
X131159580Y-42538095D02*
X131064342Y-42490476D01*
X131064342Y-42490476D02*
X130254819Y-42490476D01*
X131254819Y-41490476D02*
X131254819Y-42061904D01*
X131254819Y-41776190D02*
X130254819Y-41776190D01*
X130254819Y-41776190D02*
X130397676Y-41871428D01*
X130397676Y-41871428D02*
X130492914Y-41966666D01*
X130492914Y-41966666D02*
X130540533Y-42061904D01*
X127559580Y-45266666D02*
X127607200Y-45314285D01*
X127607200Y-45314285D02*
X127654819Y-45457142D01*
X127654819Y-45457142D02*
X127654819Y-45552380D01*
X127654819Y-45552380D02*
X127607200Y-45695237D01*
X127607200Y-45695237D02*
X127511961Y-45790475D01*
X127511961Y-45790475D02*
X127416723Y-45838094D01*
X127416723Y-45838094D02*
X127226247Y-45885713D01*
X127226247Y-45885713D02*
X127083390Y-45885713D01*
X127083390Y-45885713D02*
X126892914Y-45838094D01*
X126892914Y-45838094D02*
X126797676Y-45790475D01*
X126797676Y-45790475D02*
X126702438Y-45695237D01*
X126702438Y-45695237D02*
X126654819Y-45552380D01*
X126654819Y-45552380D02*
X126654819Y-45457142D01*
X126654819Y-45457142D02*
X126702438Y-45314285D01*
X126702438Y-45314285D02*
X126750057Y-45266666D01*
X126654819Y-44361904D02*
X126654819Y-44838094D01*
X126654819Y-44838094D02*
X127131009Y-44885713D01*
X127131009Y-44885713D02*
X127083390Y-44838094D01*
X127083390Y-44838094D02*
X127035771Y-44742856D01*
X127035771Y-44742856D02*
X127035771Y-44504761D01*
X127035771Y-44504761D02*
X127083390Y-44409523D01*
X127083390Y-44409523D02*
X127131009Y-44361904D01*
X127131009Y-44361904D02*
X127226247Y-44314285D01*
X127226247Y-44314285D02*
X127464342Y-44314285D01*
X127464342Y-44314285D02*
X127559580Y-44361904D01*
X127559580Y-44361904D02*
X127607200Y-44409523D01*
X127607200Y-44409523D02*
X127654819Y-44504761D01*
X127654819Y-44504761D02*
X127654819Y-44742856D01*
X127654819Y-44742856D02*
X127607200Y-44838094D01*
X127607200Y-44838094D02*
X127559580Y-44885713D01*
X134408333Y-37109580D02*
X134360714Y-37157200D01*
X134360714Y-37157200D02*
X134217857Y-37204819D01*
X134217857Y-37204819D02*
X134122619Y-37204819D01*
X134122619Y-37204819D02*
X133979762Y-37157200D01*
X133979762Y-37157200D02*
X133884524Y-37061961D01*
X133884524Y-37061961D02*
X133836905Y-36966723D01*
X133836905Y-36966723D02*
X133789286Y-36776247D01*
X133789286Y-36776247D02*
X133789286Y-36633390D01*
X133789286Y-36633390D02*
X133836905Y-36442914D01*
X133836905Y-36442914D02*
X133884524Y-36347676D01*
X133884524Y-36347676D02*
X133979762Y-36252438D01*
X133979762Y-36252438D02*
X134122619Y-36204819D01*
X134122619Y-36204819D02*
X134217857Y-36204819D01*
X134217857Y-36204819D02*
X134360714Y-36252438D01*
X134360714Y-36252438D02*
X134408333Y-36300057D01*
X134741667Y-36204819D02*
X135408333Y-36204819D01*
X135408333Y-36204819D02*
X134979762Y-37204819D01*
X127861905Y-54254819D02*
X127861905Y-53254819D01*
X127861905Y-53254819D02*
X128100000Y-53254819D01*
X128100000Y-53254819D02*
X128242857Y-53302438D01*
X128242857Y-53302438D02*
X128338095Y-53397676D01*
X128338095Y-53397676D02*
X128385714Y-53492914D01*
X128385714Y-53492914D02*
X128433333Y-53683390D01*
X128433333Y-53683390D02*
X128433333Y-53826247D01*
X128433333Y-53826247D02*
X128385714Y-54016723D01*
X128385714Y-54016723D02*
X128338095Y-54111961D01*
X128338095Y-54111961D02*
X128242857Y-54207200D01*
X128242857Y-54207200D02*
X128100000Y-54254819D01*
X128100000Y-54254819D02*
X127861905Y-54254819D01*
X129290476Y-53588152D02*
X129290476Y-54254819D01*
X129052381Y-53207200D02*
X128814286Y-53921485D01*
X128814286Y-53921485D02*
X129433333Y-53921485D01*
X123761905Y-54254819D02*
X123761905Y-53254819D01*
X123761905Y-53254819D02*
X124000000Y-53254819D01*
X124000000Y-53254819D02*
X124142857Y-53302438D01*
X124142857Y-53302438D02*
X124238095Y-53397676D01*
X124238095Y-53397676D02*
X124285714Y-53492914D01*
X124285714Y-53492914D02*
X124333333Y-53683390D01*
X124333333Y-53683390D02*
X124333333Y-53826247D01*
X124333333Y-53826247D02*
X124285714Y-54016723D01*
X124285714Y-54016723D02*
X124238095Y-54111961D01*
X124238095Y-54111961D02*
X124142857Y-54207200D01*
X124142857Y-54207200D02*
X124000000Y-54254819D01*
X124000000Y-54254819D02*
X123761905Y-54254819D01*
X124666667Y-53254819D02*
X125285714Y-53254819D01*
X125285714Y-53254819D02*
X124952381Y-53635771D01*
X124952381Y-53635771D02*
X125095238Y-53635771D01*
X125095238Y-53635771D02*
X125190476Y-53683390D01*
X125190476Y-53683390D02*
X125238095Y-53731009D01*
X125238095Y-53731009D02*
X125285714Y-53826247D01*
X125285714Y-53826247D02*
X125285714Y-54064342D01*
X125285714Y-54064342D02*
X125238095Y-54159580D01*
X125238095Y-54159580D02*
X125190476Y-54207200D01*
X125190476Y-54207200D02*
X125095238Y-54254819D01*
X125095238Y-54254819D02*
X124809524Y-54254819D01*
X124809524Y-54254819D02*
X124714286Y-54207200D01*
X124714286Y-54207200D02*
X124666667Y-54159580D01*
X119059580Y-37766666D02*
X119107200Y-37814285D01*
X119107200Y-37814285D02*
X119154819Y-37957142D01*
X119154819Y-37957142D02*
X119154819Y-38052380D01*
X119154819Y-38052380D02*
X119107200Y-38195237D01*
X119107200Y-38195237D02*
X119011961Y-38290475D01*
X119011961Y-38290475D02*
X118916723Y-38338094D01*
X118916723Y-38338094D02*
X118726247Y-38385713D01*
X118726247Y-38385713D02*
X118583390Y-38385713D01*
X118583390Y-38385713D02*
X118392914Y-38338094D01*
X118392914Y-38338094D02*
X118297676Y-38290475D01*
X118297676Y-38290475D02*
X118202438Y-38195237D01*
X118202438Y-38195237D02*
X118154819Y-38052380D01*
X118154819Y-38052380D02*
X118154819Y-37957142D01*
X118154819Y-37957142D02*
X118202438Y-37814285D01*
X118202438Y-37814285D02*
X118250057Y-37766666D01*
X118250057Y-37385713D02*
X118202438Y-37338094D01*
X118202438Y-37338094D02*
X118154819Y-37242856D01*
X118154819Y-37242856D02*
X118154819Y-37004761D01*
X118154819Y-37004761D02*
X118202438Y-36909523D01*
X118202438Y-36909523D02*
X118250057Y-36861904D01*
X118250057Y-36861904D02*
X118345295Y-36814285D01*
X118345295Y-36814285D02*
X118440533Y-36814285D01*
X118440533Y-36814285D02*
X118583390Y-36861904D01*
X118583390Y-36861904D02*
X119154819Y-37433332D01*
X119154819Y-37433332D02*
X119154819Y-36814285D01*
X120483333Y-50554819D02*
X120150000Y-50078628D01*
X119911905Y-50554819D02*
X119911905Y-49554819D01*
X119911905Y-49554819D02*
X120292857Y-49554819D01*
X120292857Y-49554819D02*
X120388095Y-49602438D01*
X120388095Y-49602438D02*
X120435714Y-49650057D01*
X120435714Y-49650057D02*
X120483333Y-49745295D01*
X120483333Y-49745295D02*
X120483333Y-49888152D01*
X120483333Y-49888152D02*
X120435714Y-49983390D01*
X120435714Y-49983390D02*
X120388095Y-50031009D01*
X120388095Y-50031009D02*
X120292857Y-50078628D01*
X120292857Y-50078628D02*
X119911905Y-50078628D01*
X120816667Y-49554819D02*
X121435714Y-49554819D01*
X121435714Y-49554819D02*
X121102381Y-49935771D01*
X121102381Y-49935771D02*
X121245238Y-49935771D01*
X121245238Y-49935771D02*
X121340476Y-49983390D01*
X121340476Y-49983390D02*
X121388095Y-50031009D01*
X121388095Y-50031009D02*
X121435714Y-50126247D01*
X121435714Y-50126247D02*
X121435714Y-50364342D01*
X121435714Y-50364342D02*
X121388095Y-50459580D01*
X121388095Y-50459580D02*
X121340476Y-50507200D01*
X121340476Y-50507200D02*
X121245238Y-50554819D01*
X121245238Y-50554819D02*
X120959524Y-50554819D01*
X120959524Y-50554819D02*
X120864286Y-50507200D01*
X120864286Y-50507200D02*
X120816667Y-50459580D01*
X133361905Y-57454819D02*
X133361905Y-56454819D01*
X133361905Y-56454819D02*
X133600000Y-56454819D01*
X133600000Y-56454819D02*
X133742857Y-56502438D01*
X133742857Y-56502438D02*
X133838095Y-56597676D01*
X133838095Y-56597676D02*
X133885714Y-56692914D01*
X133885714Y-56692914D02*
X133933333Y-56883390D01*
X133933333Y-56883390D02*
X133933333Y-57026247D01*
X133933333Y-57026247D02*
X133885714Y-57216723D01*
X133885714Y-57216723D02*
X133838095Y-57311961D01*
X133838095Y-57311961D02*
X133742857Y-57407200D01*
X133742857Y-57407200D02*
X133600000Y-57454819D01*
X133600000Y-57454819D02*
X133361905Y-57454819D01*
X134314286Y-56550057D02*
X134361905Y-56502438D01*
X134361905Y-56502438D02*
X134457143Y-56454819D01*
X134457143Y-56454819D02*
X134695238Y-56454819D01*
X134695238Y-56454819D02*
X134790476Y-56502438D01*
X134790476Y-56502438D02*
X134838095Y-56550057D01*
X134838095Y-56550057D02*
X134885714Y-56645295D01*
X134885714Y-56645295D02*
X134885714Y-56740533D01*
X134885714Y-56740533D02*
X134838095Y-56883390D01*
X134838095Y-56883390D02*
X134266667Y-57454819D01*
X134266667Y-57454819D02*
X134885714Y-57454819D01*
X128911905Y-50654819D02*
X128911905Y-49654819D01*
X128911905Y-49654819D02*
X129150000Y-49654819D01*
X129150000Y-49654819D02*
X129292857Y-49702438D01*
X129292857Y-49702438D02*
X129388095Y-49797676D01*
X129388095Y-49797676D02*
X129435714Y-49892914D01*
X129435714Y-49892914D02*
X129483333Y-50083390D01*
X129483333Y-50083390D02*
X129483333Y-50226247D01*
X129483333Y-50226247D02*
X129435714Y-50416723D01*
X129435714Y-50416723D02*
X129388095Y-50511961D01*
X129388095Y-50511961D02*
X129292857Y-50607200D01*
X129292857Y-50607200D02*
X129150000Y-50654819D01*
X129150000Y-50654819D02*
X128911905Y-50654819D01*
X130388095Y-49654819D02*
X129911905Y-49654819D01*
X129911905Y-49654819D02*
X129864286Y-50131009D01*
X129864286Y-50131009D02*
X129911905Y-50083390D01*
X129911905Y-50083390D02*
X130007143Y-50035771D01*
X130007143Y-50035771D02*
X130245238Y-50035771D01*
X130245238Y-50035771D02*
X130340476Y-50083390D01*
X130340476Y-50083390D02*
X130388095Y-50131009D01*
X130388095Y-50131009D02*
X130435714Y-50226247D01*
X130435714Y-50226247D02*
X130435714Y-50464342D01*
X130435714Y-50464342D02*
X130388095Y-50559580D01*
X130388095Y-50559580D02*
X130340476Y-50607200D01*
X130340476Y-50607200D02*
X130245238Y-50654819D01*
X130245238Y-50654819D02*
X130007143Y-50654819D01*
X130007143Y-50654819D02*
X129911905Y-50607200D01*
X129911905Y-50607200D02*
X129864286Y-50559580D01*
X161357142Y-38859580D02*
X161309523Y-38907200D01*
X161309523Y-38907200D02*
X161166666Y-38954819D01*
X161166666Y-38954819D02*
X161071428Y-38954819D01*
X161071428Y-38954819D02*
X160928571Y-38907200D01*
X160928571Y-38907200D02*
X160833333Y-38811961D01*
X160833333Y-38811961D02*
X160785714Y-38716723D01*
X160785714Y-38716723D02*
X160738095Y-38526247D01*
X160738095Y-38526247D02*
X160738095Y-38383390D01*
X160738095Y-38383390D02*
X160785714Y-38192914D01*
X160785714Y-38192914D02*
X160833333Y-38097676D01*
X160833333Y-38097676D02*
X160928571Y-38002438D01*
X160928571Y-38002438D02*
X161071428Y-37954819D01*
X161071428Y-37954819D02*
X161166666Y-37954819D01*
X161166666Y-37954819D02*
X161309523Y-38002438D01*
X161309523Y-38002438D02*
X161357142Y-38050057D01*
X162309523Y-38954819D02*
X161738095Y-38954819D01*
X162023809Y-38954819D02*
X162023809Y-37954819D01*
X162023809Y-37954819D02*
X161928571Y-38097676D01*
X161928571Y-38097676D02*
X161833333Y-38192914D01*
X161833333Y-38192914D02*
X161738095Y-38240533D01*
X162928571Y-37954819D02*
X163023809Y-37954819D01*
X163023809Y-37954819D02*
X163119047Y-38002438D01*
X163119047Y-38002438D02*
X163166666Y-38050057D01*
X163166666Y-38050057D02*
X163214285Y-38145295D01*
X163214285Y-38145295D02*
X163261904Y-38335771D01*
X163261904Y-38335771D02*
X163261904Y-38573866D01*
X163261904Y-38573866D02*
X163214285Y-38764342D01*
X163214285Y-38764342D02*
X163166666Y-38859580D01*
X163166666Y-38859580D02*
X163119047Y-38907200D01*
X163119047Y-38907200D02*
X163023809Y-38954819D01*
X163023809Y-38954819D02*
X162928571Y-38954819D01*
X162928571Y-38954819D02*
X162833333Y-38907200D01*
X162833333Y-38907200D02*
X162785714Y-38859580D01*
X162785714Y-38859580D02*
X162738095Y-38764342D01*
X162738095Y-38764342D02*
X162690476Y-38573866D01*
X162690476Y-38573866D02*
X162690476Y-38335771D01*
X162690476Y-38335771D02*
X162738095Y-38145295D01*
X162738095Y-38145295D02*
X162785714Y-38050057D01*
X162785714Y-38050057D02*
X162833333Y-38002438D01*
X162833333Y-38002438D02*
X162928571Y-37954819D01*
X163366667Y-46782200D02*
X163509524Y-46829819D01*
X163509524Y-46829819D02*
X163747619Y-46829819D01*
X163747619Y-46829819D02*
X163842857Y-46782200D01*
X163842857Y-46782200D02*
X163890476Y-46734580D01*
X163890476Y-46734580D02*
X163938095Y-46639342D01*
X163938095Y-46639342D02*
X163938095Y-46544104D01*
X163938095Y-46544104D02*
X163890476Y-46448866D01*
X163890476Y-46448866D02*
X163842857Y-46401247D01*
X163842857Y-46401247D02*
X163747619Y-46353628D01*
X163747619Y-46353628D02*
X163557143Y-46306009D01*
X163557143Y-46306009D02*
X163461905Y-46258390D01*
X163461905Y-46258390D02*
X163414286Y-46210771D01*
X163414286Y-46210771D02*
X163366667Y-46115533D01*
X163366667Y-46115533D02*
X163366667Y-46020295D01*
X163366667Y-46020295D02*
X163414286Y-45925057D01*
X163414286Y-45925057D02*
X163461905Y-45877438D01*
X163461905Y-45877438D02*
X163557143Y-45829819D01*
X163557143Y-45829819D02*
X163795238Y-45829819D01*
X163795238Y-45829819D02*
X163938095Y-45877438D01*
X164271429Y-45829819D02*
X164509524Y-46829819D01*
X164509524Y-46829819D02*
X164700000Y-46115533D01*
X164700000Y-46115533D02*
X164890476Y-46829819D01*
X164890476Y-46829819D02*
X165128572Y-45829819D01*
X165461905Y-45925057D02*
X165509524Y-45877438D01*
X165509524Y-45877438D02*
X165604762Y-45829819D01*
X165604762Y-45829819D02*
X165842857Y-45829819D01*
X165842857Y-45829819D02*
X165938095Y-45877438D01*
X165938095Y-45877438D02*
X165985714Y-45925057D01*
X165985714Y-45925057D02*
X166033333Y-46020295D01*
X166033333Y-46020295D02*
X166033333Y-46115533D01*
X166033333Y-46115533D02*
X165985714Y-46258390D01*
X165985714Y-46258390D02*
X165414286Y-46829819D01*
X165414286Y-46829819D02*
X166033333Y-46829819D01*
D11*
%TO.C,C9*%
X160965000Y-48853080D02*
X160965000Y-48571920D01*
X161985000Y-48853080D02*
X161985000Y-48571920D01*
%TO.C,R4*%
X137262742Y-42877500D02*
X137737258Y-42877500D01*
X137262742Y-43922500D02*
X137737258Y-43922500D01*
%TO.C,R5*%
X160952500Y-52349758D02*
X160952500Y-51875242D01*
X161997500Y-52349758D02*
X161997500Y-51875242D01*
%TO.C,D1*%
X117000000Y-60140000D02*
X117000000Y-64150000D01*
X119000000Y-60140000D02*
X117000000Y-60140000D01*
X119000000Y-60140000D02*
X119000000Y-64150000D01*
%TO.C,R2*%
X133862742Y-60377500D02*
X134337258Y-60377500D01*
X133862742Y-61422500D02*
X134337258Y-61422500D01*
%TO.C,R1*%
X133862742Y-63877500D02*
X134337258Y-63877500D01*
X133862742Y-64922500D02*
X134337258Y-64922500D01*
D12*
%TO.C,SW1*%
X163155000Y-52500000D02*
X163155000Y-48300000D01*
X164275000Y-48300000D02*
X165275000Y-48300000D01*
X164275000Y-52500000D02*
X165275000Y-52500000D01*
X166395000Y-48300000D02*
X166395000Y-52500000D01*
D13*
X165975000Y-47300000D02*
G75*
G02*
X165775000Y-47300000I-100000J0D01*
G01*
X165775000Y-47300000D02*
G75*
G02*
X165975000Y-47300000I100000J0D01*
G01*
D11*
%TO.C,C3*%
X123590000Y-37540580D02*
X123590000Y-37259420D01*
X124610000Y-37540580D02*
X124610000Y-37259420D01*
%TO.C,C8*%
X137640580Y-37990000D02*
X137359420Y-37990000D01*
X137640580Y-39010000D02*
X137359420Y-39010000D01*
D12*
%TO.C,J1*%
X121030000Y-60550000D02*
X121030000Y-62230000D01*
X121030000Y-66000000D02*
X121030000Y-64570000D01*
X121030000Y-66000000D02*
X129970000Y-66000000D01*
X129970000Y-60550000D02*
X129970000Y-62230000D01*
X129970000Y-66000000D02*
X129970000Y-64570000D01*
D13*
X122400000Y-57400000D02*
G75*
G02*
X122200000Y-57400000I-100000J0D01*
G01*
X122200000Y-57400000D02*
G75*
G02*
X122400000Y-57400000I100000J0D01*
G01*
D11*
%TO.C,C4*%
X131490000Y-45159420D02*
X131490000Y-45440580D01*
X132510000Y-45159420D02*
X132510000Y-45440580D01*
%TO.C,C1*%
X117490000Y-57234420D02*
X117490000Y-57515580D01*
X118510000Y-57234420D02*
X118510000Y-57515580D01*
D12*
%TO.C,J2*%
X84635000Y-37395000D02*
X84635000Y-65105000D01*
X84635000Y-65105000D02*
X114225000Y-65105000D01*
X99875000Y-37395000D02*
X84635000Y-37395000D01*
X99875000Y-37925000D02*
X99875000Y-37395000D01*
X114225000Y-37925000D02*
X99875000Y-37925000D01*
X114225000Y-65105000D02*
X114225000Y-37925000D01*
D13*
X115540000Y-47065000D02*
G75*
G02*
X115340000Y-47065000I-100000J0D01*
G01*
X115340000Y-47065000D02*
G75*
G02*
X115540000Y-47065000I100000J0D01*
G01*
D11*
%TO.C,R9*%
X137262742Y-39577500D02*
X137737258Y-39577500D01*
X137262742Y-40622500D02*
X137737258Y-40622500D01*
%TO.C,C6*%
X137640580Y-41190000D02*
X137359420Y-41190000D01*
X137640580Y-42210000D02*
X137359420Y-42210000D01*
%TO.C,U2*%
X141300000Y-28800000D02*
X141300000Y-35000000D01*
X141300000Y-28800000D02*
X159700000Y-28800000D01*
X141300000Y-53650000D02*
X141300000Y-54650000D01*
X141300000Y-54650000D02*
X142800000Y-54650000D01*
X159700000Y-28800000D02*
X159700000Y-35000000D01*
X159700000Y-54650000D02*
X158200000Y-54650000D01*
X159700000Y-54650000D02*
X159700000Y-53650000D01*
X141300000Y-35675000D02*
X140800000Y-35675000D01*
X141300000Y-35175000D01*
X141300000Y-35675000D01*
G36*
X141300000Y-35675000D02*
G01*
X140800000Y-35675000D01*
X141300000Y-35175000D01*
X141300000Y-35675000D01*
G37*
%TO.C,R6*%
X160877500Y-44537258D02*
X160877500Y-44062742D01*
X161922500Y-44537258D02*
X161922500Y-44062742D01*
%TO.C,U1*%
X122190000Y-42350000D02*
X122190000Y-46110000D01*
X122190000Y-46110000D02*
X123450000Y-46110000D01*
X129010000Y-42350000D02*
X129010000Y-46110000D01*
X129010000Y-46110000D02*
X127750000Y-46110000D01*
X129240000Y-41310000D02*
X128910000Y-41070000D01*
X129240000Y-40830000D01*
X129240000Y-41310000D01*
G36*
X129240000Y-41310000D02*
G01*
X128910000Y-41070000D01*
X129240000Y-40830000D01*
X129240000Y-41310000D01*
G37*
%TO.C,C5*%
X129790000Y-45159420D02*
X129790000Y-45440580D01*
X130810000Y-45159420D02*
X130810000Y-45440580D01*
%TO.C,C7*%
X137640580Y-36290000D02*
X137359420Y-36290000D01*
X137640580Y-37310000D02*
X137359420Y-37310000D01*
%TO.C,D4*%
X127300000Y-54700000D02*
X129260000Y-54700000D01*
X127300000Y-55900000D02*
X129260000Y-55900000D01*
X129260000Y-55900000D02*
X129260000Y-54700000D01*
%TO.C,D3*%
X122740000Y-54700000D02*
X122740000Y-55900000D01*
X124700000Y-54700000D02*
X122740000Y-54700000D01*
X124700000Y-55900000D02*
X122740000Y-55900000D01*
%TO.C,C2*%
X121590000Y-37540580D02*
X121590000Y-37259420D01*
X122610000Y-37540580D02*
X122610000Y-37259420D01*
%TO.C,R3*%
X123162742Y-49577500D02*
X123637258Y-49577500D01*
X123162742Y-50622500D02*
X123637258Y-50622500D01*
%TO.C,D2*%
X133400000Y-57900000D02*
X135360000Y-57900000D01*
X133400000Y-59100000D02*
X135360000Y-59100000D01*
X135360000Y-59100000D02*
X135360000Y-57900000D01*
D14*
%TO.C,D5*%
X128540000Y-50100000D02*
G75*
G02*
X128440000Y-50100000I-50000J0D01*
G01*
X128440000Y-50100000D02*
G75*
G02*
X128540000Y-50100000I50000J0D01*
G01*
D11*
%TO.C,C10*%
X160890000Y-40940580D02*
X160890000Y-40659420D01*
X161910000Y-40940580D02*
X161910000Y-40659420D01*
D12*
%TO.C,SW2*%
X163080000Y-44675000D02*
X163080000Y-40475000D01*
X164200000Y-40475000D02*
X165200000Y-40475000D01*
X164200000Y-44675000D02*
X165200000Y-44675000D01*
X166320000Y-40475000D02*
X166320000Y-44675000D01*
D13*
X165900000Y-39475000D02*
G75*
G02*
X165700000Y-39475000I-100000J0D01*
G01*
X165700000Y-39475000D02*
G75*
G02*
X165900000Y-39475000I100000J0D01*
G01*
%TD*%
M02*
