%TF.GenerationSoftware,KiCad,Pcbnew,9.0.1*%
%TF.CreationDate,2025-10-12T18:30:29-07:00*%
%TF.ProjectId,esp-32 s3 template,6573702d-3332-4207-9333-2074656d706c,rev?*%
%TF.SameCoordinates,Original*%
%TF.FileFunction,Legend,Bot*%
%TF.FilePolarity,Positive*%
%FSLAX46Y46*%
G04 Gerber Fmt 4.6, Leading zero omitted, Abs format (unit mm)*
G04 Created by KiCad (PCBNEW 9.0.1) date 2025-10-12 18:30:29*
%MOMM*%
%LPD*%
G01*
G04 APERTURE LIST*
%ADD10C,0.150000*%
%ADD11C,0.120000*%
%ADD12C,0.127000*%
%ADD13C,0.200000*%
G04 APERTURE END LIST*
D10*
X143159580Y-50857142D02*
X143207200Y-50809523D01*
X143207200Y-50809523D02*
X143254819Y-50666666D01*
X143254819Y-50666666D02*
X143254819Y-50571428D01*
X143254819Y-50571428D02*
X143207200Y-50428571D01*
X143207200Y-50428571D02*
X143111961Y-50333333D01*
X143111961Y-50333333D02*
X143016723Y-50285714D01*
X143016723Y-50285714D02*
X142826247Y-50238095D01*
X142826247Y-50238095D02*
X142683390Y-50238095D01*
X142683390Y-50238095D02*
X142492914Y-50285714D01*
X142492914Y-50285714D02*
X142397676Y-50333333D01*
X142397676Y-50333333D02*
X142302438Y-50428571D01*
X142302438Y-50428571D02*
X142254819Y-50571428D01*
X142254819Y-50571428D02*
X142254819Y-50666666D01*
X142254819Y-50666666D02*
X142302438Y-50809523D01*
X142302438Y-50809523D02*
X142350057Y-50857142D01*
X143254819Y-51809523D02*
X143254819Y-51238095D01*
X143254819Y-51523809D02*
X142254819Y-51523809D01*
X142254819Y-51523809D02*
X142397676Y-51428571D01*
X142397676Y-51428571D02*
X142492914Y-51333333D01*
X142492914Y-51333333D02*
X142540533Y-51238095D01*
X142254819Y-52142857D02*
X142254819Y-52761904D01*
X142254819Y-52761904D02*
X142635771Y-52428571D01*
X142635771Y-52428571D02*
X142635771Y-52571428D01*
X142635771Y-52571428D02*
X142683390Y-52666666D01*
X142683390Y-52666666D02*
X142731009Y-52714285D01*
X142731009Y-52714285D02*
X142826247Y-52761904D01*
X142826247Y-52761904D02*
X143064342Y-52761904D01*
X143064342Y-52761904D02*
X143159580Y-52714285D01*
X143159580Y-52714285D02*
X143207200Y-52666666D01*
X143207200Y-52666666D02*
X143254819Y-52571428D01*
X143254819Y-52571428D02*
X143254819Y-52285714D01*
X143254819Y-52285714D02*
X143207200Y-52190476D01*
X143207200Y-52190476D02*
X143159580Y-52142857D01*
X152304819Y-55690476D02*
X153304819Y-56357142D01*
X152304819Y-56357142D02*
X153304819Y-55690476D01*
X153304819Y-57261904D02*
X153304819Y-56690476D01*
X153304819Y-56976190D02*
X152304819Y-56976190D01*
X152304819Y-56976190D02*
X152447676Y-56880952D01*
X152447676Y-56880952D02*
X152542914Y-56785714D01*
X152542914Y-56785714D02*
X152590533Y-56690476D01*
X145359580Y-63357142D02*
X145407200Y-63309523D01*
X145407200Y-63309523D02*
X145454819Y-63166666D01*
X145454819Y-63166666D02*
X145454819Y-63071428D01*
X145454819Y-63071428D02*
X145407200Y-62928571D01*
X145407200Y-62928571D02*
X145311961Y-62833333D01*
X145311961Y-62833333D02*
X145216723Y-62785714D01*
X145216723Y-62785714D02*
X145026247Y-62738095D01*
X145026247Y-62738095D02*
X144883390Y-62738095D01*
X144883390Y-62738095D02*
X144692914Y-62785714D01*
X144692914Y-62785714D02*
X144597676Y-62833333D01*
X144597676Y-62833333D02*
X144502438Y-62928571D01*
X144502438Y-62928571D02*
X144454819Y-63071428D01*
X144454819Y-63071428D02*
X144454819Y-63166666D01*
X144454819Y-63166666D02*
X144502438Y-63309523D01*
X144502438Y-63309523D02*
X144550057Y-63357142D01*
X145454819Y-64309523D02*
X145454819Y-63738095D01*
X145454819Y-64023809D02*
X144454819Y-64023809D01*
X144454819Y-64023809D02*
X144597676Y-63928571D01*
X144597676Y-63928571D02*
X144692914Y-63833333D01*
X144692914Y-63833333D02*
X144740533Y-63738095D01*
X144788152Y-65166666D02*
X145454819Y-65166666D01*
X144407200Y-64928571D02*
X145121485Y-64690476D01*
X145121485Y-64690476D02*
X145121485Y-65309523D01*
X118624819Y-45538095D02*
X119434342Y-45538095D01*
X119434342Y-45538095D02*
X119529580Y-45585714D01*
X119529580Y-45585714D02*
X119577200Y-45633333D01*
X119577200Y-45633333D02*
X119624819Y-45728571D01*
X119624819Y-45728571D02*
X119624819Y-45919047D01*
X119624819Y-45919047D02*
X119577200Y-46014285D01*
X119577200Y-46014285D02*
X119529580Y-46061904D01*
X119529580Y-46061904D02*
X119434342Y-46109523D01*
X119434342Y-46109523D02*
X118624819Y-46109523D01*
X118624819Y-46490476D02*
X118624819Y-47109523D01*
X118624819Y-47109523D02*
X119005771Y-46776190D01*
X119005771Y-46776190D02*
X119005771Y-46919047D01*
X119005771Y-46919047D02*
X119053390Y-47014285D01*
X119053390Y-47014285D02*
X119101009Y-47061904D01*
X119101009Y-47061904D02*
X119196247Y-47109523D01*
X119196247Y-47109523D02*
X119434342Y-47109523D01*
X119434342Y-47109523D02*
X119529580Y-47061904D01*
X119529580Y-47061904D02*
X119577200Y-47014285D01*
X119577200Y-47014285D02*
X119624819Y-46919047D01*
X119624819Y-46919047D02*
X119624819Y-46633333D01*
X119624819Y-46633333D02*
X119577200Y-46538095D01*
X119577200Y-46538095D02*
X119529580Y-46490476D01*
X135142857Y-54859580D02*
X135190476Y-54907200D01*
X135190476Y-54907200D02*
X135333333Y-54954819D01*
X135333333Y-54954819D02*
X135428571Y-54954819D01*
X135428571Y-54954819D02*
X135571428Y-54907200D01*
X135571428Y-54907200D02*
X135666666Y-54811961D01*
X135666666Y-54811961D02*
X135714285Y-54716723D01*
X135714285Y-54716723D02*
X135761904Y-54526247D01*
X135761904Y-54526247D02*
X135761904Y-54383390D01*
X135761904Y-54383390D02*
X135714285Y-54192914D01*
X135714285Y-54192914D02*
X135666666Y-54097676D01*
X135666666Y-54097676D02*
X135571428Y-54002438D01*
X135571428Y-54002438D02*
X135428571Y-53954819D01*
X135428571Y-53954819D02*
X135333333Y-53954819D01*
X135333333Y-53954819D02*
X135190476Y-54002438D01*
X135190476Y-54002438D02*
X135142857Y-54050057D01*
X134190476Y-54954819D02*
X134761904Y-54954819D01*
X134476190Y-54954819D02*
X134476190Y-53954819D01*
X134476190Y-53954819D02*
X134571428Y-54097676D01*
X134571428Y-54097676D02*
X134666666Y-54192914D01*
X134666666Y-54192914D02*
X134761904Y-54240533D01*
X133809523Y-54050057D02*
X133761904Y-54002438D01*
X133761904Y-54002438D02*
X133666666Y-53954819D01*
X133666666Y-53954819D02*
X133428571Y-53954819D01*
X133428571Y-53954819D02*
X133333333Y-54002438D01*
X133333333Y-54002438D02*
X133285714Y-54050057D01*
X133285714Y-54050057D02*
X133238095Y-54145295D01*
X133238095Y-54145295D02*
X133238095Y-54240533D01*
X133238095Y-54240533D02*
X133285714Y-54383390D01*
X133285714Y-54383390D02*
X133857142Y-54954819D01*
X133857142Y-54954819D02*
X133238095Y-54954819D01*
X125366666Y-55484819D02*
X125699999Y-55008628D01*
X125938094Y-55484819D02*
X125938094Y-54484819D01*
X125938094Y-54484819D02*
X125557142Y-54484819D01*
X125557142Y-54484819D02*
X125461904Y-54532438D01*
X125461904Y-54532438D02*
X125414285Y-54580057D01*
X125414285Y-54580057D02*
X125366666Y-54675295D01*
X125366666Y-54675295D02*
X125366666Y-54818152D01*
X125366666Y-54818152D02*
X125414285Y-54913390D01*
X125414285Y-54913390D02*
X125461904Y-54961009D01*
X125461904Y-54961009D02*
X125557142Y-55008628D01*
X125557142Y-55008628D02*
X125938094Y-55008628D01*
X124795237Y-54913390D02*
X124890475Y-54865771D01*
X124890475Y-54865771D02*
X124938094Y-54818152D01*
X124938094Y-54818152D02*
X124985713Y-54722914D01*
X124985713Y-54722914D02*
X124985713Y-54675295D01*
X124985713Y-54675295D02*
X124938094Y-54580057D01*
X124938094Y-54580057D02*
X124890475Y-54532438D01*
X124890475Y-54532438D02*
X124795237Y-54484819D01*
X124795237Y-54484819D02*
X124604761Y-54484819D01*
X124604761Y-54484819D02*
X124509523Y-54532438D01*
X124509523Y-54532438D02*
X124461904Y-54580057D01*
X124461904Y-54580057D02*
X124414285Y-54675295D01*
X124414285Y-54675295D02*
X124414285Y-54722914D01*
X124414285Y-54722914D02*
X124461904Y-54818152D01*
X124461904Y-54818152D02*
X124509523Y-54865771D01*
X124509523Y-54865771D02*
X124604761Y-54913390D01*
X124604761Y-54913390D02*
X124795237Y-54913390D01*
X124795237Y-54913390D02*
X124890475Y-54961009D01*
X124890475Y-54961009D02*
X124938094Y-55008628D01*
X124938094Y-55008628D02*
X124985713Y-55103866D01*
X124985713Y-55103866D02*
X124985713Y-55294342D01*
X124985713Y-55294342D02*
X124938094Y-55389580D01*
X124938094Y-55389580D02*
X124890475Y-55437200D01*
X124890475Y-55437200D02*
X124795237Y-55484819D01*
X124795237Y-55484819D02*
X124604761Y-55484819D01*
X124604761Y-55484819D02*
X124509523Y-55437200D01*
X124509523Y-55437200D02*
X124461904Y-55389580D01*
X124461904Y-55389580D02*
X124414285Y-55294342D01*
X124414285Y-55294342D02*
X124414285Y-55103866D01*
X124414285Y-55103866D02*
X124461904Y-55008628D01*
X124461904Y-55008628D02*
X124509523Y-54961009D01*
X124509523Y-54961009D02*
X124604761Y-54913390D01*
X140754819Y-45538095D02*
X141564342Y-45538095D01*
X141564342Y-45538095D02*
X141659580Y-45585714D01*
X141659580Y-45585714D02*
X141707200Y-45633333D01*
X141707200Y-45633333D02*
X141754819Y-45728571D01*
X141754819Y-45728571D02*
X141754819Y-45919047D01*
X141754819Y-45919047D02*
X141707200Y-46014285D01*
X141707200Y-46014285D02*
X141659580Y-46061904D01*
X141659580Y-46061904D02*
X141564342Y-46109523D01*
X141564342Y-46109523D02*
X140754819Y-46109523D01*
X141088152Y-47014285D02*
X141754819Y-47014285D01*
X140707200Y-46776190D02*
X141421485Y-46538095D01*
X141421485Y-46538095D02*
X141421485Y-47157142D01*
X161669523Y-55554295D02*
X161669523Y-56201914D01*
X161669523Y-56201914D02*
X161631428Y-56278104D01*
X161631428Y-56278104D02*
X161593333Y-56316200D01*
X161593333Y-56316200D02*
X161517142Y-56354295D01*
X161517142Y-56354295D02*
X161364761Y-56354295D01*
X161364761Y-56354295D02*
X161288571Y-56316200D01*
X161288571Y-56316200D02*
X161250476Y-56278104D01*
X161250476Y-56278104D02*
X161212380Y-56201914D01*
X161212380Y-56201914D02*
X161212380Y-55554295D01*
X160450476Y-55554295D02*
X160831428Y-55554295D01*
X160831428Y-55554295D02*
X160869524Y-55935247D01*
X160869524Y-55935247D02*
X160831428Y-55897152D01*
X160831428Y-55897152D02*
X160755238Y-55859057D01*
X160755238Y-55859057D02*
X160564762Y-55859057D01*
X160564762Y-55859057D02*
X160488571Y-55897152D01*
X160488571Y-55897152D02*
X160450476Y-55935247D01*
X160450476Y-55935247D02*
X160412381Y-56011438D01*
X160412381Y-56011438D02*
X160412381Y-56201914D01*
X160412381Y-56201914D02*
X160450476Y-56278104D01*
X160450476Y-56278104D02*
X160488571Y-56316200D01*
X160488571Y-56316200D02*
X160564762Y-56354295D01*
X160564762Y-56354295D02*
X160755238Y-56354295D01*
X160755238Y-56354295D02*
X160831428Y-56316200D01*
X160831428Y-56316200D02*
X160869524Y-56278104D01*
X122142857Y-55479580D02*
X122190476Y-55527200D01*
X122190476Y-55527200D02*
X122333333Y-55574819D01*
X122333333Y-55574819D02*
X122428571Y-55574819D01*
X122428571Y-55574819D02*
X122571428Y-55527200D01*
X122571428Y-55527200D02*
X122666666Y-55431961D01*
X122666666Y-55431961D02*
X122714285Y-55336723D01*
X122714285Y-55336723D02*
X122761904Y-55146247D01*
X122761904Y-55146247D02*
X122761904Y-55003390D01*
X122761904Y-55003390D02*
X122714285Y-54812914D01*
X122714285Y-54812914D02*
X122666666Y-54717676D01*
X122666666Y-54717676D02*
X122571428Y-54622438D01*
X122571428Y-54622438D02*
X122428571Y-54574819D01*
X122428571Y-54574819D02*
X122333333Y-54574819D01*
X122333333Y-54574819D02*
X122190476Y-54622438D01*
X122190476Y-54622438D02*
X122142857Y-54670057D01*
X121190476Y-55574819D02*
X121761904Y-55574819D01*
X121476190Y-55574819D02*
X121476190Y-54574819D01*
X121476190Y-54574819D02*
X121571428Y-54717676D01*
X121571428Y-54717676D02*
X121666666Y-54812914D01*
X121666666Y-54812914D02*
X121761904Y-54860533D01*
X120238095Y-55574819D02*
X120809523Y-55574819D01*
X120523809Y-55574819D02*
X120523809Y-54574819D01*
X120523809Y-54574819D02*
X120619047Y-54717676D01*
X120619047Y-54717676D02*
X120714285Y-54812914D01*
X120714285Y-54812914D02*
X120809523Y-54860533D01*
X163954819Y-44261905D02*
X162954819Y-44261905D01*
X162954819Y-44261905D02*
X162954819Y-44500000D01*
X162954819Y-44500000D02*
X163002438Y-44642857D01*
X163002438Y-44642857D02*
X163097676Y-44738095D01*
X163097676Y-44738095D02*
X163192914Y-44785714D01*
X163192914Y-44785714D02*
X163383390Y-44833333D01*
X163383390Y-44833333D02*
X163526247Y-44833333D01*
X163526247Y-44833333D02*
X163716723Y-44785714D01*
X163716723Y-44785714D02*
X163811961Y-44738095D01*
X163811961Y-44738095D02*
X163907200Y-44642857D01*
X163907200Y-44642857D02*
X163954819Y-44500000D01*
X163954819Y-44500000D02*
X163954819Y-44261905D01*
X162954819Y-45690476D02*
X162954819Y-45500000D01*
X162954819Y-45500000D02*
X163002438Y-45404762D01*
X163002438Y-45404762D02*
X163050057Y-45357143D01*
X163050057Y-45357143D02*
X163192914Y-45261905D01*
X163192914Y-45261905D02*
X163383390Y-45214286D01*
X163383390Y-45214286D02*
X163764342Y-45214286D01*
X163764342Y-45214286D02*
X163859580Y-45261905D01*
X163859580Y-45261905D02*
X163907200Y-45309524D01*
X163907200Y-45309524D02*
X163954819Y-45404762D01*
X163954819Y-45404762D02*
X163954819Y-45595238D01*
X163954819Y-45595238D02*
X163907200Y-45690476D01*
X163907200Y-45690476D02*
X163859580Y-45738095D01*
X163859580Y-45738095D02*
X163764342Y-45785714D01*
X163764342Y-45785714D02*
X163526247Y-45785714D01*
X163526247Y-45785714D02*
X163431009Y-45738095D01*
X163431009Y-45738095D02*
X163383390Y-45690476D01*
X163383390Y-45690476D02*
X163335771Y-45595238D01*
X163335771Y-45595238D02*
X163335771Y-45404762D01*
X163335771Y-45404762D02*
X163383390Y-45309524D01*
X163383390Y-45309524D02*
X163431009Y-45261905D01*
X163431009Y-45261905D02*
X163526247Y-45214286D01*
X135142857Y-52859580D02*
X135190476Y-52907200D01*
X135190476Y-52907200D02*
X135333333Y-52954819D01*
X135333333Y-52954819D02*
X135428571Y-52954819D01*
X135428571Y-52954819D02*
X135571428Y-52907200D01*
X135571428Y-52907200D02*
X135666666Y-52811961D01*
X135666666Y-52811961D02*
X135714285Y-52716723D01*
X135714285Y-52716723D02*
X135761904Y-52526247D01*
X135761904Y-52526247D02*
X135761904Y-52383390D01*
X135761904Y-52383390D02*
X135714285Y-52192914D01*
X135714285Y-52192914D02*
X135666666Y-52097676D01*
X135666666Y-52097676D02*
X135571428Y-52002438D01*
X135571428Y-52002438D02*
X135428571Y-51954819D01*
X135428571Y-51954819D02*
X135333333Y-51954819D01*
X135333333Y-51954819D02*
X135190476Y-52002438D01*
X135190476Y-52002438D02*
X135142857Y-52050057D01*
X134190476Y-52954819D02*
X134761904Y-52954819D01*
X134476190Y-52954819D02*
X134476190Y-51954819D01*
X134476190Y-51954819D02*
X134571428Y-52097676D01*
X134571428Y-52097676D02*
X134666666Y-52192914D01*
X134666666Y-52192914D02*
X134761904Y-52240533D01*
X133285714Y-51954819D02*
X133761904Y-51954819D01*
X133761904Y-51954819D02*
X133809523Y-52431009D01*
X133809523Y-52431009D02*
X133761904Y-52383390D01*
X133761904Y-52383390D02*
X133666666Y-52335771D01*
X133666666Y-52335771D02*
X133428571Y-52335771D01*
X133428571Y-52335771D02*
X133333333Y-52383390D01*
X133333333Y-52383390D02*
X133285714Y-52431009D01*
X133285714Y-52431009D02*
X133238095Y-52526247D01*
X133238095Y-52526247D02*
X133238095Y-52764342D01*
X133238095Y-52764342D02*
X133285714Y-52859580D01*
X133285714Y-52859580D02*
X133333333Y-52907200D01*
X133333333Y-52907200D02*
X133428571Y-52954819D01*
X133428571Y-52954819D02*
X133666666Y-52954819D01*
X133666666Y-52954819D02*
X133761904Y-52907200D01*
X133761904Y-52907200D02*
X133809523Y-52859580D01*
D11*
%TO.C,C13*%
X144540000Y-51640580D02*
X144540000Y-51359420D01*
X145560000Y-51640580D02*
X145560000Y-51359420D01*
%TO.C,X1*%
X146690000Y-63260000D02*
X146690000Y-50540000D01*
X151910000Y-50540000D02*
X151910000Y-63260000D01*
X151910000Y-63260000D02*
X146690000Y-63260000D01*
%TO.C,C14*%
X144540000Y-60640580D02*
X144540000Y-60359420D01*
X145560000Y-60640580D02*
X145560000Y-60359420D01*
%TO.C,U3*%
X120015000Y-42440000D02*
X120015000Y-50160000D01*
X120015000Y-50160000D02*
X120260000Y-50160000D01*
X120260000Y-42440000D02*
X120015000Y-42440000D01*
X131540000Y-50160000D02*
X131785000Y-50160000D01*
X131785000Y-42440000D02*
X131540000Y-42440000D01*
X131785000Y-50160000D02*
X131785000Y-42440000D01*
X120260000Y-41650000D02*
X119790000Y-41990000D01*
X119790000Y-41310000D01*
X120260000Y-41650000D01*
G36*
X120260000Y-41650000D02*
G01*
X119790000Y-41990000D01*
X119790000Y-41310000D01*
X120260000Y-41650000D01*
G37*
%TO.C,C12*%
X137840580Y-53790000D02*
X137559420Y-53790000D01*
X137840580Y-54810000D02*
X137559420Y-54810000D01*
%TO.C,R8*%
X124962742Y-53077500D02*
X125437258Y-53077500D01*
X124962742Y-54122500D02*
X125437258Y-54122500D01*
%TO.C,U4*%
X134940000Y-43540000D02*
X134940000Y-49060000D01*
X134940000Y-49060000D02*
X135210000Y-49060000D01*
X135210000Y-43540000D02*
X134940000Y-43540000D01*
X140190000Y-49060000D02*
X140460000Y-49060000D01*
X140460000Y-43540000D02*
X140190000Y-43540000D01*
X140460000Y-49060000D02*
X140460000Y-43540000D01*
X140670000Y-50230000D02*
X140200000Y-49890000D01*
X140670000Y-49550000D01*
X140670000Y-50230000D01*
G36*
X140670000Y-50230000D02*
G01*
X140200000Y-49890000D01*
X140670000Y-49550000D01*
X140670000Y-50230000D01*
G37*
D12*
%TO.C,U5*%
X164029130Y-58005180D02*
X164713610Y-57320700D01*
X164713610Y-57320700D02*
X165279300Y-57886390D01*
X165279300Y-57886390D02*
X164594820Y-58570870D01*
X156540000Y-61500000D02*
G75*
G02*
X161100000Y-56940000I4560000J0D01*
G01*
X161100000Y-56940000D02*
G75*
G02*
X164029130Y-58005180I-2J-4559992D01*
G01*
X161100000Y-66060000D02*
G75*
G02*
X156540000Y-61500000I0J4560000D01*
G01*
X164594820Y-58570870D02*
G75*
G02*
X165660000Y-61500000I-3494812J-2929132D01*
G01*
X165660000Y-61500000D02*
G75*
G02*
X161100000Y-66060000I-4560000J0D01*
G01*
D13*
X166480000Y-61500000D02*
G75*
G02*
X166280000Y-61500000I-100000J0D01*
G01*
X166280000Y-61500000D02*
G75*
G02*
X166480000Y-61500000I100000J0D01*
G01*
D11*
%TO.C,C11*%
X119980000Y-52775000D02*
X122300000Y-52775000D01*
X119980000Y-54425000D02*
X119980000Y-52775000D01*
X122300000Y-54425000D02*
X119980000Y-54425000D01*
%TO.C,D6*%
X157250000Y-41500000D02*
X157250000Y-48500000D01*
X157250000Y-41500000D02*
X162750000Y-41500000D01*
X160900000Y-42300000D02*
X159100000Y-42300000D01*
X160900000Y-47700000D02*
X159100000Y-47700000D01*
X162300000Y-48500000D02*
X157250000Y-48500000D01*
X162750000Y-41500000D02*
X162750000Y-48050000D01*
X162750000Y-48050000D02*
X162300000Y-48500000D01*
%TO.C,C15*%
X137840580Y-51790000D02*
X137559420Y-51790000D01*
X137840580Y-52810000D02*
X137559420Y-52810000D01*
%TD*%
M02*
