M48
; DRILL file {KiCad 9.0.1} date 2025-10-12T18:30:31-0700
; FORMAT={-:-/ absolute / metric / decimal}
; #@! TF.CreationDate,2025-10-12T18:30:31-07:00
; #@! TF.GenerationSoftware,Kicad,Pcbnew,9.0.1
; #@! TF.FileFunction,Plated,1,2,PTH
FMAT,2
METRIC
; #@! TA.AperFunction,Plated,PTH,ComponentDrill
T1C0.200
; #@! TA.AperFunction,Plated,PTH,ViaDrill
T2C0.300
; #@! TA.AperFunction,Plated,PTH,ComponentDrill
T3C0.600
; #@! TA.AperFunction,Plated,PTH,ComponentDrill
T4C0.690
; #@! TA.AperFunction,Plated,PTH,ComponentDrill
T5C1.930
%
G90
G05
T1
X147.6Y-43.46
X147.6Y-44.86
X148.3Y-42.76
X148.3Y-44.16
X148.3Y-45.56
X149.0Y-43.46
X149.0Y-44.86
X149.7Y-42.76
X149.7Y-44.16
X149.7Y-45.56
X150.4Y-43.46
X150.4Y-44.86
T2
X119.1Y-53.6
X120.5Y-56.5
X123.4Y-54.4
X128.406Y-39.559
X129.1Y-37.2
X129.4Y-47.5
X129.7Y-39.6
X129.9Y-35.8
X132.5Y-48.7
X132.9Y-41.6
X134.0Y-42.7
X134.6Y-46.6
X134.674Y-40.674
X138.5Y-58.9
X140.3Y-58.6
X140.5Y-62.8
X140.9Y-61.2
X142.1Y-57.1
X156.1Y-38.7
X156.2Y-40.3
X157.2Y-45.2
X157.5Y-56.6
X161.5Y-37.4
X162.8Y-47.1
X165.5Y-55.6
T4
X158.56Y-61.5
X161.1Y-58.96
X161.1Y-64.04
X163.64Y-61.5
T5
X107.755Y-47.065
X107.755Y-51.515
X107.755Y-55.955
X112.205Y-47.065
X112.205Y-51.515
X112.205Y-55.955
T3
G00X121.175Y-58.68
M15
G01X121.175Y-59.78
M16
G05
G00X121.175Y-63.0
M15
G01X121.175Y-63.8
M16
G05
G00X129.825Y-58.68
M15
G01X129.825Y-59.78
M16
G05
G00X129.825Y-63.0
M15
G01X129.825Y-63.8
M16
G05
M30
