%TF.GenerationSoftware,KiCad,Pcbnew,9.0.1*%
%TF.CreationDate,2025-10-12T18:30:29-07:00*%
%TF.ProjectId,esp-32 s3 template,6573702d-3332-4207-9333-2074656d706c,rev?*%
%TF.SameCoordinates,Original*%
%TF.FileFunction,Soldermask,Top*%
%TF.FilePolarity,Negative*%
%FSLAX46Y46*%
G04 Gerber Fmt 4.6, Leading zero omitted, Abs format (unit mm)*
G04 Created by KiCad (PCBNEW 9.0.1) date 2025-10-12 18:30:29*
%MOMM*%
%LPD*%
G01*
G04 APERTURE LIST*
G04 Aperture macros list*
%AMRoundRect*
0 Rectangle with rounded corners*
0 $1 Rounding radius*
0 $2 $3 $4 $5 $6 $7 $8 $9 X,Y pos of 4 corners*
0 Add a 4 corners polygon primitive as box body*
4,1,4,$2,$3,$4,$5,$6,$7,$8,$9,$2,$3,0*
0 Add four circle primitives for the rounded corners*
1,1,$1+$1,$2,$3*
1,1,$1+$1,$4,$5*
1,1,$1+$1,$6,$7*
1,1,$1+$1,$8,$9*
0 Add four rect primitives between the rounded corners*
20,1,$1+$1,$2,$3,$4,$5,0*
20,1,$1+$1,$4,$5,$6,$7,0*
20,1,$1+$1,$6,$7,$8,$9,0*
20,1,$1+$1,$8,$9,$2,$3,0*%
G04 Aperture macros list end*
%ADD10C,0.010000*%
%ADD11RoundRect,0.225000X0.250000X-0.225000X0.250000X0.225000X-0.250000X0.225000X-0.250000X-0.225000X0*%
%ADD12RoundRect,0.200000X-0.200000X-0.275000X0.200000X-0.275000X0.200000X0.275000X-0.200000X0.275000X0*%
%ADD13RoundRect,0.200000X0.275000X-0.200000X0.275000X0.200000X-0.275000X0.200000X-0.275000X-0.200000X0*%
%ADD14RoundRect,0.225000X-0.375000X0.225000X-0.375000X-0.225000X0.375000X-0.225000X0.375000X0.225000X0*%
%ADD15RoundRect,0.102000X-0.325000X0.525000X-0.325000X-0.525000X0.325000X-0.525000X0.325000X0.525000X0*%
%ADD16RoundRect,0.225000X0.225000X0.250000X-0.225000X0.250000X-0.225000X-0.250000X0.225000X-0.250000X0*%
%ADD17C,0.600000*%
%ADD18O,1.104000X2.204000*%
%ADD19O,1.104000X1.904000*%
%ADD20RoundRect,0.225000X-0.250000X0.225000X-0.250000X-0.225000X0.250000X-0.225000X0.250000X0.225000X0*%
%ADD21C,3.550000*%
%ADD22RoundRect,0.102000X-1.447500X1.447500X-1.447500X-1.447500X1.447500X-1.447500X1.447500X1.447500X0*%
%ADD23C,3.099000*%
%ADD24R,1.500000X0.900000*%
%ADD25R,0.900000X1.500000*%
%ADD26R,3.900000X3.900000*%
%ADD27RoundRect,0.375000X-0.375000X0.625000X-0.375000X-0.625000X0.375000X-0.625000X0.375000X0.625000X0*%
%ADD28RoundRect,0.500000X-1.400000X0.500000X-1.400000X-0.500000X1.400000X-0.500000X1.400000X0.500000X0*%
%ADD29RoundRect,0.150000X-0.150000X-0.200000X0.150000X-0.200000X0.150000X0.200000X-0.150000X0.200000X0*%
%ADD30RoundRect,0.150000X0.150000X0.200000X-0.150000X0.200000X-0.150000X-0.200000X0.150000X-0.200000X0*%
%ADD31RoundRect,0.147500X0.147500X0.172500X-0.147500X0.172500X-0.147500X-0.172500X0.147500X-0.172500X0*%
%ADD32RoundRect,0.102000X0.599000X0.599000X-0.599000X0.599000X-0.599000X-0.599000X0.599000X-0.599000X0*%
%ADD33C,1.402000*%
G04 APERTURE END LIST*
D10*
%TO.C,J1*%
X122650000Y-59270000D02*
X121950000Y-59270000D01*
X121950000Y-58030000D01*
X122650000Y-58030000D01*
X122650000Y-59270000D01*
G36*
X122650000Y-59270000D02*
G01*
X121950000Y-59270000D01*
X121950000Y-58030000D01*
X122650000Y-58030000D01*
X122650000Y-59270000D01*
G37*
X123450000Y-59270000D02*
X122750000Y-59270000D01*
X122750000Y-58030000D01*
X123450000Y-58030000D01*
X123450000Y-59270000D01*
G36*
X123450000Y-59270000D02*
G01*
X122750000Y-59270000D01*
X122750000Y-58030000D01*
X123450000Y-58030000D01*
X123450000Y-59270000D01*
G37*
X123950000Y-59270000D02*
X123550000Y-59270000D01*
X123550000Y-58030000D01*
X123950000Y-58030000D01*
X123950000Y-59270000D01*
G36*
X123950000Y-59270000D02*
G01*
X123550000Y-59270000D01*
X123550000Y-58030000D01*
X123950000Y-58030000D01*
X123950000Y-59270000D01*
G37*
X124450000Y-59270000D02*
X124050000Y-59270000D01*
X124050000Y-58030000D01*
X124450000Y-58030000D01*
X124450000Y-59270000D01*
G36*
X124450000Y-59270000D02*
G01*
X124050000Y-59270000D01*
X124050000Y-58030000D01*
X124450000Y-58030000D01*
X124450000Y-59270000D01*
G37*
X124950000Y-59270000D02*
X124550000Y-59270000D01*
X124550000Y-58030000D01*
X124950000Y-58030000D01*
X124950000Y-59270000D01*
G36*
X124950000Y-59270000D02*
G01*
X124550000Y-59270000D01*
X124550000Y-58030000D01*
X124950000Y-58030000D01*
X124950000Y-59270000D01*
G37*
X125450000Y-59270000D02*
X125050000Y-59270000D01*
X125050000Y-58030000D01*
X125450000Y-58030000D01*
X125450000Y-59270000D01*
G36*
X125450000Y-59270000D02*
G01*
X125050000Y-59270000D01*
X125050000Y-58030000D01*
X125450000Y-58030000D01*
X125450000Y-59270000D01*
G37*
X125950000Y-59270000D02*
X125550000Y-59270000D01*
X125550000Y-58030000D01*
X125950000Y-58030000D01*
X125950000Y-59270000D01*
G36*
X125950000Y-59270000D02*
G01*
X125550000Y-59270000D01*
X125550000Y-58030000D01*
X125950000Y-58030000D01*
X125950000Y-59270000D01*
G37*
X126450000Y-59270000D02*
X126050000Y-59270000D01*
X126050000Y-58030000D01*
X126450000Y-58030000D01*
X126450000Y-59270000D01*
G36*
X126450000Y-59270000D02*
G01*
X126050000Y-59270000D01*
X126050000Y-58030000D01*
X126450000Y-58030000D01*
X126450000Y-59270000D01*
G37*
X126950000Y-59270000D02*
X126550000Y-59270000D01*
X126550000Y-58030000D01*
X126950000Y-58030000D01*
X126950000Y-59270000D01*
G36*
X126950000Y-59270000D02*
G01*
X126550000Y-59270000D01*
X126550000Y-58030000D01*
X126950000Y-58030000D01*
X126950000Y-59270000D01*
G37*
X127450000Y-59270000D02*
X127050000Y-59270000D01*
X127050000Y-58030000D01*
X127450000Y-58030000D01*
X127450000Y-59270000D01*
G36*
X127450000Y-59270000D02*
G01*
X127050000Y-59270000D01*
X127050000Y-58030000D01*
X127450000Y-58030000D01*
X127450000Y-59270000D01*
G37*
X128250000Y-59270000D02*
X127550000Y-59270000D01*
X127550000Y-58030000D01*
X128250000Y-58030000D01*
X128250000Y-59270000D01*
G36*
X128250000Y-59270000D02*
G01*
X127550000Y-59270000D01*
X127550000Y-58030000D01*
X128250000Y-58030000D01*
X128250000Y-59270000D01*
G37*
X129050000Y-59270000D02*
X128350000Y-59270000D01*
X128350000Y-58030000D01*
X129050000Y-58030000D01*
X129050000Y-59270000D01*
G36*
X129050000Y-59270000D02*
G01*
X128350000Y-59270000D01*
X128350000Y-58030000D01*
X129050000Y-58030000D01*
X129050000Y-59270000D01*
G37*
%TD*%
D11*
%TO.C,C9*%
X161475000Y-49487500D03*
X161475000Y-47937500D03*
%TD*%
D12*
%TO.C,R4*%
X136675000Y-43400000D03*
X138325000Y-43400000D03*
%TD*%
D13*
%TO.C,R5*%
X161475000Y-52937500D03*
X161475000Y-51287500D03*
%TD*%
D14*
%TO.C,D1*%
X118000000Y-60850000D03*
X118000000Y-64150000D03*
%TD*%
D12*
%TO.C,R2*%
X133275000Y-60900000D03*
X134925000Y-60900000D03*
%TD*%
%TO.C,R1*%
X133275000Y-64400000D03*
X134925000Y-64400000D03*
%TD*%
D15*
%TO.C,SW1*%
X165850000Y-48325000D03*
X165850000Y-52475000D03*
X163700000Y-48325000D03*
X163700000Y-52475000D03*
%TD*%
D11*
%TO.C,C3*%
X124100000Y-38175000D03*
X124100000Y-36625000D03*
%TD*%
D16*
%TO.C,C8*%
X138275000Y-38500000D03*
X136725000Y-38500000D03*
%TD*%
D17*
%TO.C,J1*%
X122610000Y-59720000D03*
X128390000Y-59720000D03*
D18*
X121175000Y-59230000D03*
X129825000Y-59230000D03*
D19*
X121175000Y-63400000D03*
X129825000Y-63400000D03*
%TD*%
D20*
%TO.C,C4*%
X132000000Y-44525000D03*
X132000000Y-46075000D03*
%TD*%
%TO.C,C1*%
X118000000Y-56600000D03*
X118000000Y-58150000D03*
%TD*%
D21*
%TO.C,J2*%
X109975000Y-41100000D03*
X109975000Y-61930000D03*
D22*
X112205000Y-47065000D03*
D23*
X112205000Y-51515000D03*
X112205000Y-55955000D03*
X107755000Y-55955000D03*
X107755000Y-51515000D03*
X107755000Y-47065000D03*
%TD*%
D12*
%TO.C,R9*%
X136675000Y-40100000D03*
X138325000Y-40100000D03*
%TD*%
D16*
%TO.C,C6*%
X138275000Y-41700000D03*
X136725000Y-41700000D03*
%TD*%
D24*
%TO.C,U2*%
X141750000Y-36440000D03*
X141750000Y-37710000D03*
X141750000Y-38980000D03*
X141750000Y-40250000D03*
X141750000Y-41520000D03*
X141750000Y-42790000D03*
X141750000Y-44060000D03*
X141750000Y-45330000D03*
X141750000Y-46600000D03*
X141750000Y-47870000D03*
X141750000Y-49140000D03*
X141750000Y-50410000D03*
X141750000Y-51680000D03*
X141750000Y-52950000D03*
D25*
X143515000Y-54200000D03*
X144785000Y-54200000D03*
X146055000Y-54200000D03*
X147325000Y-54200000D03*
X148595000Y-54200000D03*
X149865000Y-54200000D03*
X151135000Y-54200000D03*
X152405000Y-54200000D03*
X153675000Y-54200000D03*
X154945000Y-54200000D03*
X156215000Y-54200000D03*
X157485000Y-54200000D03*
D24*
X159250000Y-52950000D03*
X159250000Y-51680000D03*
X159250000Y-50410000D03*
X159250000Y-49140000D03*
X159250000Y-47870000D03*
X159250000Y-46600000D03*
X159250000Y-45330000D03*
X159250000Y-44060000D03*
X159250000Y-42790000D03*
X159250000Y-41520000D03*
X159250000Y-40250000D03*
X159250000Y-38980000D03*
X159250000Y-37710000D03*
X159250000Y-36440000D03*
D17*
X147600000Y-43460000D03*
X147600000Y-44860000D03*
X148300000Y-42760000D03*
X148300000Y-44160000D03*
X148300000Y-45560000D03*
X149000000Y-43460000D03*
D26*
X149000000Y-44160000D03*
D17*
X149000000Y-44860000D03*
X149700000Y-42760000D03*
X149700000Y-44160000D03*
X149700000Y-45560000D03*
X150400000Y-43460000D03*
X150400000Y-44860000D03*
%TD*%
D13*
%TO.C,R6*%
X161400000Y-45125000D03*
X161400000Y-43475000D03*
%TD*%
D27*
%TO.C,U1*%
X127900000Y-41050000D03*
X125600000Y-41050000D03*
D28*
X125600000Y-47350000D03*
D27*
X123300000Y-41050000D03*
%TD*%
D20*
%TO.C,C5*%
X130300000Y-44525000D03*
X130300000Y-46075000D03*
%TD*%
D16*
%TO.C,C7*%
X138275000Y-36800000D03*
X136725000Y-36800000D03*
%TD*%
D29*
%TO.C,D4*%
X128700000Y-55300000D03*
X127300000Y-55300000D03*
%TD*%
D30*
%TO.C,D3*%
X123300000Y-55300000D03*
X124700000Y-55300000D03*
%TD*%
D11*
%TO.C,C2*%
X122100000Y-38175000D03*
X122100000Y-36625000D03*
%TD*%
D12*
%TO.C,R3*%
X122575000Y-50100000D03*
X124225000Y-50100000D03*
%TD*%
D29*
%TO.C,D2*%
X134800000Y-58500000D03*
X133400000Y-58500000D03*
%TD*%
D31*
%TO.C,D5*%
X127885000Y-50100000D03*
X126915000Y-50100000D03*
%TD*%
D11*
%TO.C,C10*%
X161400000Y-41575000D03*
X161400000Y-40025000D03*
%TD*%
D15*
%TO.C,SW2*%
X165775000Y-40500000D03*
X165775000Y-44650000D03*
X163625000Y-40500000D03*
X163625000Y-44650000D03*
%TD*%
D32*
%TO.C,U5*%
X163640000Y-61500000D03*
D33*
X161100000Y-64040000D03*
X158560000Y-61500000D03*
X161100000Y-58960000D03*
%TD*%
M02*
